<?xml version="1.0" encoding="UTF-8" standalone="no"?>
<!DOCTYPE svg PUBLIC "-//W3C//DTD SVG 1.1//EN" "http://www.w3.org/Graphics/SVG/1.1/DTD/svg11.dtd">
<svg xmlns="http://www.w3.org/2000/svg" version="1.1" viewBox="0.00 0.00 150.00 195.00">
<g stroke-width="2.00" fill="none" stroke-linecap="butt">
<path stroke="#7f5f4c" vector-effect="non-scaling-stroke" d="
  M 113.73 23.00
  C 113.89 19.60 115.45 16.45 114.42 12.88
  C 113.96 11.32 114.10 9.84 113.20 8.51
  Q 111.63 6.19 109.19 4.90
  C 107.36 3.93 105.19 4.35 103.10 4.03"
/>
<path stroke="#7f5f4c" vector-effect="non-scaling-stroke" d="
  M 113.73 23.00
  Q 112.53 24.94 112.67 27.20"
/>
<path stroke="#7f5f4c" vector-effect="non-scaling-stroke" d="
  M 112.43 27.78
  Q 111.76 28.93 111.65 30.27"
/>
<path stroke="#7f5f4c" vector-effect="non-scaling-stroke" d="
  M 110.30 34.88
  Q 106.39 43.00 105.82 51.95"
/>
<path stroke="#7f5f4c" vector-effect="non-scaling-stroke" d="
  M 105.69 52.73
  Q 104.61 55.43 104.67 58.25"
/>
<path stroke="#7f5f4c" vector-effect="non-scaling-stroke" d="
  M 104.60 59.41
  Q 103.29 61.06 103.62 63.58"
/>
<path stroke="#7f5f4c" vector-effect="non-scaling-stroke" d="
  M 103.44 63.82
  Q 102.30 65.76 102.39 67.71"
/>
<path stroke="#7f5f4c" vector-effect="non-scaling-stroke" d="
  M 102.14 68.29
  L 100.72 72.81
  Q 100.56 73.33 100.79 73.83
  Q 101.73 75.81 100.95 77.80
  A 2.60 2.60 0.0 0 0 102.40 81.15
  L 110.29 84.30"
/>
<path stroke="#7f5f4c" vector-effect="non-scaling-stroke" d="
  M 112.31 85.12
  Q 112.36 85.95 113.13 86.82
  C 113.65 87.42 114.09 88.28 115.06 88.65"
/>
<path stroke="#7f5f4c" vector-effect="non-scaling-stroke" d="
  M 114.98 89.05
  L 115.53 95.30
  Q 115.58 95.79 116.00 96.06
  Q 117.38 96.93 118.56 96.06"
/>
<path stroke="#7f5f4c" vector-effect="non-scaling-stroke" d="
  M 120.22 96.74
  Q 120.11 96.86 120.14 97.02
  Q 120.17 97.25 120.39 97.33
  C 123.51 98.56 124.39 101.25 126.16 103.65
  C 128.19 106.39 128.98 108.28 129.43 111.42
  Q 129.66 113.02 128.99 116.01
  C 127.50 122.71 132.54 129.46 128.74 135.20
  C 127.39 137.24 127.42 139.09 127.76 141.34"
/>
<path stroke="#7f5f4c" vector-effect="non-scaling-stroke" d="
  M 127.49 141.88
  Q 126.10 145.79 126.62 149.98"
/>
<path stroke="#7f5f4c" vector-effect="non-scaling-stroke" d="
  M 126.47 150.96
  L 121.06 166.33"
/>
<path stroke="#7f5f4c" vector-effect="non-scaling-stroke" d="
  M 120.64 166.71
  Q 119.85 167.16 119.64 168.96"
/>
<path stroke="#7f5f4c" vector-effect="non-scaling-stroke" d="
  M 119.41 169.71
  Q 119.16 169.71 119.05 169.99
  Q 117.05 175.15 117.39 180.65"
/>
<path stroke="#7f5f4c" vector-effect="non-scaling-stroke" d="
  M 117.31 182.39
  Q 116.18 183.08 116.34 184.67"
/>
<path stroke="#7f5f4c" vector-effect="non-scaling-stroke" d="
  M 110.57 195.00
  Q 112.08 190.34 105.19 195.00"
/>
<path stroke="#7f5f4c" vector-effect="non-scaling-stroke" d="
  M 101.58 195.00
  C 105.36 191.72 113.56 183.33 113.69 178.24
  C 113.80 173.78 114.11 170.69 116.01 166.49
  Q 119.01 159.82 121.97 153.14
  C 124.36 147.74 123.50 141.73 124.36 135.96
  Q 124.44 135.44 123.92 135.49
  Q 121.53 135.71 119.52 134.40
  Q 118.02 133.43 119.80 133.50
  Q 121.22 133.55 123.25 133.48
  C 127.48 133.33 128.37 129.46 127.68 126.00
  Q 126.23 118.71 126.98 115.74
  C 128.32 110.43 126.13 102.47 121.28 99.35
  C 117.46 96.88 113.13 96.34 109.96 100.21
  Q 105.37 105.80 102.15 110.82
  Q 100.42 113.51 98.29 115.69
  C 94.45 119.61 92.85 123.21 90.48 127.47
  C 88.33 131.35 79.53 137.70 86.54 141.48
  C 93.42 145.19 101.03 141.54 105.36 135.63
  C 108.00 132.04 109.78 128.04 113.07 125.03
  C 117.08 121.37 118.96 119.57 121.43 113.35
  A 0.47 0.47 0.0 0 1 122.02 113.09
  L 122.33 113.19
  Q 122.55 113.27 122.47 113.48
  L 120.19 119.44
  Q 119.98 119.98 120.55 119.87
  Q 121.83 119.63 122.70 118.68
  A 0.26 0.25 -27.3 0 1 123.14 118.82
  Q 123.17 118.98 123.09 119.16
  Q 122.99 119.39 122.64 119.59
  C 120.35 120.91 117.10 122.92 116.59 125.44
  Q 116.47 126.03 117.05 125.86
  L 121.26 124.58
  A 0.25 0.25 0.0 0 1 121.47 125.02
  C 119.41 126.50 115.74 125.48 114.87 127.79
  Q 114.68 128.31 115.19 128.51
  C 117.80 129.52 121.71 128.82 124.34 128.51
  A 0.27 0.26 28.7 0 1 124.49 129.01
  Q 118.76 131.69 112.55 130.49
  Q 111.93 130.37 111.55 130.87
  C 110.03 132.83 113.00 134.38 114.11 135.24
  Q 115.71 136.49 113.74 135.98
  L 110.20 135.06
  A 1.18 1.17 33.5 0 0 109.20 135.26
  C 106.08 137.68 106.93 141.80 109.05 144.60
  Q 109.18 144.76 109.01 144.88
  L 108.78 145.06
  A 0.26 0.26 0.0 0 1 108.42 145.01
  Q 106.81 142.95 106.50 142.50
  Q 103.54 138.26 103.48 143.43
  Q 103.46 145.26 104.28 147.08
  Q 105.93 150.72 103.14 147.85
  Q 101.63 146.29 100.85 144.22
  Q 100.67 143.72 100.17 143.91
  L 94.13 146.20
  Q 93.75 146.34 93.78 146.75
  Q 93.99 149.67 94.85 152.46
  Q 94.88 152.56 94.79 152.59
  L 94.54 152.69
  Q 94.41 152.74 94.35 152.62
  L 91.26 146.49
  Q 91.01 146.01 90.50 145.86
  Q 86.84 144.84 83.72 142.60
  A 1.55 1.54 19.6 0 0 81.27 143.76
  Q 80.94 149.50 80.23 154.50
  Q 79.04 162.82 71.19 169.55
  Q 70.99 169.72 70.82 169.53
  L 70.64 169.34
  Q 70.30 168.97 70.67 168.62
  C 78.28 161.26 78.91 150.34 77.03 140.49
  Q 76.94 139.98 76.42 139.96
  Q 72.92 139.84 69.96 138.03
  Q 69.52 137.76 69.02 137.80
  C 64.22 138.11 61.97 142.07 59.16 145.15
  Q 58.49 145.89 57.51 146.13
  Q 56.86 146.29 57.33 145.81
  Q 61.42 141.64 64.12 136.45
  Q 64.47 135.77 64.19 135.56
  A 0.86 0.85 -51.0 0 0 63.02 135.69
  C 59.03 140.32 54.59 144.99 48.87 147.35
  Q 48.69 147.43 48.60 147.25
  L 48.60 147.24
  Q 48.52 147.05 48.70 146.96
  Q 55.07 143.75 58.59 139.06
  Q 61.61 135.03 57.61 138.08
  C 55.38 139.78 51.28 140.11 48.64 141.74
  Q 46.47 143.09 44.60 144.87
  A 1.44 1.44 0.0 0 1 43.04 145.14
  Q 42.42 144.87 42.51 144.52
  A 0.27 0.27 0.0 0 1 42.71 144.32
  C 43.60 144.10 44.49 143.93 45.19 143.29
  Q 48.38 140.33 53.50 138.76
  Q 55.58 138.12 57.21 135.70
  Q 57.64 135.05 56.92 135.34
  Q 52.26 137.19 47.25 137.44
  Q 47.19 137.44 47.18 137.30
  L 47.18 137.30
  Q 47.16 137.16 47.38 137.13
  Q 51.95 136.48 55.88 134.01
  Q 56.81 133.42 55.71 133.38
  C 53.75 133.30 50.85 133.55 49.09 133.18
  Q 46.36 132.62 49.15 132.55
  C 55.33 132.41 61.25 131.52 65.00 125.63
  A 0.50 0.50 0.0 0 0 64.52 124.87
  Q 61.32 125.29 60.73 125.26
  Q 55.07 124.96 60.60 123.67
  C 63.28 123.05 66.27 122.21 68.05 119.39
  A 0.72 0.72 0.0 0 0 67.38 118.29
  L 65.36 118.46
  Q 64.14 118.56 65.18 117.91
  Q 66.12 117.32 67.64 117.23
  C 75.18 116.80 85.91 111.52 88.57 104.17
  C 89.95 100.38 89.64 92.88 85.21 90.59
  C 82.45 89.16 77.64 90.51 75.77 91.77
  C 69.88 95.74 66.14 96.54 60.24 97.81
  C 54.59 99.03 51.49 101.43 49.15 106.43
  C 46.89 111.27 45.15 115.75 40.78 118.92
  Q 39.33 119.97 40.20 118.40
  L 44.80 110.06
  A 0.38 0.37 20.0 0 0 44.54 109.51
  Q 42.66 109.17 41.54 107.65
  A 0.33 0.32 -84.6 0 1 42.04 107.23
  Q 43.10 108.41 44.55 109.14
  Q 45.06 109.40 45.35 108.91
  L 51.08 99.46
  Q 51.42 98.89 50.91 98.47
  Q 48.18 96.25 44.72 95.38
  Q 44.62 95.35 44.66 95.26
  L 44.84 94.81
  Q 44.93 94.57 45.16 94.68
  L 52.24 98.13
  Q 52.61 98.31 52.98 98.14
  C 54.69 97.39 56.07 96.83 57.99 96.54
  Q 65.19 95.46 71.17 92.41
  Q 73.41 91.27 72.70 88.53
  Q 72.68 88.45 72.75 88.42
  Q 72.88 88.37 73.01 88.31
  Q 73.37 88.15 73.55 88.50
  L 74.24 89.89
  Q 74.43 90.28 74.85 90.16
  L 81.53 88.14
  Q 81.98 88.00 81.61 87.71
  Q 79.39 86.00 78.14 84.43
  Q 76.97 82.95 78.49 84.05
  L 83.81 87.89
  A 2.57 2.57 0.0 0 0 86.57 88.05
  C 89.09 86.63 91.04 84.77 93.45 83.15
  C 95.14 82.02 97.36 81.49 99.26 80.34
  Q 99.74 80.05 99.67 79.50
  Q 99.60 79.02 99.18 78.83
  A 0.63 0.62 26.6 0 1 98.89 77.97
  Q 99.73 76.42 99.31 74.74
  Q 99.17 74.17 99.42 73.65
  Q 99.97 72.52 99.70 71.27
  Q 99.57 70.66 100.04 70.25
  Q 100.69 69.68 100.36 68.99
  Q 100.14 68.51 100.26 68.00
  Q 102.91 57.32 104.73 46.48
  Q 105.43 42.29 107.01 37.71
  C 109.09 31.68 115.53 14.31 111.10 8.49
  C 106.30 2.20 99.88 6.82 96.51 11.33
  Q 94.98 13.38 93.48 17.45
  C 89.26 28.83 86.32 40.28 82.78 51.75
  Q 82.46 52.80 82.01 55.42
  C 81.48 58.61 79.44 61.54 78.79 64.25
  C 77.87 68.01 76.55 75.79 73.60 78.35
  C 69.91 81.56 63.65 79.96 62.07 75.19
  Q 60.87 71.56 57.28 59.42
  C 55.73 54.16 53.47 49.21 51.14 44.25
  Q 50.69 43.29 50.55 42.18
  C 49.45 33.68 47.72 25.75 44.49 17.80
  C 43.25 14.75 41.13 10.11 37.00 10.70
  C 30.89 11.58 29.38 15.44 29.22 21.00
  Q 29.02 28.19 29.56 33.50
  Q 30.01 37.95 35.48 52.98
  Q 38.77 62.05 40.50 74.83
  C 40.99 78.48 42.81 80.70 42.24 84.64
  C 41.47 89.95 41.89 95.70 40.96 100.40
  C 40.29 103.76 38.34 107.94 38.45 111.25
  C 38.60 116.23 37.20 119.30 35.02 123.56
  C 32.95 127.60 33.47 134.96 32.98 139.57
  C 32.15 147.40 35.38 152.28 36.84 159.35
  Q 38.85 169.13 43.04 178.24
  Q 43.64 179.56 46.41 182.04
  A 1.21 1.19 21.1 0 1 46.80 182.90
  L 47.05 195.00"
/>
<path stroke="#84817d" stroke-opacity="0.996" vector-effect="non-scaling-stroke" d="
  M 44.05 192.49
  L 43.90 185.98
  Q 43.89 185.44 43.49 185.08
  Q 42.36 184.05 41.83 182.63
  Q 41.71 182.28 41.34 182.29
  Q 41.16 182.30 41.08 182.46"
/>
<path stroke="#84817d" stroke-opacity="0.996" vector-effect="non-scaling-stroke" d="
  M 40.72 181.74
  Q 40.98 181.68 40.74 181.28
  Q 35.33 172.30 35.19 161.74
  Q 35.14 158.26 31.61 151.69"
/>
<path stroke="#7f5f4c" vector-effect="non-scaling-stroke" d="
  M 31.27 151.50
  Q 31.15 150.53 30.53 149.69"
/>
<path stroke="#84817d" stroke-opacity="0.996" vector-effect="non-scaling-stroke" d="
  M 29.80 148.35
  Q 30.46 147.11 29.34 145.79"
/>
<path stroke="#7f5f4c" vector-effect="non-scaling-stroke" d="
  M 29.39 141.76
  Q 30.67 140.94 30.17 138.29"
/>
<path stroke="#7f5f4c" vector-effect="non-scaling-stroke" d="
  M 30.56 137.47
  Q 31.70 133.70 31.58 129.76"
/>
<path stroke="#7f5f4c" vector-effect="non-scaling-stroke" d="
  M 31.63 128.08
  Q 32.98 126.70 32.56 124.51"
/>
<path stroke="#7f5f4c" vector-effect="non-scaling-stroke" d="
  M 32.93 123.81
  C 34.30 120.54 35.82 117.85 35.84 114.11
  Q 35.86 109.51 38.06 104.25
  Q 39.70 100.34 39.66 94.33"
/>
<path stroke="#7f5f4c" vector-effect="non-scaling-stroke" d="
  M 39.84 91.44
  L 40.89 84.27
  Q 40.92 84.02 40.81 83.79
  Q 40.74 83.66 40.70 83.55"
/>
<path stroke="#7f5f4c" vector-effect="non-scaling-stroke" d="
  M 40.59 82.70
  Q 40.94 81.54 39.99 80.38
  Q 39.90 80.28 39.77 80.32
  Q 39.65 80.36 39.62 80.54"
/>
<path stroke="#7f5f4c" vector-effect="non-scaling-stroke" d="
  M 39.25 79.59
  Q 39.63 79.34 39.48 78.25
  Q 38.70 72.31 37.29 67.98"
/>
<path stroke="#7f5f4c" vector-effect="non-scaling-stroke" d="
  M 37.29 67.98
  Q 37.39 65.80 36.32 64.20"
/>
<path stroke="#7f5f4c" vector-effect="non-scaling-stroke" d="
  M 35.58 62.48
  Q 35.75 58.53 33.79 54.70"
/>
<path stroke="#7f5f4c" vector-effect="non-scaling-stroke" d="
  M 33.58 53.95
  Q 33.31 51.56 31.24 46.24
  Q 26.73 34.68 28.00 20.50
  Q 28.48 15.19 30.63 12.05"
/>
<path stroke="#7f5f4c" vector-effect="non-scaling-stroke" d="
  M 31.50 11.41
  Q 33.82 10.95 35.09 9.90"
/>
<path stroke="#7f5f4c" vector-effect="non-scaling-stroke" d="
  M 35.95 9.28
  Q 36.28 9.86 36.74 9.71
  C 44.12 7.30 44.64 15.89 46.87 20.34
  Q 50.56 27.72 51.71 35.97
  Q 51.74 36.18 51.95 36.13
  Q 52.21 36.07 52.13 35.96"
/>
<path stroke="#7f5f4c" vector-effect="non-scaling-stroke" d="
  M 52.25 37.50
  Q 51.98 40.09 53.21 42.23"
/>
<path stroke="#7f5f4c" vector-effect="non-scaling-stroke" d="
  M 53.38 43.04
  Q 53.77 45.57 55.39 47.73"
/>
<path stroke="#7f5f4c" vector-effect="non-scaling-stroke" d="
  M 55.74 48.17
  L 64.45 73.49"
/>
<path stroke="#7f5f4c" vector-effect="non-scaling-stroke" d="
  M 64.59 74.01
  C 65.18 77.91 70.57 80.58 72.71 76.26"
/>
<path stroke="#7f5f4c" vector-effect="non-scaling-stroke" d="
  M 72.94 75.55
  Q 73.97 74.14 74.06 72.55"
/>
<path stroke="#7f5f4c" vector-effect="non-scaling-stroke" d="
  M 74.06 72.55
  Q 74.89 71.06 75.03 69.51"
/>
<path stroke="#7f5f4c" vector-effect="non-scaling-stroke" d="
  M 75.22 69.41
  Q 77.22 63.04 79.88 57.07
  Q 80.55 55.56 80.79 52.50"
/>
<path stroke="#7f5f4c" vector-effect="non-scaling-stroke" d="
  M 80.86 51.98
  Q 81.44 50.87 81.78 49.65
  Q 83.85 42.22 86.34 34.92
  Q 86.43 34.67 86.40 34.45
  Q 86.36 34.19 86.27 33.95"
/>
<path stroke="#7f5f4c" vector-effect="non-scaling-stroke" d="
  M 86.65 32.78
  L 86.81 32.98
  Q 86.87 33.06 86.92 32.97
  Q 88.36 29.99 88.66 27.01"
/>
<path stroke="#7f5f4c" vector-effect="non-scaling-stroke" d="
  M 88.86 25.82
  L 90.87 20.18"
/>
<path stroke="#7f5f4c" vector-effect="non-scaling-stroke" d="
  M 91.24 19.14
  Q 92.48 17.57 93.06 14.95"
/>
<path stroke="#7f5f4c" vector-effect="non-scaling-stroke" d="
  M 96.88 8.88
  Q 99.37 6.12 102.47 4.82
  Q 102.86 4.66 102.50 4.45
  Q 102.34 4.36 102.02 4.36"
/>
<path stroke="#7f5f4c" vector-effect="non-scaling-stroke" d="
  M 88.64 90.58
  C 97.17 105.44 85.37 112.39 74.76 118.77
  C 71.79 120.56 70.15 124.67 68.32 127.54
  C 64.19 134.05 75.88 138.65 80.35 137.03
  C 83.02 136.06 87.26 129.17 88.53 126.49
  C 94.02 114.93 103.26 105.36 111.97 96.15
  Q 112.29 95.81 112.37 95.34
  Q 113.22 90.30 112.66 88.86
  C 111.55 85.98 105.31 83.68 103.26 82.90
  Q 100.46 81.83 96.85 83.09
  C 93.84 84.13 91.51 87.73 88.80 89.79
  Q 88.37 90.12 88.64 90.58"
/>
<path stroke="#7f5f4c" vector-effect="non-scaling-stroke" d="
  M 101.29 37.53
  L 101.38 37.20
  Q 101.48 36.85 101.11 36.77
  Q 95.83 35.70 91.66 32.29
  Q 91.58 32.22 91.49 32.29
  L 91.26 32.49
  A 0.26 0.25 -42.7 0 0 91.24 32.86
  Q 95.39 36.91 101.17 37.61
  Q 101.26 37.62 101.29 37.53"
/>
<path stroke="#7f5f4c" vector-effect="non-scaling-stroke" d="
  M 45.5500 40.2061
  A 0.37 0.37 0.0 0 0 45.0797 39.9767
  L 37.7803 42.4901
  A 0.37 0.37 0.0 0 0 37.5509 42.9604
  L 37.5900 43.0739
  A 0.37 0.37 0.0 0 0 38.0603 43.3033
  L 45.3597 40.7899
  A 0.37 0.37 0.0 0 0 45.5891 40.3196
  L 45.5500 40.2061"
/>
<path stroke="#7f5f4c" vector-effect="non-scaling-stroke" d="
  M 50.89 59.45
  L 41.60 63.21
  A 0.12 0.12 0.0 0 0 41.53 63.36
  L 41.56 63.42
  A 5.02 1.98 -22.0 0 0 46.95 63.37
  L 47.16 63.29
  A 5.02 1.98 -22.0 0 0 51.07 59.57
  L 51.05 59.52
  A 0.12 0.12 0.0 0 0 50.89 59.45"
/>
<path stroke="#7f5f4c" vector-effect="non-scaling-stroke" d="
  M 92.57 65.02
  C 89.67 64.62 88.50 64.08 86.18 62.30
  Q 85.46 61.75 85.95 62.51
  C 87.41 64.79 89.98 66.22 92.70 66.20
  Q 92.96 66.20 92.98 65.95
  L 93.01 65.57
  A 0.52 0.51 6.5 0 0 92.57 65.02"
/>
<path stroke="#7f5f4c" vector-effect="non-scaling-stroke" d="
  M 62.4798 81.8021
  A 0.27 0.27 0.0 0 0 62.1316 81.6456
  L 46.8191 87.4622
  A 0.27 0.27 0.0 0 0 46.6626 87.8105
  L 46.8402 88.2779
  A 0.27 0.27 0.0 0 0 47.1884 88.4344
  L 62.5009 82.6178
  A 0.27 0.27 0.0 0 0 62.6574 82.2695
  L 62.4798 81.8021"
/>
<path stroke="#7f5f4c" vector-effect="non-scaling-stroke" d="
  M 69.26 90.05
  L 69.61 90.04
  A 0.29 0.28 87.2 0 0 69.89 89.72
  L 69.45 84.78
  Q 69.44 84.62 69.28 84.63
  L 68.99 84.64
  Q 68.94 84.64 68.93 84.70
  L 68.86 89.66
  A 0.39 0.38 -0.0 0 0 69.26 90.05"
/>
<path stroke="#7f5f4c" vector-effect="non-scaling-stroke" d="
  M 79.89 91.22
  Q 78.66 91.50 77.70 92.32
  C 74.03 95.43 69.51 94.99 69.77 100.99
  C 70.17 110.52 79.80 107.46 84.32 103.96
  A 1.64 1.63 79.5 0 0 84.88 103.14
  C 85.96 99.42 85.93 93.06 81.83 90.88
  Q 81.23 90.56 80.75 90.81
  A 1.28 0.07 -28.6 0 1 79.89 91.22"
/>
<path stroke="#7f5f4c" vector-effect="non-scaling-stroke" d="
  M 59.27 107.23
  Q 60.79 110.37 63.28 112.73
  A 0.08 0.07 -52.2 0 0 63.39 112.71
  Q 63.41 112.67 63.43 112.64
  Q 63.52 112.50 63.41 112.36
  L 59.27 107.23"
/>
<path stroke="#7f5f4c" vector-effect="non-scaling-stroke" d="
  M 59.27 107.23
  L 57.17 103.51
  Q 57.06 103.31 57.11 103.54
  Q 57.61 105.83 59.27 107.23"
/>
<path stroke="#7f5f4c" vector-effect="non-scaling-stroke" d="
  M 60.98 115.37
  L 61.37 115.03
  A 0.16 0.16 0.0 0 0 61.39 114.81
  L 61.31 114.71
  A 7.56 0.32 49.7 0 0 56.18 109.16
  L 56.03 109.29
  A 7.56 0.32 49.7 0 0 60.67 115.26
  L 60.75 115.35
  A 0.16 0.16 0.0 0 0 60.98 115.37"
/>
<path stroke="#7f5f4c" vector-effect="non-scaling-stroke" d="
  M 102.8374 123.6968
  A 2.21 0.18 27.1 0 0 100.9520 122.5298
  A 2.21 0.18 27.1 0 0 98.9026 121.6832
  A 2.21 0.18 27.1 0 0 100.7880 122.8502
  A 2.21 0.18 27.1 0 0 102.8374 123.6968"
/>
<path stroke="#7f5f4c" vector-effect="non-scaling-stroke" d="
  M 90.49 141.18
  C 95.79 142.99 97.81 139.12 98.18 134.66
  C 98.54 130.24 93.44 128.57 90.09 130.57
  C 88.73 131.38 87.96 133.19 86.88 134.36
  A 3.04 3.03 -36.4 0 0 86.37 137.72
  Q 87.54 140.17 90.49 141.18"
/>
<path stroke="#7f5f4c" vector-effect="non-scaling-stroke" d="
  M 98.7814 169.1132
  A 0.39 0.39 0.0 0 0 98.4770 168.6533
  L 98.4182 168.6413
  A 0.39 0.39 0.0 0 0 97.9582 168.9457
  L 96.5786 175.7268
  A 0.39 0.39 0.0 0 0 96.8830 176.1867
  L 96.9418 176.1987
  A 0.39 0.39 0.0 0 0 97.4018 175.8943
  L 98.7814 169.1132"
/>
<path stroke="#7f5f4c" vector-effect="non-scaling-stroke" d="
  M 103.63 179.60
  L 103.06 179.77
  A 1.97 1.97 0.0 0 1 100.77 176.96
  Q 101.58 175.42 101.14 173.77
  Q 100.96 173.11 100.50 173.61
  C 99.21 175.03 99.92 176.93 98.74 178.73
  Q 98.42 179.22 98.64 179.67
  Q 98.84 180.06 99.24 179.89
  Q 100.20 179.48 101.13 179.85
  Q 101.55 180.02 101.60 180.46
  Q 101.68 181.09 102.06 181.56
  A 0.59 0.59 0.0 0 0 103.02 181.51
  C 104.05 179.93 105.42 179.73 106.47 178.44
  Q 107.81 176.79 108.63 175.26
  Q 109.60 173.44 108.00 174.73
  L 104.85 177.25
  Q 104.41 177.60 103.85 177.53
  L 103.22 177.46
  A 0.51 0.51 0.0 0 0 102.70 178.18
  Q 102.97 178.77 103.62 178.94
  A 0.34 0.34 0.0 0 1 103.63 179.60"
/>
<path stroke="#7f5f4c" vector-effect="non-scaling-stroke" d="
  M 59.9583 175.5273
  A 1.99 0.19 -27.3 0 0 58.1029 176.2712
  A 1.99 0.19 -27.3 0 0 56.4217 177.3527
  A 1.99 0.19 -27.3 0 0 58.2771 176.6088
  A 1.99 0.19 -27.3 0 0 59.9583 175.5273"
/>
<path stroke="#7f5f4c" vector-effect="non-scaling-stroke" d="
  M 67.48 177.51
  Q 67.84 176.96 69.46 176.15
  Q 69.52 176.12 69.49 176.06
  L 69.35 175.79
  Q 69.29 175.68 69.18 175.72
  L 61.17 178.70
  Q 60.76 178.85 60.36 178.69
  Q 60.00 178.55 59.74 178.63
  Q 58.61 179.02 56.65 180.26
  Q 56.49 180.36 56.58 180.52
  L 56.59 180.52
  Q 56.68 180.68 56.84 180.60
  C 58.50 179.76 59.81 179.05 61.78 179.43
  Q 68.85 180.80 75.96 181.98
  C 80.31 182.70 84.01 184.28 88.19 185.42
  C 91.64 186.36 95.01 185.62 98.61 185.68
  Q 98.63 185.68 98.63 185.66
  Q 98.81 184.82 98.61 185.68
  Q 98.61 185.70 98.60 185.69
  C 95.80 184.84 93.11 185.45 90.54 184.59
  C 85.78 182.98 80.96 180.88 76.28 180.03
  Q 72.48 179.34 68.09 178.82
  Q 66.73 178.66 67.48 177.51"
/>
<path stroke="#7f5f4c" vector-effect="non-scaling-stroke" d="
  M 99.39 180.62
  Q 98.77 180.35 98.20 180.73
  Q 97.18 181.42 96.71 182.51
  A 0.46 0.46 0.0 0 0 97.28 183.12
  Q 98.40 182.72 99.54 182.73
  Q 100.20 182.74 100.23 182.09
  Q 100.28 181.00 99.39 180.62"
/>
<path stroke="#7f5f4c" vector-effect="non-scaling-stroke" d="
  M 89.1781 189.4062
  A 0.26 0.26 0.0 0 0 88.9882 189.0914
  L 68.1760 183.9409
  A 0.26 0.26 0.0 0 0 67.8612 184.1308
  L 67.7219 184.6938
  A 0.26 0.26 0.0 0 0 67.9118 185.0086
  L 88.7240 190.1591
  A 0.26 0.26 0.0 0 0 89.0388 189.9692
  L 89.1781 189.4062"
/>
<path stroke="#7f5f4c" vector-effect="non-scaling-stroke" d="
  M 86.69 116.14
  L 90.80 118.52
  A 0.31 0.31 0.0 0 0 91.26 118.32
  L 91.34 117.97
  Q 91.34 117.94 91.15 117.85
  L 86.81 115.91
  A 0.13 0.13 0.0 0 0 86.69 116.14"
/>
<path stroke="#7f5f4c" vector-effect="non-scaling-stroke" d="
  M 80.07 134.30
  C 82.73 132.27 86.29 126.00 83.72 123.01
  C 79.02 117.54 71.88 122.41 69.74 128.05
  C 67.79 133.21 76.40 137.11 80.07 134.30"
/>
<path stroke="#7f5f4c" vector-effect="non-scaling-stroke" d="
  M 75.40 94.78
  C 70.36 96.91 68.20 100.85 72.39 105.41
  Q 73.46 106.57 75.50 106.26
  C 79.15 105.71 84.45 104.84 84.25 100.25
  C 84.12 97.48 84.52 93.93 81.84 92.17
  A 1.74 1.73 -46.8 0 0 79.84 92.24
  Q 77.84 93.75 75.40 94.78"
/>
<path stroke="#7f5f4c" vector-effect="non-scaling-stroke" d="
  M 83.67 127.99
  A 4.04 4.04 0.0 0 0 80.35 122.29
  L 77.58 122.04
  A 4.04 4.04 0.0 0 0 74.07 123.55
  L 71.28 127.05
  A 4.04 4.04 0.0 0 0 73.04 133.36
  L 76.54 134.64
  A 4.04 4.04 0.0 0 0 81.61 132.52
  L 83.67 127.99"
/>
<path stroke="#7f5f4c" vector-effect="non-scaling-stroke" d="
  M 94.74 131.09
  A 3.08 3.08 0.0 0 0 90.48 131.50
  L 87.83 134.61
  A 3.08 3.08 0.0 0 0 89.20 139.53
  L 92.63 140.68
  A 3.08 3.08 0.0 0 0 96.53 138.73
  L 97.49 135.87
  A 3.08 3.08 0.0 0 0 96.49 132.49
  L 94.74 131.09"
/>
</g>
<path fill="#eeb089" d="
  M 100.32 0.00
  L 101.32 0.00
  Q 101.72 1.27 100.38 0.88
  Q 99.93 0.75 100.10 0.31
  Q 100.17 0.15 100.32 0.00
  Z"
/>
<path fill="#eeb089" d="
  M 113.73 23.00
  C 113.89 19.60 115.45 16.45 114.42 12.88
  C 113.96 11.32 114.10 9.84 113.20 8.51
  Q 111.63 6.19 109.19 4.90
  C 107.36 3.93 105.19 4.35 103.10 4.03
  C 102.21 3.05 100.63 3.24 100.28 2.86
  Q 100.18 2.74 100.18 2.58
  Q 100.20 2.30 100.46 2.19
  Q 101.72 1.67 102.55 2.68
  A 1.57 1.57 0.0 0 0 103.76 3.25
  L 108.29 3.23
  Q 108.87 3.23 109.24 3.69
  Q 110.35 5.05 112.06 5.52
  Q 112.49 5.63 112.67 6.04
  C 113.59 8.21 114.34 10.07 116.14 10.88
  Q 116.73 11.14 116.17 11.47
  L 115.45 11.89
  Q 114.97 12.16 114.97 12.71
  L 115.05 21.72
  Q 115.06 22.21 114.61 22.41
  Q 114.06 22.67 113.73 23.00
  Z"
/>
<path fill="#eeb089" d="
  M 99.21 5.54
  Q 98.05 5.34 98.01 4.41
  Q 97.98 3.93 98.45 4.06
  Q 99.06 4.22 99.21 5.54
  Z"
/>
<path fill="#0f0d0f" d="
  M 103.10 4.03
  C 105.19 4.35 107.36 3.93 109.19 4.90
  Q 111.63 6.19 113.20 8.51
  C 114.10 9.84 113.96 11.32 114.42 12.88
  C 115.45 16.45 113.89 19.60 113.73 23.00
  Q 112.53 24.94 112.67 27.20
  Q 112.78 28.00 112.43 27.78
  Q 111.76 28.93 111.65 30.27
  L 111.61 32.39
  Q 111.60 32.89 111.17 33.14
  Q 110.25 33.66 110.30 34.88
  Q 106.39 43.00 105.82 51.95
  L 105.69 52.73
  Q 104.61 55.43 104.67 58.25
  L 104.60 59.41
  Q 103.29 61.06 103.62 63.58
  Q 103.92 63.45 103.44 63.82
  Q 102.30 65.76 102.39 67.71
  Q 102.32 69.84 102.14 68.29
  L 100.72 72.81
  Q 100.56 73.33 100.79 73.83
  Q 101.73 75.81 100.95 77.80
  A 2.60 2.60 0.0 0 0 102.40 81.15
  L 110.29 84.30
  Q 111.10 84.92 112.31 85.12
  Q 112.36 85.95 113.13 86.82
  C 113.65 87.42 114.09 88.28 115.06 88.65
  Q 115.02 88.85 114.98 89.05
  L 115.53 95.30
  Q 115.58 95.79 116.00 96.06
  Q 117.38 96.93 118.56 96.06
  Q 118.90 97.03 120.22 96.74
  Q 120.11 96.86 120.14 97.02
  Q 120.17 97.25 120.39 97.33
  C 123.51 98.56 124.39 101.25 126.16 103.65
  C 128.19 106.39 128.98 108.28 129.43 111.42
  Q 129.66 113.02 128.99 116.01
  C 127.50 122.71 132.54 129.46 128.74 135.20
  C 127.39 137.24 127.42 139.09 127.76 141.34
  Q 127.67 141.72 127.49 141.88
  Q 126.10 145.79 126.62 149.98
  L 126.47 150.96
  L 121.06 166.33
  Q 120.72 166.52 120.64 166.71
  Q 119.85 167.16 119.64 168.96
  L 119.41 169.71
  Q 119.16 169.71 119.05 169.99
  Q 117.05 175.15 117.39 180.65
  Q 117.13 181.38 117.31 182.39
  Q 116.18 183.08 116.34 184.67
  Q 115.88 185.34 116.11 186.22
  Q 116.23 186.68 115.78 186.85
  Q 115.02 187.14 115.05 187.99
  Q 115.16 191.52 115.00 195.00
  L 110.57 195.00
  Q 112.08 190.34 105.19 195.00
  L 101.58 195.00
  C 105.36 191.72 113.56 183.33 113.69 178.24
  C 113.80 173.78 114.11 170.69 116.01 166.49
  Q 119.01 159.82 121.97 153.14
  C 124.36 147.74 123.50 141.73 124.36 135.96
  Q 124.44 135.44 123.92 135.49
  Q 121.53 135.71 119.52 134.40
  Q 118.02 133.43 119.80 133.50
  Q 121.22 133.55 123.25 133.48
  C 127.48 133.33 128.37 129.46 127.68 126.00
  Q 126.23 118.71 126.98 115.74
  C 128.32 110.43 126.13 102.47 121.28 99.35
  C 117.46 96.88 113.13 96.34 109.96 100.21
  Q 105.37 105.80 102.15 110.82
  Q 100.42 113.51 98.29 115.69
  C 94.45 119.61 92.85 123.21 90.48 127.47
  C 88.33 131.35 79.53 137.70 86.54 141.48
  C 93.42 145.19 101.03 141.54 105.36 135.63
  C 108.00 132.04 109.78 128.04 113.07 125.03
  C 117.08 121.37 118.96 119.57 121.43 113.35
  A 0.47 0.47 0.0 0 1 122.02 113.09
  L 122.33 113.19
  Q 122.55 113.27 122.47 113.48
  L 120.19 119.44
  Q 119.98 119.98 120.55 119.87
  Q 121.83 119.63 122.70 118.68
  A 0.26 0.25 -27.3 0 1 123.14 118.82
  Q 123.17 118.98 123.09 119.16
  Q 122.99 119.39 122.64 119.59
  C 120.35 120.91 117.10 122.92 116.59 125.44
  Q 116.47 126.03 117.05 125.86
  L 121.26 124.58
  A 0.25 0.25 0.0 0 1 121.47 125.02
  C 119.41 126.50 115.74 125.48 114.87 127.79
  Q 114.68 128.31 115.19 128.51
  C 117.80 129.52 121.71 128.82 124.34 128.51
  A 0.27 0.26 28.7 0 1 124.49 129.01
  Q 118.76 131.69 112.55 130.49
  Q 111.93 130.37 111.55 130.87
  C 110.03 132.83 113.00 134.38 114.11 135.24
  Q 115.71 136.49 113.74 135.98
  L 110.20 135.06
  A 1.18 1.17 33.5 0 0 109.20 135.26
  C 106.08 137.68 106.93 141.80 109.05 144.60
  Q 109.18 144.76 109.01 144.88
  L 108.78 145.06
  A 0.26 0.26 0.0 0 1 108.42 145.01
  Q 106.81 142.95 106.50 142.50
  Q 103.54 138.26 103.48 143.43
  Q 103.46 145.26 104.28 147.08
  Q 105.93 150.72 103.14 147.85
  Q 101.63 146.29 100.85 144.22
  Q 100.67 143.72 100.17 143.91
  L 94.13 146.20
  Q 93.75 146.34 93.78 146.75
  Q 93.99 149.67 94.85 152.46
  Q 94.88 152.56 94.79 152.59
  L 94.54 152.69
  Q 94.41 152.74 94.35 152.62
  L 91.26 146.49
  Q 91.01 146.01 90.50 145.86
  Q 86.84 144.84 83.72 142.60
  A 1.55 1.54 19.6 0 0 81.27 143.76
  Q 80.94 149.50 80.23 154.50
  Q 79.04 162.82 71.19 169.55
  Q 70.99 169.72 70.82 169.53
  L 70.64 169.34
  Q 70.30 168.97 70.67 168.62
  C 78.28 161.26 78.91 150.34 77.03 140.49
  Q 76.94 139.98 76.42 139.96
  Q 72.92 139.84 69.96 138.03
  Q 69.52 137.76 69.02 137.80
  C 64.22 138.11 61.97 142.07 59.16 145.15
  Q 58.49 145.89 57.51 146.13
  Q 56.86 146.29 57.33 145.81
  Q 61.42 141.64 64.12 136.45
  Q 64.47 135.77 64.19 135.56
  A 0.86 0.85 -51.0 0 0 63.02 135.69
  C 59.03 140.32 54.59 144.99 48.87 147.35
  Q 48.69 147.43 48.60 147.25
  L 48.60 147.24
  Q 48.52 147.05 48.70 146.96
  Q 55.07 143.75 58.59 139.06
  Q 61.61 135.03 57.61 138.08
  C 55.38 139.78 51.28 140.11 48.64 141.74
  Q 46.47 143.09 44.60 144.87
  A 1.44 1.44 0.0 0 1 43.04 145.14
  Q 42.42 144.87 42.51 144.52
  A 0.27 0.27 0.0 0 1 42.71 144.32
  C 43.60 144.10 44.49 143.93 45.19 143.29
  Q 48.38 140.33 53.50 138.76
  Q 55.58 138.12 57.21 135.70
  Q 57.64 135.05 56.92 135.34
  Q 52.26 137.19 47.25 137.44
  Q 47.19 137.44 47.18 137.30
  L 47.18 137.30
  Q 47.16 137.16 47.38 137.13
  Q 51.95 136.48 55.88 134.01
  Q 56.81 133.42 55.71 133.38
  C 53.75 133.30 50.85 133.55 49.09 133.18
  Q 46.36 132.62 49.15 132.55
  C 55.33 132.41 61.25 131.52 65.00 125.63
  A 0.50 0.50 0.0 0 0 64.52 124.87
  Q 61.32 125.29 60.73 125.26
  Q 55.07 124.96 60.60 123.67
  C 63.28 123.05 66.27 122.21 68.05 119.39
  A 0.72 0.72 0.0 0 0 67.38 118.29
  L 65.36 118.46
  Q 64.14 118.56 65.18 117.91
  Q 66.12 117.32 67.64 117.23
  C 75.18 116.80 85.91 111.52 88.57 104.17
  C 89.95 100.38 89.64 92.88 85.21 90.59
  C 82.45 89.16 77.64 90.51 75.77 91.77
  C 69.88 95.74 66.14 96.54 60.24 97.81
  C 54.59 99.03 51.49 101.43 49.15 106.43
  C 46.89 111.27 45.15 115.75 40.78 118.92
  Q 39.33 119.97 40.20 118.40
  L 44.80 110.06
  A 0.38 0.37 20.0 0 0 44.54 109.51
  Q 42.66 109.17 41.54 107.65
  A 0.33 0.32 -84.6 0 1 42.04 107.23
  Q 43.10 108.41 44.55 109.14
  Q 45.06 109.40 45.35 108.91
  L 51.08 99.46
  Q 51.42 98.89 50.91 98.47
  Q 48.18 96.25 44.72 95.38
  Q 44.62 95.35 44.66 95.26
  L 44.84 94.81
  Q 44.93 94.57 45.16 94.68
  L 52.24 98.13
  Q 52.61 98.31 52.98 98.14
  C 54.69 97.39 56.07 96.83 57.99 96.54
  Q 65.19 95.46 71.17 92.41
  Q 73.41 91.27 72.70 88.53
  Q 72.68 88.45 72.75 88.42
  Q 72.88 88.37 73.01 88.31
  Q 73.37 88.15 73.55 88.50
  L 74.24 89.89
  Q 74.43 90.28 74.85 90.16
  L 81.53 88.14
  Q 81.98 88.00 81.61 87.71
  Q 79.39 86.00 78.14 84.43
  Q 76.97 82.95 78.49 84.05
  L 83.81 87.89
  A 2.57 2.57 0.0 0 0 86.57 88.05
  C 89.09 86.63 91.04 84.77 93.45 83.15
  C 95.14 82.02 97.36 81.49 99.26 80.34
  Q 99.74 80.05 99.67 79.50
  Q 99.60 79.02 99.18 78.83
  A 0.63 0.62 26.6 0 1 98.89 77.97
  Q 99.73 76.42 99.31 74.74
  Q 99.17 74.17 99.42 73.65
  Q 99.97 72.52 99.70 71.27
  Q 99.57 70.66 100.04 70.25
  Q 100.69 69.68 100.36 68.99
  Q 100.14 68.51 100.26 68.00
  Q 102.91 57.32 104.73 46.48
  Q 105.43 42.29 107.01 37.71
  C 109.09 31.68 115.53 14.31 111.10 8.49
  C 106.30 2.20 99.88 6.82 96.51 11.33
  Q 94.98 13.38 93.48 17.45
  C 89.26 28.83 86.32 40.28 82.78 51.75
  Q 82.46 52.80 82.01 55.42
  C 81.48 58.61 79.44 61.54 78.79 64.25
  C 77.87 68.01 76.55 75.79 73.60 78.35
  C 69.91 81.56 63.65 79.96 62.07 75.19
  Q 60.87 71.56 57.28 59.42
  C 55.73 54.16 53.47 49.21 51.14 44.25
  Q 50.69 43.29 50.55 42.18
  C 49.45 33.68 47.72 25.75 44.49 17.80
  C 43.25 14.75 41.13 10.11 37.00 10.70
  C 30.89 11.58 29.38 15.44 29.22 21.00
  Q 29.02 28.19 29.56 33.50
  Q 30.01 37.95 35.48 52.98
  Q 38.77 62.05 40.50 74.83
  C 40.99 78.48 42.81 80.70 42.24 84.64
  C 41.47 89.95 41.89 95.70 40.96 100.40
  C 40.29 103.76 38.34 107.94 38.45 111.25
  C 38.60 116.23 37.20 119.30 35.02 123.56
  C 32.95 127.60 33.47 134.96 32.98 139.57
  C 32.15 147.40 35.38 152.28 36.84 159.35
  Q 38.85 169.13 43.04 178.24
  Q 43.64 179.56 46.41 182.04
  A 1.21 1.19 21.1 0 1 46.80 182.90
  L 47.05 195.00
  L 44.21 195.00
  L 44.05 192.49
  L 43.90 185.98
  Q 43.89 185.44 43.49 185.08
  Q 42.36 184.05 41.83 182.63
  Q 41.71 182.28 41.34 182.29
  Q 41.16 182.30 41.08 182.46
  Q 40.83 182.15 40.72 181.74
  Q 40.98 181.68 40.74 181.28
  Q 35.33 172.30 35.19 161.74
  Q 35.14 158.26 31.61 151.69
  Q 31.43 151.92 31.27 151.50
  Q 31.15 150.53 30.53 149.69
  Q 30.37 148.49 29.80 148.35
  Q 30.46 147.11 29.34 145.79
  L 29.39 141.76
  Q 30.67 140.94 30.17 138.29
  Q 30.42 138.21 30.56 137.47
  Q 31.70 133.70 31.58 129.76
  Q 31.43 128.68 31.63 128.08
  Q 32.98 126.70 32.56 124.51
  L 32.93 123.81
  C 34.30 120.54 35.82 117.85 35.84 114.11
  Q 35.86 109.51 38.06 104.25
  Q 39.70 100.34 39.66 94.33
  Q 39.24 92.07 39.84 91.44
  L 40.89 84.27
  Q 40.92 84.02 40.81 83.79
  Q 40.74 83.66 40.70 83.55
  Q 40.79 83.44 40.84 83.33
  A 0.38 0.37 41.3 0 0 40.81 82.96
  Q 40.70 82.77 40.59 82.70
  Q 40.94 81.54 39.99 80.38
  Q 39.90 80.28 39.77 80.32
  Q 39.65 80.36 39.62 80.54
  Q 39.75 79.83 39.25 79.59
  Q 39.63 79.34 39.48 78.25
  Q 38.70 72.31 37.29 67.98
  Q 37.39 65.80 36.32 64.20
  Q 36.02 62.53 35.58 62.48
  Q 35.75 58.53 33.79 54.70
  Q 33.60 55.41 33.58 53.95
  Q 33.31 51.56 31.24 46.24
  Q 26.73 34.68 28.00 20.50
  Q 28.48 15.19 30.63 12.05
  Q 31.08 11.49 31.50 11.41
  Q 33.82 10.95 35.09 9.90
  Q 35.60 9.64 35.95 9.28
  Q 36.28 9.86 36.74 9.71
  C 44.12 7.30 44.64 15.89 46.87 20.34
  Q 50.56 27.72 51.71 35.97
  Q 51.74 36.18 51.95 36.13
  Q 52.21 36.07 52.13 35.96
  L 52.25 37.50
  Q 51.98 40.09 53.21 42.23
  Q 53.57 42.85 53.38 43.04
  Q 53.77 45.57 55.39 47.73
  L 55.74 48.17
  L 64.45 73.49
  Q 65.02 74.21 64.59 74.01
  C 65.18 77.91 70.57 80.58 72.71 76.26
  L 72.94 75.55
  Q 73.97 74.14 74.06 72.55
  Q 74.89 71.06 75.03 69.51
  Q 75.12 69.46 75.22 69.41
  Q 77.22 63.04 79.88 57.07
  Q 80.55 55.56 80.79 52.50
  Q 80.50 52.58 80.86 51.98
  Q 81.44 50.87 81.78 49.65
  Q 83.85 42.22 86.34 34.92
  Q 86.43 34.67 86.40 34.45
  Q 86.36 34.19 86.27 33.95
  Q 86.12 33.66 86.65 32.78
  L 86.81 32.98
  Q 86.87 33.06 86.92 32.97
  Q 88.36 29.99 88.66 27.01
  L 88.86 25.82
  L 90.87 20.18
  L 91.24 19.14
  Q 92.48 17.57 93.06 14.95
  Q 93.49 14.51 93.28 13.94
  A 0.78 0.77 -35.8 0 1 93.41 13.17
  Q 93.66 12.86 94.00 12.68
  Q 94.45 12.45 94.39 11.95
  Q 94.30 11.07 94.87 10.63
  Q 96.48 9.42 96.88 8.88
  Q 99.37 6.12 102.47 4.82
  Q 102.86 4.66 102.50 4.45
  Q 102.34 4.36 102.02 4.36
  Q 102.67 4.30 103.10 4.03
  Z
  M 88.64 90.58
  C 97.17 105.44 85.37 112.39 74.76 118.77
  C 71.79 120.56 70.15 124.67 68.32 127.54
  C 64.19 134.05 75.88 138.65 80.35 137.03
  C 83.02 136.06 87.26 129.17 88.53 126.49
  C 94.02 114.93 103.26 105.36 111.97 96.15
  Q 112.29 95.81 112.37 95.34
  Q 113.22 90.30 112.66 88.86
  C 111.55 85.98 105.31 83.68 103.26 82.90
  Q 100.46 81.83 96.85 83.09
  C 93.84 84.13 91.51 87.73 88.80 89.79
  Q 88.37 90.12 88.64 90.58
  Z"
/>
<circle fill="#eeb089" cx="96.13" cy="4.81" r="0.66"/>
<path fill="#eeb089" d="
  M 102.02 4.36
  Q 102.34 4.36 102.50 4.45
  Q 102.86 4.66 102.47 4.82
  Q 99.37 6.12 96.88 8.88
  Q 96.46 7.85 97.25 7.53
  Q 98.57 7.00 99.21 5.54
  Q 99.36 5.52 99.50 5.49
  A 0.83 0.83 0.0 0 0 100.01 5.12
  Q 100.66 4.06 102.02 4.36
  Z"
/>
<path fill="#eeb089" d="
  M 101.58 195.00
  L 47.05 195.00
  L 46.80 182.90
  A 1.21 1.19 21.1 0 0 46.41 182.04
  Q 43.64 179.56 43.04 178.24
  Q 38.85 169.13 36.84 159.35
  C 35.38 152.28 32.15 147.40 32.98 139.57
  C 33.47 134.96 32.95 127.60 35.02 123.56
  C 37.20 119.30 38.60 116.23 38.45 111.25
  C 38.34 107.94 40.29 103.76 40.96 100.40
  C 41.89 95.70 41.47 89.95 42.24 84.64
  C 42.81 80.70 40.99 78.48 40.50 74.83
  Q 38.77 62.05 35.48 52.98
  Q 30.01 37.95 29.56 33.50
  Q 29.02 28.19 29.22 21.00
  C 29.38 15.44 30.89 11.58 37.00 10.70
  C 41.13 10.11 43.25 14.75 44.49 17.80
  C 47.72 25.75 49.45 33.68 50.55 42.18
  Q 50.69 43.29 51.14 44.25
  C 53.47 49.21 55.73 54.16 57.28 59.42
  Q 60.87 71.56 62.07 75.19
  C 63.65 79.96 69.91 81.56 73.60 78.35
  C 76.55 75.79 77.87 68.01 78.79 64.25
  C 79.44 61.54 81.48 58.61 82.01 55.42
  Q 82.46 52.80 82.78 51.75
  C 86.32 40.28 89.26 28.83 93.48 17.45
  Q 94.98 13.38 96.51 11.33
  C 99.88 6.82 106.30 2.20 111.10 8.49
  C 115.53 14.31 109.09 31.68 107.01 37.71
  Q 105.43 42.29 104.73 46.48
  Q 102.91 57.32 100.26 68.00
  Q 100.14 68.51 100.36 68.99
  Q 100.69 69.68 100.04 70.25
  Q 99.57 70.66 99.70 71.27
  Q 99.97 72.52 99.42 73.65
  Q 99.17 74.17 99.31 74.74
  Q 99.73 76.42 98.89 77.97
  A 0.63 0.62 26.6 0 0 99.18 78.83
  Q 99.60 79.02 99.67 79.50
  Q 99.74 80.05 99.26 80.34
  C 97.36 81.49 95.14 82.02 93.45 83.15
  C 91.04 84.77 89.09 86.63 86.57 88.05
  A 2.57 2.57 0.0 0 1 83.81 87.89
  L 78.49 84.05
  Q 76.97 82.95 78.14 84.43
  Q 79.39 86.00 81.61 87.71
  Q 81.98 88.00 81.53 88.14
  L 74.85 90.16
  Q 74.43 90.28 74.24 89.89
  L 73.55 88.50
  Q 73.37 88.15 73.01 88.31
  Q 72.88 88.37 72.75 88.42
  Q 72.68 88.45 72.70 88.53
  Q 73.41 91.27 71.17 92.41
  Q 65.19 95.46 57.99 96.54
  C 56.07 96.83 54.69 97.39 52.98 98.14
  Q 52.61 98.31 52.24 98.13
  L 45.16 94.68
  Q 44.93 94.57 44.84 94.81
  L 44.66 95.26
  Q 44.62 95.35 44.72 95.38
  Q 48.18 96.25 50.91 98.47
  Q 51.42 98.89 51.08 99.46
  L 45.35 108.91
  Q 45.06 109.40 44.55 109.14
  Q 43.10 108.41 42.04 107.23
  A 0.33 0.32 -84.6 0 0 41.54 107.65
  Q 42.66 109.17 44.54 109.51
  A 0.38 0.37 20.0 0 1 44.80 110.06
  L 40.20 118.40
  Q 39.33 119.97 40.78 118.92
  C 45.15 115.75 46.89 111.27 49.15 106.43
  C 51.49 101.43 54.59 99.03 60.24 97.81
  C 66.14 96.54 69.88 95.74 75.77 91.77
  C 77.64 90.51 82.45 89.16 85.21 90.59
  C 89.64 92.88 89.95 100.38 88.57 104.17
  C 85.91 111.52 75.18 116.80 67.64 117.23
  Q 66.12 117.32 65.18 117.91
  Q 64.14 118.56 65.36 118.46
  L 67.38 118.29
  A 0.72 0.72 0.0 0 1 68.05 119.39
  C 66.27 122.21 63.28 123.05 60.60 123.67
  Q 55.07 124.96 60.73 125.26
  Q 61.32 125.29 64.52 124.87
  A 0.50 0.50 0.0 0 1 65.00 125.63
  C 61.25 131.52 55.33 132.41 49.15 132.55
  Q 46.36 132.62 49.09 133.18
  C 50.85 133.55 53.75 133.30 55.71 133.38
  Q 56.81 133.42 55.88 134.01
  Q 51.95 136.48 47.38 137.13
  Q 47.16 137.16 47.18 137.30
  L 47.18 137.30
  Q 47.19 137.44 47.25 137.44
  Q 52.26 137.19 56.92 135.34
  Q 57.64 135.05 57.21 135.70
  Q 55.58 138.12 53.50 138.76
  Q 48.38 140.33 45.19 143.29
  C 44.49 143.93 43.60 144.10 42.71 144.32
  A 0.27 0.27 0.0 0 0 42.51 144.52
  Q 42.42 144.87 43.04 145.14
  A 1.44 1.44 0.0 0 0 44.60 144.87
  Q 46.47 143.09 48.64 141.74
  C 51.28 140.11 55.38 139.78 57.61 138.08
  Q 61.61 135.03 58.59 139.06
  Q 55.07 143.75 48.70 146.96
  Q 48.52 147.05 48.60 147.24
  L 48.60 147.25
  Q 48.69 147.43 48.87 147.35
  C 54.59 144.99 59.03 140.32 63.02 135.69
  A 0.86 0.85 -51.0 0 1 64.19 135.56
  Q 64.47 135.77 64.12 136.45
  Q 61.42 141.64 57.33 145.81
  Q 56.86 146.29 57.51 146.13
  Q 58.49 145.89 59.16 145.15
  C 61.97 142.07 64.22 138.11 69.02 137.80
  Q 69.52 137.76 69.96 138.03
  Q 72.92 139.84 76.42 139.96
  Q 76.94 139.98 77.03 140.49
  C 78.91 150.34 78.28 161.26 70.67 168.62
  Q 70.30 168.97 70.64 169.34
  L 70.82 169.53
  Q 70.99 169.72 71.19 169.55
  Q 79.04 162.82 80.23 154.50
  Q 80.94 149.50 81.27 143.76
  A 1.55 1.54 19.6 0 1 83.72 142.60
  Q 86.84 144.84 90.50 145.86
  Q 91.01 146.01 91.26 146.49
  L 94.35 152.62
  Q 94.41 152.74 94.54 152.69
  L 94.79 152.59
  Q 94.88 152.56 94.85 152.46
  Q 93.99 149.67 93.78 146.75
  Q 93.75 146.34 94.13 146.20
  L 100.17 143.91
  Q 100.67 143.72 100.85 144.22
  Q 101.63 146.29 103.14 147.85
  Q 105.93 150.72 104.28 147.08
  Q 103.46 145.26 103.48 143.43
  Q 103.54 138.26 106.50 142.50
  Q 106.81 142.95 108.42 145.01
  A 0.26 0.26 0.0 0 0 108.78 145.06
  L 109.01 144.88
  Q 109.18 144.76 109.05 144.60
  C 106.93 141.80 106.08 137.68 109.20 135.26
  A 1.18 1.17 33.5 0 1 110.20 135.06
  L 113.74 135.98
  Q 115.71 136.49 114.11 135.24
  C 113.00 134.38 110.03 132.83 111.55 130.87
  Q 111.93 130.37 112.55 130.49
  Q 118.76 131.69 124.49 129.01
  A 0.27 0.26 28.7 0 0 124.34 128.51
  C 121.71 128.82 117.80 129.52 115.19 128.51
  Q 114.68 128.31 114.87 127.79
  C 115.74 125.48 119.41 126.50 121.47 125.02
  A 0.25 0.25 0.0 0 0 121.26 124.58
  L 117.05 125.86
  Q 116.47 126.03 116.59 125.44
  C 117.10 122.92 120.35 120.91 122.64 119.59
  Q 122.99 119.39 123.09 119.16
  Q 123.17 118.98 123.14 118.82
  A 0.26 0.25 -27.3 0 0 122.70 118.68
  Q 121.83 119.63 120.55 119.87
  Q 119.98 119.98 120.19 119.44
  L 122.47 113.48
  Q 122.55 113.27 122.33 113.19
  L 122.02 113.09
  A 0.47 0.47 0.0 0 0 121.43 113.35
  C 118.96 119.57 117.08 121.37 113.07 125.03
  C 109.78 128.04 108.00 132.04 105.36 135.63
  C 101.03 141.54 93.42 145.19 86.54 141.48
  C 79.53 137.70 88.33 131.35 90.48 127.47
  C 92.85 123.21 94.45 119.61 98.29 115.69
  Q 100.42 113.51 102.15 110.82
  Q 105.37 105.80 109.96 100.21
  C 113.13 96.34 117.46 96.88 121.28 99.35
  C 126.13 102.47 128.32 110.43 126.98 115.74
  Q 126.23 118.71 127.68 126.00
  C 128.37 129.46 127.48 133.33 123.25 133.48
  Q 121.22 133.55 119.80 133.50
  Q 118.02 133.43 119.52 134.40
  Q 121.53 135.71 123.92 135.49
  Q 124.44 135.44 124.36 135.96
  C 123.50 141.73 124.36 147.74 121.97 153.14
  Q 119.01 159.82 116.01 166.49
  C 114.11 170.69 113.80 173.78 113.69 178.24
  C 113.56 183.33 105.36 191.72 101.58 195.00
  Z
  M 101.29 37.53
  L 101.38 37.20
  Q 101.48 36.85 101.11 36.77
  Q 95.83 35.70 91.66 32.29
  Q 91.58 32.22 91.49 32.29
  L 91.26 32.49
  A 0.26 0.25 -42.7 0 0 91.24 32.86
  Q 95.39 36.91 101.17 37.61
  Q 101.26 37.62 101.29 37.53
  Z
  M 45.5500 40.2061
  A 0.37 0.37 0.0 0 0 45.0797 39.9767
  L 37.7803 42.4901
  A 0.37 0.37 0.0 0 0 37.5509 42.9604
  L 37.5900 43.0739
  A 0.37 0.37 0.0 0 0 38.0603 43.3033
  L 45.3597 40.7899
  A 0.37 0.37 0.0 0 0 45.5891 40.3196
  L 45.5500 40.2061
  Z
  M 50.89 59.45
  L 41.60 63.21
  A 0.12 0.12 0.0 0 0 41.53 63.36
  L 41.56 63.42
  A 5.02 1.98 -22.0 0 0 46.95 63.37
  L 47.16 63.29
  A 5.02 1.98 -22.0 0 0 51.07 59.57
  L 51.05 59.52
  A 0.12 0.12 0.0 0 0 50.89 59.45
  Z
  M 92.57 65.02
  C 89.67 64.62 88.50 64.08 86.18 62.30
  Q 85.46 61.75 85.95 62.51
  C 87.41 64.79 89.98 66.22 92.70 66.20
  Q 92.96 66.20 92.98 65.95
  L 93.01 65.57
  A 0.52 0.51 6.5 0 0 92.57 65.02
  Z
  M 62.4798 81.8021
  A 0.27 0.27 0.0 0 0 62.1316 81.6456
  L 46.8191 87.4622
  A 0.27 0.27 0.0 0 0 46.6626 87.8105
  L 46.8402 88.2779
  A 0.27 0.27 0.0 0 0 47.1884 88.4344
  L 62.5009 82.6178
  A 0.27 0.27 0.0 0 0 62.6574 82.2695
  L 62.4798 81.8021
  Z
  M 69.26 90.05
  L 69.61 90.04
  A 0.29 0.28 87.2 0 0 69.89 89.72
  L 69.45 84.78
  Q 69.44 84.62 69.28 84.63
  L 68.99 84.64
  Q 68.94 84.64 68.93 84.70
  L 68.86 89.66
  A 0.39 0.38 -0.0 0 0 69.26 90.05
  Z
  M 79.89 91.22
  Q 78.66 91.50 77.70 92.32
  C 74.03 95.43 69.51 94.99 69.77 100.99
  C 70.17 110.52 79.80 107.46 84.32 103.96
  A 1.64 1.63 79.5 0 0 84.88 103.14
  C 85.96 99.42 85.93 93.06 81.83 90.88
  Q 81.23 90.56 80.75 90.81
  A 1.28 0.07 -28.6 0 1 79.89 91.22
  Z
  M 59.27 107.23
  Q 60.79 110.37 63.28 112.73
  A 0.08 0.07 -52.2 0 0 63.39 112.71
  Q 63.41 112.67 63.43 112.64
  Q 63.52 112.50 63.41 112.36
  L 59.27 107.23
  L 57.17 103.51
  Q 57.06 103.31 57.11 103.54
  Q 57.61 105.83 59.27 107.23
  Z
  M 60.98 115.37
  L 61.37 115.03
  A 0.16 0.16 0.0 0 0 61.39 114.81
  L 61.31 114.71
  A 7.56 0.32 49.7 0 0 56.18 109.16
  L 56.03 109.29
  A 7.56 0.32 49.7 0 0 60.67 115.26
  L 60.75 115.35
  A 0.16 0.16 0.0 0 0 60.98 115.37
  Z
  M 102.8374 123.6968
  A 2.21 0.18 27.1 0 0 100.9520 122.5298
  A 2.21 0.18 27.1 0 0 98.9026 121.6832
  A 2.21 0.18 27.1 0 0 100.7880 122.8502
  A 2.21 0.18 27.1 0 0 102.8374 123.6968
  Z
  M 90.49 141.18
  C 95.79 142.99 97.81 139.12 98.18 134.66
  C 98.54 130.24 93.44 128.57 90.09 130.57
  C 88.73 131.38 87.96 133.19 86.88 134.36
  A 3.04 3.03 -36.4 0 0 86.37 137.72
  Q 87.54 140.17 90.49 141.18
  Z
  M 98.7814 169.1132
  A 0.39 0.39 0.0 0 0 98.4770 168.6533
  L 98.4182 168.6413
  A 0.39 0.39 0.0 0 0 97.9582 168.9457
  L 96.5786 175.7268
  A 0.39 0.39 0.0 0 0 96.8830 176.1867
  L 96.9418 176.1987
  A 0.39 0.39 0.0 0 0 97.4018 175.8943
  L 98.7814 169.1132
  Z
  M 103.63 179.60
  L 103.06 179.77
  A 1.97 1.97 0.0 0 1 100.77 176.96
  Q 101.58 175.42 101.14 173.77
  Q 100.96 173.11 100.50 173.61
  C 99.21 175.03 99.92 176.93 98.74 178.73
  Q 98.42 179.22 98.64 179.67
  Q 98.84 180.06 99.24 179.89
  Q 100.20 179.48 101.13 179.85
  Q 101.55 180.02 101.60 180.46
  Q 101.68 181.09 102.06 181.56
  A 0.59 0.59 0.0 0 0 103.02 181.51
  C 104.05 179.93 105.42 179.73 106.47 178.44
  Q 107.81 176.79 108.63 175.26
  Q 109.60 173.44 108.00 174.73
  L 104.85 177.25
  Q 104.41 177.60 103.85 177.53
  L 103.22 177.46
  A 0.51 0.51 0.0 0 0 102.70 178.18
  Q 102.97 178.77 103.62 178.94
  A 0.34 0.34 0.0 0 1 103.63 179.60
  Z
  M 59.9583 175.5273
  A 1.99 0.19 -27.3 0 0 58.1029 176.2712
  A 1.99 0.19 -27.3 0 0 56.4217 177.3527
  A 1.99 0.19 -27.3 0 0 58.2771 176.6088
  A 1.99 0.19 -27.3 0 0 59.9583 175.5273
  Z
  M 67.48 177.51
  Q 67.84 176.96 69.46 176.15
  Q 69.52 176.12 69.49 176.06
  L 69.35 175.79
  Q 69.29 175.68 69.18 175.72
  L 61.17 178.70
  Q 60.76 178.85 60.36 178.69
  Q 60.00 178.55 59.74 178.63
  Q 58.61 179.02 56.65 180.26
  Q 56.49 180.36 56.58 180.52
  L 56.59 180.52
  Q 56.68 180.68 56.84 180.60
  C 58.50 179.76 59.81 179.05 61.78 179.43
  Q 68.85 180.80 75.96 181.98
  C 80.31 182.70 84.01 184.28 88.19 185.42
  C 91.64 186.36 95.01 185.62 98.61 185.68
  Q 98.63 185.68 98.63 185.66
  Q 98.81 184.82 98.61 185.68
  Q 98.61 185.70 98.60 185.69
  C 95.80 184.84 93.11 185.45 90.54 184.59
  C 85.78 182.98 80.96 180.88 76.28 180.03
  Q 72.48 179.34 68.09 178.82
  Q 66.73 178.66 67.48 177.51
  Z
  M 99.39 180.62
  Q 98.77 180.35 98.20 180.73
  Q 97.18 181.42 96.71 182.51
  A 0.46 0.46 0.0 0 0 97.28 183.12
  Q 98.40 182.72 99.54 182.73
  Q 100.20 182.74 100.23 182.09
  Q 100.28 181.00 99.39 180.62
  Z
  M 89.1781 189.4062
  A 0.26 0.26 0.0 0 0 88.9882 189.0914
  L 68.1760 183.9409
  A 0.26 0.26 0.0 0 0 67.8612 184.1308
  L 67.7219 184.6938
  A 0.26 0.26 0.0 0 0 67.9118 185.0086
  L 88.7240 190.1591
  A 0.26 0.26 0.0 0 0 89.0388 189.9692
  L 89.1781 189.4062
  Z"
/>
<path fill="#eeb089" d="
  M 30.65 9.15
  Q 30.16 9.58 30.02 9.62
  A 0.64 0.60 14.0 0 1 29.36 8.61
  L 30.57 7.53
  Q 31.04 7.11 31.45 7.59
  L 31.65 7.81
  A 0.38 0.37 50.6 0 1 31.60 8.35
  Q 31.10 8.74 30.65 9.15
  Z"
/>
<ellipse fill="#eeb089" cx="0.00" cy="0.00" transform="translate(44.72,9.09) rotate(99.8)" rx="0.72" ry="0.58"/>
<path fill="#eeb089" d="
  M 52.13 35.96
  Q 52.21 36.07 51.95 36.13
  Q 51.74 36.18 51.71 35.97
  Q 50.56 27.72 46.87 20.34
  C 44.64 15.89 44.12 7.30 36.74 9.71
  Q 36.28 9.86 35.95 9.28
  Q 36.27 8.63 36.75 8.59
  C 40.44 8.31 42.72 8.46 44.33 12.20
  Q 44.51 12.63 44.87 12.91
  Q 45.37 13.30 45.34 14.00
  Q 45.33 14.49 45.68 14.83
  Q 45.82 14.96 46.00 15.04
  A 0.69 0.68 15.8 0 1 46.39 15.73
  Q 46.30 16.79 47.08 17.44
  A 1.10 1.10 0.0 0 1 47.48 18.29
  C 47.49 19.69 48.26 20.45 48.60 21.49
  Q 49.52 24.34 50.62 27.12
  C 51.09 28.29 50.99 29.53 51.48 30.79
  C 52.27 32.83 52.16 33.97 52.13 35.96
  Z"
/>
<path fill="#eeb089" d="
  M 35.09 9.90
  Q 33.82 10.95 31.50 11.41
  Q 33.16 8.93 35.09 9.90
  Z"
/>
<path fill="#eeb089" d="
  M 30.63 12.05
  Q 28.48 15.19 28.00 20.50
  Q 26.73 34.68 31.24 46.24
  Q 33.31 51.56 33.58 53.95
  Q 32.50 53.16 32.65 51.44
  Q 32.69 50.92 32.25 50.63
  C 30.72 49.62 32.23 48.32 30.68 47.12
  A 0.94 0.94 0.0 0 1 30.33 46.26
  Q 30.49 44.98 29.68 44.01
  A 1.67 1.64 -66.8 0 1 29.30 43.04
  C 29.22 41.23 28.49 39.44 28.23 38.02
  Q 27.03 31.41 26.77 23.00
  Q 26.54 15.69 30.63 12.05
  Z"
/>
<path fill="#eeb089" d="
  M 93.06 14.95
  Q 92.48 17.57 91.24 19.14
  Q 90.53 17.89 91.83 17.01
  Q 92.25 16.73 92.24 16.21
  Q 92.20 15.10 93.06 14.95
  Z"
/>
<ellipse fill="#eeb089" cx="0.00" cy="0.00" transform="translate(88.12,20.88) rotate(116.6)" rx="0.73" ry="0.60"/>
<path fill="#eeb089" d="
  M 90.87 20.18
  L 88.86 25.82
  L 88.73 24.11
  Q 88.69 23.62 88.95 23.20
  L 90.87 20.18
  Z"
/>
<ellipse fill="#eeb089" cx="0.00" cy="0.00" transform="translate(84.77,21.98) rotate(90.9)" rx="0.76" ry="0.62"/>
<path fill="#eeb089" d="
  M 113.73 23.00
  L 113.82 26.04
  A 0.81 0.79 74.2 0 1 113.42 26.77
  L 112.67 27.20
  Q 112.53 24.94 113.73 23.00
  Z"
/>
<path fill="#eeb089" d="
  M 88.66 27.01
  Q 88.36 29.99 86.92 32.97
  Q 86.87 33.06 86.81 32.98
  L 86.65 32.78
  L 86.51 29.58
  A 0.73 0.72 81.5 0 1 87.04 28.85
  Q 87.41 28.74 87.69 28.46
  A 0.67 0.66 -44.7 0 0 87.70 27.54
  Q 87.13 26.92 86.35 26.53
  Q 85.08 25.90 86.50 25.78
  L 86.97 25.74
  Q 87.30 25.72 87.42 26.02
  Q 87.69 26.69 88.66 27.01
  Z"
/>
<path fill="#eeb089" d="
  M 112.43 27.78
  Q 113.42 29.98 111.65 30.27
  Q 111.76 28.93 112.43 27.78
  Z"
/>
<circle fill="#eeb089" cx="114.54" cy="28.42" r="0.58"/>
<circle fill="#eeb089" cx="114.47" cy="32.74" r="0.66"/>
<path fill="#eeb089" d="
  M 86.27 33.95
  Q 86.36 34.19 86.40 34.45
  Q 86.43 34.67 86.34 34.92
  Q 83.85 42.22 81.78 49.65
  Q 81.44 50.87 80.86 51.98
  L 80.74 49.40
  Q 80.71 48.88 81.13 48.57
  Q 82.21 47.76 81.81 46.37
  Q 81.66 45.84 82.07 45.48
  Q 83.58 44.14 82.85 41.94
  A 0.76 0.74 64.4 0 1 83.14 41.09
  L 83.80 40.63
  Q 84.18 40.38 84.18 39.93
  L 84.16 36.25
  Q 84.16 35.90 84.41 35.66
  L 85.32 34.79
  A 0.56 0.56 0.0 0 0 85.29 33.96
  Q 84.28 33.13 84.19 32.58
  Q 84.11 32.12 84.56 32.24
  Q 84.96 32.36 85.22 32.66
  Q 85.29 32.74 85.53 33.40
  Q 85.72 33.92 86.27 33.95
  Z"
/>
<path fill="#0f0d0f" d="
  M 101.17 37.61
  Q 95.39 36.91 91.24 32.86
  A 0.26 0.25 -42.7 0 1 91.26 32.49
  L 91.49 32.29
  Q 91.58 32.22 91.66 32.29
  Q 95.83 35.70 101.11 36.77
  Q 101.48 36.85 101.38 37.20
  L 101.29 37.53
  Q 101.26 37.62 101.17 37.61
  Z"
/>
<path fill="#eeb089" d="
  M 110.30 34.88
  Q 110.58 35.81 110.50 36.66
  Q 110.45 37.13 110.05 37.39
  Q 108.94 38.08 109.31 39.49
  A 0.91 0.91 0.0 0 1 109.00 40.43
  Q 107.79 41.40 108.27 43.10
  A 0.76 0.75 67.4 0 1 107.92 43.96
  L 107.33 44.29
  A 0.73 0.73 0.0 0 0 106.97 44.92
  L 107.05 50.69
  Q 107.06 51.21 106.62 51.47
  L 105.82 51.95
  Q 106.39 43.00 110.30 34.88
  Z"
/>
<path fill="#eeb089" d="
  M 52.25 37.50
  Q 53.49 37.67 53.27 38.75
  Q 52.99 40.07 53.21 42.23
  Q 51.98 40.09 52.25 37.50
  Z"
/>
<ellipse fill="#eeb089" cx="0.00" cy="0.00" transform="translate(54.98,40.24) rotate(2.6)" rx="0.76" ry="0.59"/>
<rect fill="#0f0d0f" x="-4.23" y="-0.43" transform="translate(41.57,41.64) rotate(-19.0)" width="8.46" height="0.86" rx="0.37"/>
<ellipse fill="#eeb089" cx="0.00" cy="0.00" transform="translate(56.09,42.44) rotate(-21.1)" rx="0.81" ry="0.51"/>
<ellipse fill="#eeb089" cx="0.00" cy="0.00" transform="translate(61.84,42.37) rotate(-6.7)" rx="0.71" ry="0.56"/>
<path fill="#eeb089" d="
  M 53.38 43.04
  L 53.99 43.03
  Q 54.48 43.03 54.33 43.50
  Q 53.93 44.77 55.10 45.22
  Q 55.54 45.40 55.51 45.87
  L 55.39 47.73
  Q 53.77 45.57 53.38 43.04
  Z"
/>
<path fill="#eeb089" d="
  M 109.47 46.28
  Q 109.96 46.17 110.42 46.32
  A 0.45 0.45 0.0 0 1 110.44 47.17
  Q 110.01 47.33 109.51 47.26
  A 0.50 0.50 0.0 0 1 109.47 46.28
  Z"
/>
<path fill="#eeb089" d="
  M 55.74 48.17
  Q 57.05 48.82 57.76 50.00
  Q 58.04 50.45 57.87 50.96
  Q 57.28 52.79 58.65 53.95
  Q 59.03 54.28 59.00 54.78
  L 58.95 55.99
  Q 58.92 56.51 59.39 56.74
  Q 59.82 56.96 60.03 57.36
  C 60.55 58.42 59.78 59.23 60.87 60.42
  Q 61.20 60.79 61.20 61.30
  Q 61.20 62.61 62.00 63.64
  Q 62.31 64.04 62.36 64.55
  L 62.47 65.80
  Q 62.51 66.28 62.93 66.51
  Q 63.46 66.80 63.59 67.32
  Q 63.65 67.57 63.50 68.18
  Q 63.22 69.30 64.19 69.80
  Q 64.64 70.04 64.69 70.55
  Q 64.82 72.01 64.45 73.49
  L 55.74 48.17
  Z"
/>
<circle fill="#eeb089" cx="61.85" cy="49.94" r="0.69"/>
<path fill="#eeb089" d="
  M 80.79 52.50
  Q 80.55 55.56 79.88 57.07
  Q 77.22 63.04 75.22 69.41
  Q 74.35 66.53 75.81 65.19
  Q 76.21 64.82 76.13 64.28
  Q 75.91 62.84 77.04 61.89
  Q 77.44 61.54 77.37 61.01
  L 77.24 60.05
  A 0.79 0.78 74.1 0 1 77.68 59.24
  Q 78.75 58.72 78.46 57.53
  Q 78.36 57.10 78.76 56.94
  L 79.22 56.75
  Q 79.69 56.55 79.66 56.04
  L 79.52 53.48
  A 0.83 0.83 0.0 0 1 79.96 52.70
  Q 80.29 52.53 80.79 52.50
  Z"
/>
<path fill="#eeb089" d="
  M 105.69 52.73
  Q 105.95 56.11 105.81 57.50
  Q 105.75 58.06 104.67 58.25
  Q 104.61 55.43 105.69 52.73
  Z"
/>
<path fill="#eeb089" d="
  M 35.58 62.48
  Q 35.02 59.61 34.08 58.58
  Q 33.76 58.24 33.77 57.78
  L 33.79 54.70
  Q 35.75 58.53 35.58 62.48
  Z"
/>
<path fill="#0f0d0f" d="
  M 50.89 59.45
  A 0.12 0.12 0.0 0 1 51.05 59.52
  L 51.07 59.57
  A 5.02 1.98 -22.0 0 1 47.16 63.29
  L 46.95 63.37
  A 5.02 1.98 -22.0 0 1 41.56 63.42
  L 41.53 63.36
  A 0.12 0.12 0.0 0 1 41.60 63.21
  L 50.89 59.45
  Z"
/>
<path fill="#eeb089" d="
  M 104.60 59.41
  Q 104.82 61.09 104.73 62.60
  Q 104.71 63.09 104.42 63.28
  Q 104.13 63.48 103.62 63.58
  Q 103.29 61.06 104.60 59.41
  Z"
/>
<ellipse fill="#eeb089" cx="0.00" cy="0.00" transform="translate(33.20,61.79) rotate(-3.3)" rx="0.73" ry="0.56"/>
<path fill="#0f0d0f" d="
  M 86.18 62.30
  C 88.50 64.08 89.67 64.62 92.57 65.02
  A 0.52 0.51 6.5 0 1 93.01 65.57
  L 92.98 65.95
  Q 92.96 66.20 92.70 66.20
  C 89.98 66.22 87.41 64.79 85.95 62.51
  Q 85.46 61.75 86.18 62.30
  Z"
/>
<path fill="#eeb089" d="
  M 103.44 63.82
  L 103.61 66.88
  Q 103.64 67.41 103.15 67.62
  Q 102.83 67.75 102.39 67.71
  Q 102.30 65.76 103.44 63.82
  Z"
/>
<path fill="#eeb089" d="
  M 36.32 64.20
  Q 37.39 65.80 37.29 67.98
  Q 35.45 67.62 36.32 64.20
  Z"
/>
<path fill="#eeb089" d="
  M 37.29 67.98
  Q 38.70 72.31 39.48 78.25
  Q 39.63 79.34 39.25 79.59
  Q 38.13 79.44 38.36 78.25
  Q 38.55 77.23 38.48 75.00
  Q 38.47 74.43 37.93 74.25
  Q 37.76 74.19 37.62 74.06
  Q 37.22 73.71 37.23 73.19
  L 37.29 67.98
  Z"
/>
<path fill="#eeb089" d="
  M 102.14 68.29
  L 102.34 79.98
  Q 102.35 80.47 102.83 80.51
  L 104.84 80.67
  Q 105.43 80.72 105.81 81.16
  Q 106.34 81.78 107.18 81.74
  Q 107.67 81.71 108.02 82.06
  L 110.29 84.30
  L 102.40 81.15
  A 2.60 2.60 0.0 0 1 100.95 77.80
  Q 101.73 75.81 100.79 73.83
  Q 100.56 73.33 100.72 72.81
  L 102.14 68.29
  Z"
/>
<path fill="#eeb089" d="
  M 75.03 69.51
  Q 74.89 71.06 74.06 72.55
  Q 73.20 70.04 75.03 69.51
  Z"
/>
<path fill="#eeb089" d="
  M 74.06 72.55
  Q 73.97 74.14 72.94 75.55
  Q 72.03 73.50 74.06 72.55
  Z"
/>
<path fill="#eeb089" d="
  M 64.59 74.01
  Q 65.89 73.97 65.81 74.56
  A 2.66 2.65 -76.2 0 0 67.52 77.39
  C 69.64 78.17 70.56 76.05 72.71 76.26
  C 70.57 80.58 65.18 77.91 64.59 74.01
  Z"
/>
<path fill="#eeb089" d="
  M 105.13 79.55
  Q 104.57 78.88 104.66 78.72
  Q 105.63 77.12 105.82 78.98
  Q 105.84 79.20 105.44 79.57
  A 0.22 0.21 -40.5 0 1 105.13 79.55
  Z"
/>
<path fill="#eeb089" d="
  M 40.59 82.70
  L 40.08 82.67
  Q 39.47 82.63 39.51 82.02
  L 39.62 80.54
  Q 39.65 80.36 39.77 80.32
  Q 39.90 80.28 39.99 80.38
  Q 40.94 81.54 40.59 82.70
  Z"
/>
<rect fill="#0f0d0f" x="-8.46" y="-0.52" transform="translate(54.66,85.04) rotate(-20.8)" width="16.92" height="1.04" rx="0.27"/>
<path fill="#eeb089" d="
  M 74.76 118.77
  C 85.37 112.39 97.17 105.44 88.64 90.58
  Q 88.37 90.12 88.80 89.79
  C 91.51 87.73 93.84 84.13 96.85 83.09
  Q 100.46 81.83 103.26 82.90
  C 105.31 83.68 111.55 85.98 112.66 88.86
  Q 113.22 90.30 112.37 95.34
  Q 112.29 95.81 111.97 96.15
  C 103.26 105.36 94.02 114.93 88.53 126.49
  C 87.26 129.17 83.02 136.06 80.35 137.03
  C 75.88 138.65 64.19 134.05 68.32 127.54
  C 70.15 124.67 71.79 120.56 74.76 118.77
  Z
  M 86.69 116.14
  L 90.80 118.52
  A 0.31 0.31 0.0 0 0 91.26 118.32
  L 91.34 117.97
  Q 91.34 117.94 91.15 117.85
  L 86.81 115.91
  A 0.13 0.13 0.0 0 0 86.69 116.14
  Z
  M 80.07 134.30
  C 82.73 132.27 86.29 126.00 83.72 123.01
  C 79.02 117.54 71.88 122.41 69.74 128.05
  C 67.79 133.21 76.40 137.11 80.07 134.30
  Z"
/>
<path fill="#eeb089" d="
  M 40.70 83.55
  Q 40.74 83.66 40.81 83.79
  Q 40.92 84.02 40.89 84.27
  L 39.84 91.44
  L 39.55 84.63
  Q 39.53 84.10 40.01 83.87
  L 40.70 83.55
  Z"
/>
<path fill="#0f0d0f" d="
  M 68.86 89.66
  L 68.93 84.70
  Q 68.94 84.64 68.99 84.64
  L 69.28 84.63
  Q 69.44 84.62 69.45 84.78
  L 69.89 89.72
  A 0.29 0.28 87.2 0 1 69.61 90.04
  L 69.26 90.05
  A 0.39 0.38 -0.0 0 1 68.86 89.66
  Z"
/>
<path fill="#eeb089" d="
  M 112.31 85.12
  Q 114.98 86.99 115.06 88.65
  C 114.09 88.28 113.65 87.42 113.13 86.82
  Q 112.36 85.95 112.31 85.12
  Z"
/>
<path fill="#eeb089" d="
  M 114.98 89.05
  Q 116.20 89.25 116.08 89.96
  Q 115.01 96.10 118.56 96.06
  Q 117.38 96.93 116.00 96.06
  Q 115.58 95.79 115.53 95.30
  L 114.98 89.05
  Z"
/>
<path fill="#0f0d0f" d="
  M 80.75 90.81
  Q 81.23 90.56 81.83 90.88
  C 85.93 93.06 85.96 99.42 84.88 103.14
  A 1.64 1.63 79.5 0 1 84.32 103.96
  C 79.80 107.46 70.17 110.52 69.77 100.99
  C 69.51 94.99 74.03 95.43 77.70 92.32
  Q 78.66 91.50 79.89 91.22
  A 1.28 0.07 -28.6 0 0 80.75 90.81
  Z
  M 75.40 94.78
  C 70.36 96.91 68.20 100.85 72.39 105.41
  Q 73.46 106.57 75.50 106.26
  C 79.15 105.71 84.45 104.84 84.25 100.25
  C 84.12 97.48 84.52 93.93 81.84 92.17
  A 1.74 1.73 -46.8 0 0 79.84 92.24
  Q 77.84 93.75 75.40 94.78
  Z"
/>
<ellipse fill="#eeb089" cx="0.00" cy="0.00" transform="translate(118.51,91.88) rotate(-1.4)" rx="1.25" ry="0.68"/>
<path fill="#eeb089" d="
  M 75.40 94.78
  Q 77.84 93.75 79.84 92.24
  A 1.74 1.73 -46.8 0 1 81.84 92.17
  C 84.52 93.93 84.12 97.48 84.25 100.25
  C 84.45 104.84 79.15 105.71 75.50 106.26
  Q 73.46 106.57 72.39 105.41
  C 68.20 100.85 70.36 96.91 75.40 94.78
  Z"
/>
<path fill="#eeb089" d="
  M 39.66 94.33
  Q 39.70 100.34 38.06 104.25
  Q 35.86 109.51 35.84 114.11
  C 35.82 117.85 34.30 120.54 32.93 123.81
  Q 32.53 122.39 32.62 121.06
  Q 32.66 120.60 33.10 120.46
  Q 34.09 120.16 33.80 119.03
  Q 33.70 118.62 34.08 118.44
  L 34.49 118.25
  Q 34.97 118.03 34.96 117.51
  L 34.90 109.22
  A 0.69 0.67 80.3 0 1 35.34 108.58
  L 35.87 108.38
  A 0.54 0.54 0.0 0 0 36.19 107.69
  Q 35.60 105.99 37.02 104.97
  A 0.87 0.86 -28.6 0 0 37.32 103.97
  Q 36.81 102.58 38.04 101.93
  Q 38.56 101.65 38.53 101.07
  Q 38.32 96.55 38.33 95.26
  Q 38.34 94.39 39.66 94.33
  Z"
/>
<circle fill="#eeb089" cx="125.94" cy="95.09" r="0.72"/>
<path fill="#eeb089" d="
  M 127.76 141.34
  C 127.42 139.09 127.39 137.24 128.74 135.20
  C 132.54 129.46 127.50 122.71 128.99 116.01
  Q 129.66 113.02 129.43 111.42
  C 128.98 108.28 128.19 106.39 126.16 103.65
  C 124.39 101.25 123.51 98.56 120.39 97.33
  Q 120.17 97.25 120.14 97.02
  Q 120.11 96.86 120.22 96.74
  Q 120.59 96.09 121.10 95.68
  A 0.50 0.50 0.0 0 1 121.91 96.01
  L 122.03 96.90
  Q 122.10 97.43 122.41 97.85
  Q 123.28 99.06 124.93 98.80
  Q 125.50 98.71 125.43 99.28
  L 125.29 100.49
  Q 125.23 101.01 125.75 101.01
  L 127.27 100.99
  Q 127.91 100.99 127.64 101.56
  Q 127.40 102.08 126.76 102.24
  Q 126.46 102.32 126.37 102.52
  Q 126.17 102.94 126.64 102.98
  Q 127.75 103.07 127.60 104.19
  A 0.90 0.89 23.1 0 0 127.94 105.02
  L 128.38 105.36
  A 0.70 0.68 -73.7 0 1 128.65 105.87
  Q 128.72 106.91 129.51 107.56
  Q 129.95 107.92 129.93 108.49
  Q 129.71 115.66 129.83 122.80
  C 129.84 123.70 130.02 124.16 130.62 124.79
  Q 130.98 125.16 130.99 125.69
  C 131.01 128.14 131.47 131.42 130.32 133.62
  Q 129.66 134.89 128.92 136.11
  Q 128.65 136.55 128.72 137.05
  Q 129.13 139.91 127.76 141.34
  Z"
/>
<path fill="#0f0d0f" d="
  M 59.27 107.23
  Q 57.61 105.83 57.11 103.54
  Q 57.06 103.31 57.17 103.51
  L 59.27 107.23
  Z"
/>
<path fill="#0f0d0f" d="
  M 59.27 107.23
  L 63.41 112.36
  Q 63.52 112.50 63.43 112.64
  Q 63.41 112.67 63.39 112.71
  A 0.08 0.07 -52.2 0 1 63.28 112.73
  Q 60.79 110.37 59.27 107.23
  Z"
/>
<path fill="#eeb089" d="
  M 30.00 109.55
  L 30.41 109.79
  Q 30.60 109.91 30.51 110.11
  Q 30.08 111.10 28.97 110.78
  Q 27.47 110.34 28.18 108.78
  Q 28.45 108.20 28.91 108.65
  L 29.12 108.87
  Q 29.52 109.26 30.00 109.55
  Z"
/>
<path fill="#0f0d0f" d="
  M 60.98 115.37
  A 0.16 0.16 0.0 0 1 60.75 115.35
  L 60.67 115.26
  A 7.56 0.32 49.7 0 1 56.03 109.29
  L 56.18 109.16
  A 7.56 0.32 49.7 0 1 61.31 114.71
  L 61.39 114.81
  A 0.16 0.16 0.0 0 1 61.37 115.03
  L 60.98 115.37
  Z"
/>
<path fill="#0f0d0f" d="
  M 90.80 118.52
  L 86.69 116.14
  A 0.13 0.13 0.0 0 1 86.81 115.91
  L 91.15 117.85
  Q 91.34 117.94 91.34 117.97
  L 91.26 118.32
  A 0.31 0.31 0.0 0 1 90.80 118.52
  Z"
/>
<path fill="#0f0d0f" d="
  M 80.07 134.30
  C 76.40 137.11 67.79 133.21 69.74 128.05
  C 71.88 122.41 79.02 117.54 83.72 123.01
  C 86.29 126.00 82.73 132.27 80.07 134.30
  Z
  M 83.67 127.99
  A 4.04 4.04 0.0 0 0 80.35 122.29
  L 77.58 122.04
  A 4.04 4.04 0.0 0 0 74.07 123.55
  L 71.28 127.05
  A 4.04 4.04 0.0 0 0 73.04 133.36
  L 76.54 134.64
  A 4.04 4.04 0.0 0 0 81.61 132.52
  L 83.67 127.99
  Z"
/>
<ellipse fill="#0f0d0f" cx="0.00" cy="0.00" transform="translate(100.87,122.69) rotate(27.1)" rx="2.21" ry="0.18"/>
<path fill="#eeb089" d="
  M 83.67 127.99
  L 81.61 132.52
  A 4.04 4.04 0.0 0 1 76.54 134.64
  L 73.04 133.36
  A 4.04 4.04 0.0 0 1 71.28 127.05
  L 74.07 123.55
  A 4.04 4.04 0.0 0 1 77.58 122.04
  L 80.35 122.29
  A 4.04 4.04 0.0 0 1 83.67 127.99
  Z"
/>
<path fill="#eeb089" d="
  M 32.56 124.51
  Q 32.98 126.70 31.63 128.08
  L 31.54 125.28
  Q 31.53 124.71 32.07 124.56
  Q 32.29 124.50 32.56 124.51
  Z"
/>
<path fill="#0f0d0f" d="
  M 98.18 134.66
  C 97.81 139.12 95.79 142.99 90.49 141.18
  Q 87.54 140.17 86.37 137.72
  A 3.04 3.03 -36.4 0 1 86.88 134.36
  C 87.96 133.19 88.73 131.38 90.09 130.57
  C 93.44 128.57 98.54 130.24 98.18 134.66
  Z
  M 94.74 131.09
  A 3.08 3.08 0.0 0 0 90.48 131.50
  L 87.83 134.61
  A 3.08 3.08 0.0 0 0 89.20 139.53
  L 92.63 140.68
  A 3.08 3.08 0.0 0 0 96.53 138.73
  L 97.49 135.87
  A 3.08 3.08 0.0 0 0 96.49 132.49
  L 94.74 131.09
  Z"
/>
<path fill="#eeb089" d="
  M 31.58 129.76
  Q 31.70 133.70 30.56 137.47
  Q 30.43 134.27 30.37 131.10
  Q 30.36 130.49 30.67 130.22
  Q 31.00 129.92 31.58 129.76
  Z"
/>
<path fill="#eeb089" d="
  M 94.74 131.09
  L 96.49 132.49
  A 3.08 3.08 0.0 0 1 97.49 135.87
  L 96.53 138.73
  A 3.08 3.08 0.0 0 1 92.63 140.68
  L 89.20 139.53
  A 3.08 3.08 0.0 0 1 87.83 134.61
  L 90.48 131.50
  A 3.08 3.08 0.0 0 1 94.74 131.09
  Z"
/>
<path fill="#eeb089" d="
  M 30.17 138.29
  Q 30.67 140.94 29.39 141.76
  Q 28.75 138.92 30.17 138.29
  Z"
/>
<path fill="#eeb089" d="
  M 127.49 141.88
  L 127.44 148.47
  Q 127.44 148.96 127.13 149.35
  L 126.62 149.98
  Q 126.10 145.79 127.49 141.88
  Z"
/>
<path fill="#f9f5eb" fill-opacity="0.992" d="
  M 29.34 145.79
  Q 30.46 147.11 29.80 148.35
  Q 28.93 147.92 29.34 145.79
  Z"
/>
<path fill="#eeb089" d="
  M 30.53 149.69
  Q 31.15 150.53 31.27 151.50
  Q 30.67 151.59 30.45 151.02
  Q 30.19 150.37 30.53 149.69
  Z"
/>
<path fill="#eeb089" d="
  M 126.47 150.96
  L 126.33 154.82
  A 1.12 1.04 67.2 0 1 126.09 155.48
  Q 125.12 156.67 125.26 158.22
  A 0.87 0.87 0.0 0 1 124.83 159.05
  Q 124.17 159.43 124.21 160.21
  Q 124.23 160.69 123.87 160.99
  Q 122.68 161.97 123.09 163.55
  Q 123.23 164.11 122.69 164.30
  Q 122.03 164.54 121.93 165.16
  Q 121.84 165.78 122.28 166.22
  L 122.89 166.82
  Q 123.14 167.07 123.05 167.40
  L 122.96 167.70
  Q 122.81 168.23 122.49 167.79
  Q 121.81 166.85 121.06 166.33
  L 126.47 150.96
  Z"
/>
<path fill="#f9f5eb" fill-opacity="0.992" d="
  M 31.61 151.69
  Q 35.14 158.26 35.19 161.74
  Q 35.33 172.30 40.74 181.28
  Q 40.98 181.68 40.72 181.74
  Q 39.99 181.25 39.67 180.38
  Q 39.51 179.94 39.11 179.70
  Q 38.34 179.25 38.32 178.36
  Q 38.31 177.84 37.90 177.52
  Q 36.89 176.73 37.32 175.41
  Q 37.50 174.85 37.06 174.45
  L 36.30 173.78
  A 0.90 0.90 0.0 0 1 36.07 172.78
  Q 36.58 171.47 35.44 170.73
  Q 34.94 170.40 34.94 169.81
  Q 34.96 167.11 35.01 164.49
  Q 35.02 163.88 34.78 163.59
  Q 34.62 163.39 34.39 163.28
  Q 33.91 163.03 33.89 162.48
  L 33.74 157.63
  Q 33.73 157.10 33.27 156.81
  L 33.03 156.66
  A 0.64 0.63 21.5 0 1 32.74 156.02
  Q 32.91 154.95 31.93 154.47
  Q 31.52 154.28 31.53 153.82
  L 31.61 151.69
  Z"
/>
<ellipse fill="#f9f5eb" fill-opacity="0.992" cx="0.00" cy="0.00" transform="translate(32.06,161.77) rotate(-0.5)" rx="0.83" ry="0.50"/>
<path fill="#eeb089" d="
  M 120.64 166.71
  Q 121.14 168.72 119.64 168.96
  Q 119.85 167.16 120.64 166.71
  Z"
/>
<rect fill="#0f0d0f" x="-0.42" y="-3.85" transform="translate(97.68,172.42) rotate(11.5)" width="0.84" height="7.70" rx="0.39"/>
<path fill="#eeb089" d="
  M 119.41 169.71
  Q 120.13 172.05 118.87 173.30
  Q 118.47 173.68 118.48 174.24
  L 118.51 179.84
  Q 118.51 180.46 117.89 180.56
  L 117.39 180.65
  Q 117.05 175.15 119.05 169.99
  Q 119.16 169.71 119.41 169.71
  Z"
/>
<path fill="#0f0d0f" d="
  M 103.62 178.94
  Q 102.97 178.77 102.70 178.18
  A 0.51 0.51 0.0 0 1 103.22 177.46
  L 103.85 177.53
  Q 104.41 177.60 104.85 177.25
  L 108.00 174.73
  Q 109.60 173.44 108.63 175.26
  Q 107.81 176.79 106.47 178.44
  C 105.42 179.73 104.05 179.93 103.02 181.51
  A 0.59 0.59 0.0 0 1 102.06 181.56
  Q 101.68 181.09 101.60 180.46
  Q 101.55 180.02 101.13 179.85
  Q 100.20 179.48 99.24 179.89
  Q 98.84 180.06 98.64 179.67
  Q 98.42 179.22 98.74 178.73
  C 99.92 176.93 99.21 175.03 100.50 173.61
  Q 100.96 173.11 101.14 173.77
  Q 101.58 175.42 100.77 176.96
  A 1.97 1.97 0.0 0 0 103.06 179.77
  L 103.63 179.60
  A 0.34 0.34 0.0 0 0 103.62 178.94
  Z"
/>
<ellipse fill="#0f0d0f" cx="0.00" cy="0.00" transform="translate(58.19,176.44) rotate(-27.3)" rx="1.99" ry="0.19"/>
<path fill="#0f0d0f" d="
  M 67.48 177.51
  Q 66.73 178.66 68.09 178.82
  Q 72.48 179.34 76.28 180.03
  C 80.96 180.88 85.78 182.98 90.54 184.59
  C 93.11 185.45 95.80 184.84 98.60 185.69
  Q 98.61 185.70 98.61 185.68
  Q 98.81 184.82 98.63 185.66
  Q 98.63 185.68 98.61 185.68
  C 95.01 185.62 91.64 186.36 88.19 185.42
  C 84.01 184.28 80.31 182.70 75.96 181.98
  Q 68.85 180.80 61.78 179.43
  C 59.81 179.05 58.50 179.76 56.84 180.60
  Q 56.68 180.68 56.59 180.52
  L 56.58 180.52
  Q 56.49 180.36 56.65 180.26
  Q 58.61 179.02 59.74 178.63
  Q 60.00 178.55 60.36 178.69
  Q 60.76 178.85 61.17 178.70
  L 69.18 175.72
  Q 69.29 175.68 69.35 175.79
  L 69.49 176.06
  Q 69.52 176.12 69.46 176.15
  Q 67.84 176.96 67.48 177.51
  Z"
/>
<path fill="#0f0d0f" d="
  M 99.39 180.62
  Q 100.28 181.00 100.23 182.09
  Q 100.20 182.74 99.54 182.73
  Q 98.40 182.72 97.28 183.12
  A 0.46 0.46 0.0 0 1 96.71 182.51
  Q 97.18 181.42 98.20 180.73
  Q 98.77 180.35 99.39 180.62
  Z"
/>
<ellipse fill="#f9f5eb" fill-opacity="0.992" cx="0.00" cy="0.00" transform="translate(38.95,182.03) rotate(-36.9)" rx="0.83" ry="0.57"/>
<path fill="#f9f5eb" fill-opacity="0.992" d="
  M 44.05 192.49
  Q 42.94 192.36 42.96 191.76
  Q 43.07 188.57 42.93 185.31
  Q 42.90 184.82 42.41 184.76
  Q 40.19 184.51 38.61 186.17
  Q 38.15 186.66 38.76 186.94
  L 39.55 187.29
  A 0.35 0.35 0.0 0 1 39.56 187.92
  L 39.16 188.11
  A 0.52 0.52 0.0 0 1 38.46 187.87
  Q 38.23 187.40 37.71 187.04
  Q 36.62 186.29 37.72 185.57
  Q 40.56 183.69 41.08 182.46
  Q 41.16 182.30 41.34 182.29
  Q 41.71 182.28 41.83 182.63
  Q 42.36 184.05 43.49 185.08
  Q 43.89 185.44 43.90 185.98
  L 44.05 192.49
  Z"
/>
<path fill="#eeb089" d="
  M 117.31 182.39
  Q 116.70 184.86 118.55 184.95
  A 0.23 0.23 0.0 0 1 118.76 185.23
  Q 118.73 185.36 118.70 185.50
  Q 118.66 185.69 118.47 185.73
  Q 117.46 185.98 116.34 184.67
  Q 116.18 183.08 117.31 182.39
  Z"
/>
<rect fill="#0f0d0f" x="-10.98" y="-0.55" transform="translate(78.45,187.05) rotate(13.9)" width="21.96" height="1.10" rx="0.26"/>
<path fill="#eeb089" d="
  M 110.57 195.00
  L 105.19 195.00
  Q 112.08 190.34 110.57 195.00
  Z"
/>
</svg>
