<?xml version="1.0" encoding="UTF-8" standalone="no"?>
<!DOCTYPE svg PUBLIC "-//W3C//DTD SVG 1.1//EN" "http://www.w3.org/Graphics/SVG/1.1/DTD/svg11.dtd">
<svg xmlns="http://www.w3.org/2000/svg" version="1.1" viewBox="0.00 0.00 35.00 55.00">
<g stroke-width="2.00" fill="none" stroke-linecap="butt">
<path stroke="#838383" vector-effect="non-scaling-stroke" d="
  M 25.51 12.77
  Q 25.06 16.90 26.16 19.11"
/>
<path stroke="#d8d8d7" vector-effect="non-scaling-stroke" d="
  M 26.16 19.11
  Q 27.20 20.69 24.95 19.51
  A 1.11 1.11 0.0 0 1 24.41 18.87
  L 23.54 16.19
  A 0.48 0.48 0.0 0 0 22.60 16.31
  Q 22.56 16.96 22.01 17.36
  A 0.94 0.94 0.0 0 0 21.62 18.23
  Q 21.81 20.04 20.68 21.48
  Q 20.31 21.94 20.23 22.52
  Q 19.87 24.86 18.64 26.89
  A 0.55 0.54 -63.7 0 1 17.98 27.12
  Q 17.62 26.98 17.40 26.48"
/>
<path stroke="#7b7b7a" vector-effect="non-scaling-stroke" d="
  M 17.40 26.48
  L 19.49 18.53
  A 1.22 1.21 37.4 0 0 19.36 17.60
  Q 17.99 15.22 15.55 14.02
  Q 15.19 13.84 14.97 14.18
  L 13.77 15.99"
/>
<path stroke="#a7a6a7" vector-effect="non-scaling-stroke" d="
  M 13.77 15.99
  Q 11.53 17.89 11.29 19.72"
/>
<path stroke="#7b7b7a" vector-effect="non-scaling-stroke" d="
  M 11.29 19.72
  Q 8.11 22.20 9.67 26.25
  Q 10.42 28.19 12.26 27.69
  Q 13.21 27.44 16.89 27.26"
/>
<path stroke="#d8d8d7" vector-effect="non-scaling-stroke" d="
  M 16.89 27.26
  Q 17.61 28.53 14.74 28.71
  Q 11.80 28.89 8.90 28.32
  A 0.66 0.65 15.4 0 0 8.15 28.74
  Q 8.03 29.08 8.12 29.41
  Q 8.24 29.80 8.86 30.10
  Q 11.24 31.29 15.13 33.60
  Q 18.02 35.32 17.67 37.15"
/>
<path stroke="#bbbbba" vector-effect="non-scaling-stroke" d="
  M 17.67 37.15
  Q 13.86 33.02 9.60 31.84
  Q 8.40 31.50 8.60 32.73
  L 10.17 42.17"
/>
<path stroke="#838383" vector-effect="non-scaling-stroke" d="
  M 10.17 42.17
  Q 10.30 44.09 11.07 45.47"
/>
<path stroke="#bbbbba" vector-effect="non-scaling-stroke" d="
  M 11.07 45.47
  Q 10.91 47.21 10.31 47.38"
/>
<path stroke="#7b7b7a" vector-effect="non-scaling-stroke" d="
  M 10.31 47.38
  L 8.00 36.70
  Q 7.88 36.15 7.32 36.17
  Q 5.20 36.22 3.30 35.44"
/>
<path stroke="#7b7b7a" vector-effect="non-scaling-stroke" d="
  M 2.75 35.77
  C 3.28 40.95 6.08 44.41 10.01 47.89
  Q 10.11 47.98 10.22 47.99
  Q 10.38 48.01 10.48 47.94"
/>
<path stroke="#a7a6a7" vector-effect="non-scaling-stroke" d="
  M 0.67 25.54
  Q 1.96 25.97 2.38 24.58
  Q 2.75 23.34 2.70 22.11"
/>
<path stroke="#838383" vector-effect="non-scaling-stroke" d="
  M 2.70 22.11
  Q 4.73 18.90 3.11 16.28"
/>
<path stroke="#838383" vector-effect="non-scaling-stroke" d="
  M 12.65 7.70
  Q 14.76 8.48 17.14 7.32"
/>
<path stroke="#7b7b7a" vector-effect="non-scaling-stroke" d="
  M 14.02 13.39
  L 13.13 12.74
  A 0.17 0.17 0.0 0 0 12.89 12.77
  L 8.69 18.47
  A 2.03 0.64 -53.6 0 0 8.00 20.49
  L 8.13 20.58
  A 2.03 0.64 -53.6 0 0 9.85 19.33
  L 14.05 13.63
  A 0.17 0.17 0.0 0 0 14.02 13.39"
/>
<path stroke="#6f6f6f" vector-effect="non-scaling-stroke" d="
  M 28.25 14.77
  L 27.62 13.90"
/>
<path stroke="#6f6f6f" vector-effect="non-scaling-stroke" d="
  M 27.93 15.62
  L 26.44 15.03
  Q 25.52 14.67 26.06 15.50
  Q 27.17 17.20 26.92 19.23
  Q 26.89 19.51 26.64 19.37
  L 26.16 19.11"
/>
<path stroke="#676666" vector-effect="non-scaling-stroke" d="
  M 17.40 26.48
  Q 17.19 27.07 16.89 27.26"
/>
<path stroke="#363436" vector-effect="non-scaling-stroke" d="
  M 11.29 19.72
  Q 9.81 23.05 10.85 25.13
  A 1.22 1.19 -8.9 0 0 11.76 25.78
  Q 13.75 26.07 15.72 25.64
  A 1.01 0.99 -84.8 0 0 16.44 25.03
  C 17.55 22.27 19.22 17.76 15.98 15.76
  Q 15.52 15.47 15.11 15.82
  Q 13.94 16.79 13.77 15.99"
/>
<path stroke="#6f6f6f" vector-effect="non-scaling-stroke" d="
  M 28.26 16.62
  Q 27.26 20.87 29.13 24.43
  Q 29.45 25.05 30.95 24.41"
/>
<path stroke="#a7a6a6" vector-effect="non-scaling-stroke" d="
  M 33.35 25.83
  Q 34.20 25.95 33.92 25.69"
/>
<path stroke="#939193" vector-effect="non-scaling-stroke" d="
  M 33.79 27.80
  Q 33.50 27.66 33.38 27.07"
/>
<path stroke="#939193" vector-effect="non-scaling-stroke" d="
  M 29.82 37.39
  L 29.62 38.39"
/>
<path stroke="#6f6f6f" vector-effect="non-scaling-stroke" d="
  M 28.00 41.14
  L 27.90 34.93
  A 0.67 0.66 83.8 0 0 27.11 34.29
  L 21.97 35.29
  Q 21.51 35.38 21.30 35.80
  C 19.67 38.94 20.95 41.30 22.48 44.74
  Q 22.98 45.88 24.17 46.12"
/>
<path stroke="#939193" vector-effect="non-scaling-stroke" d="
  M 31.67 49.51
  Q 32.37 48.55 32.43 49.06"
/>
<path stroke="#6f6f6f" vector-effect="non-scaling-stroke" d="
  M 23.00 47.17
  Q 22.84 46.83 22.65 46.69
  Q 22.14 46.28 22.11 46.93
  L 22.06 48.01"
/>
<path stroke="#a7a6a6" vector-effect="non-scaling-stroke" d="
  M 21.21 48.64
  L 21.14 46.78"
/>
<path stroke="#6f6f6f" vector-effect="non-scaling-stroke" d="
  M 21.14 46.78
  Q 21.19 43.52 19.60 40.93"
/>
<path stroke="#a7a6a6" vector-effect="non-scaling-stroke" d="
  M 19.60 40.93
  Q 19.20 38.81 17.67 37.15"
/>
<path stroke="#3e3d3f" vector-effect="non-scaling-stroke" d="
  M 2.70 22.11
  Q 2.57 22.17 2.45 22.18
  A 0.10 0.10 0.0 0 1 2.35 22.07
  L 2.86 17.26"
/>
<path stroke="#525252" vector-effect="non-scaling-stroke" d="
  M 19.60 40.93
  C 18.90 41.70 18.52 43.04 18.99 44.07
  Q 19.76 45.74 21.14 46.78"
/>
<path stroke="#4a4949" vector-effect="non-scaling-stroke" d="
  M 10.48 47.94
  L 10.31 47.38"
/>
<path stroke="#525252" vector-effect="non-scaling-stroke" d="
  M 11.07 45.47
  Q 13.27 43.48 10.17 42.17"
/>
<path stroke="#525252" vector-effect="non-scaling-stroke" d="
  M 22.95 47.95
  L 22.46 48.09"
/>
</g>
<path fill="#ececeb" d="
  M 25.51 12.77
  Q 25.06 16.90 26.16 19.11
  Q 27.20 20.69 24.95 19.51
  A 1.11 1.11 0.0 0 1 24.41 18.87
  L 23.54 16.19
  A 0.48 0.48 0.0 0 0 22.60 16.31
  Q 22.56 16.96 22.01 17.36
  A 0.94 0.94 0.0 0 0 21.62 18.23
  Q 21.81 20.04 20.68 21.48
  Q 20.31 21.94 20.23 22.52
  Q 19.87 24.86 18.64 26.89
  A 0.55 0.54 -63.7 0 1 17.98 27.12
  Q 17.62 26.98 17.40 26.48
  L 19.49 18.53
  A 1.22 1.21 37.4 0 0 19.36 17.60
  Q 17.99 15.22 15.55 14.02
  Q 15.19 13.84 14.97 14.18
  L 13.77 15.99
  Q 11.53 17.89 11.29 19.72
  Q 8.11 22.20 9.67 26.25
  Q 10.42 28.19 12.26 27.69
  Q 13.21 27.44 16.89 27.26
  Q 17.61 28.53 14.74 28.71
  Q 11.80 28.89 8.90 28.32
  A 0.66 0.65 15.4 0 0 8.15 28.74
  Q 8.03 29.08 8.12 29.41
  Q 8.24 29.80 8.86 30.10
  Q 11.24 31.29 15.13 33.60
  Q 18.02 35.32 17.67 37.15
  Q 13.86 33.02 9.60 31.84
  Q 8.40 31.50 8.60 32.73
  L 10.17 42.17
  Q 10.30 44.09 11.07 45.47
  Q 10.91 47.21 10.31 47.38
  L 8.00 36.70
  Q 7.88 36.15 7.32 36.17
  Q 5.20 36.22 3.30 35.44
  L 1.78 29.20
  Q 1.75 29.06 1.62 29.06
  L 1.62 29.06
  Q 1.48 29.06 1.47 29.21
  Q 1.36 32.65 2.75 35.77
  C 3.28 40.95 6.08 44.41 10.01 47.89
  Q 10.11 47.98 10.22 47.99
  Q 10.38 48.01 10.48 47.94
  L 13.00 53.16
  A 0.53 0.53 0.0 0 1 12.73 53.88
  L 12.46 54.00
  A 0.28 0.27 -23.9 0 1 12.09 53.86
  C 11.06 51.44 10.28 49.54 8.35 47.54
  Q 5.57 44.66 3.50 41.26
  C 1.52 38.01 1.10 33.87 0.00 30.07
  L 0.00 27.00
  L 0.67 25.54
  Q 1.96 25.97 2.38 24.58
  Q 2.75 23.34 2.70 22.11
  Q 4.73 18.90 3.11 16.28
  Q 5.48 11.82 8.73 8.00
  C 10.81 5.56 13.72 3.74 16.25 1.47
  Q 16.76 1.01 17.42 1.00
  A 0.47 0.47 0.0 0 1 17.73 1.83
  L 15.57 3.70
  Q 15.26 3.97 15.59 4.22
  L 17.53 5.71
  A 0.80 0.80 0.0 0 0 18.55 5.66
  C 20.00 4.29 22.86 0.80 25.11 1.00
  A 0.26 0.26 0.0 0 1 25.25 1.46
  L 19.23 6.38
  A 0.71 0.71 0.0 0 0 19.47 7.60
  Q 23.49 8.89 25.51 12.77
  Z
  M 12.65 7.70
  Q 14.76 8.48 17.14 7.32
  Q 16.29 5.33 14.32 5.07
  Q 13.84 5.01 13.43 5.29
  Q 11.55 6.58 9.96 8.22
  Q 9.49 8.70 10.13 8.50
  L 12.65 7.70
  Z
  M 14.02 13.39
  L 13.13 12.74
  A 0.17 0.17 0.0 0 0 12.89 12.77
  L 8.69 18.47
  A 2.03 0.64 -53.6 0 0 8.00 20.49
  L 8.13 20.58
  A 2.03 0.64 -53.6 0 0 9.85 19.33
  L 14.05 13.63
  A 0.17 0.17 0.0 0 0 14.02 13.39
  Z"
/>
<rect fill="#625f63" x="-0.48" y="-5.48" transform="translate(27.80,5.37) rotate(37.6)" width="0.96" height="10.96" rx="0.26"/>
<path fill="#c4c3c3" d="
  M 35.00 4.89
  Q 35.00 5.21 35.00 5.53
  Q 31.30 8.55 29.17 12.62
  A 0.40 0.39 8.4 0 0 29.60 13.19
  Q 32.88 12.55 35.00 13.88
  Q 35.00 14.21 35.00 14.55
  Q 32.11 13.70 29.29 13.98
  Q 28.84 14.02 28.56 14.38
  L 28.25 14.77
  L 27.62 13.90
  Q 30.02 7.24 35.00 4.89
  Z"
/>
<path fill="#1a1a1a" d="
  M 17.14 7.32
  Q 14.76 8.48 12.65 7.70
  Q 14.27 6.49 17.14 7.32
  Z"
/>
<path fill="#1a1a1a" d="
  M 25.51 12.77
  L 27.62 13.90
  L 28.25 14.77
  Q 28.30 15.08 27.93 15.62
  L 26.44 15.03
  Q 25.52 14.67 26.06 15.50
  Q 27.17 17.20 26.92 19.23
  Q 26.89 19.51 26.64 19.37
  L 26.16 19.11
  Q 25.06 16.90 25.51 12.77
  Z"
/>
<path fill="#0a0909" d="
  M 14.02 13.39
  A 0.17 0.17 0.0 0 1 14.05 13.63
  L 9.85 19.33
  A 2.03 0.64 -53.6 0 1 8.13 20.58
  L 8.00 20.49
  A 2.03 0.64 -53.6 0 1 8.69 18.47
  L 12.89 12.77
  A 0.17 0.17 0.0 0 1 13.13 12.74
  L 14.02 13.39
  Z"
/>
<path fill="#0a0909" d="
  M 17.40 26.48
  Q 17.19 27.07 16.89 27.26
  Q 13.21 27.44 12.26 27.69
  Q 10.42 28.19 9.67 26.25
  Q 8.11 22.20 11.29 19.72
  Q 9.81 23.05 10.85 25.13
  A 1.22 1.19 -8.9 0 0 11.76 25.78
  Q 13.75 26.07 15.72 25.64
  A 1.01 0.99 -84.8 0 0 16.44 25.03
  C 17.55 22.27 19.22 17.76 15.98 15.76
  Q 15.52 15.47 15.11 15.82
  Q 13.94 16.79 13.77 15.99
  L 14.97 14.18
  Q 15.19 13.84 15.55 14.02
  Q 17.99 15.22 19.36 17.60
  A 1.22 1.21 37.4 0 1 19.49 18.53
  L 17.40 26.48
  Z"
/>
<path fill="#c4c3c3" d="
  M 27.93 15.62
  Q 28.03 16.29 28.26 16.62
  Q 27.26 20.87 29.13 24.43
  Q 29.45 25.05 30.95 24.41
  Q 30.67 26.49 33.35 25.83
  Q 34.20 25.95 33.92 25.69
  Q 34.45 25.88 34.65 26.17
  Q 34.95 26.60 34.47 26.82
  Q 33.72 27.17 33.79 27.80
  Q 33.50 27.66 33.38 27.07
  Q 32.41 26.88 31.50 27.01
  Q 30.99 27.09 31.02 27.61
  Q 31.23 32.70 29.82 37.39
  L 29.62 38.39
  L 28.00 41.14
  L 27.90 34.93
  A 0.67 0.66 83.8 0 0 27.11 34.29
  L 21.97 35.29
  Q 21.51 35.38 21.30 35.80
  C 19.67 38.94 20.95 41.30 22.48 44.74
  Q 22.98 45.88 24.17 46.12
  Q 24.05 46.81 24.87 47.19
  Q 29.13 49.18 31.65 52.35
  Q 31.99 52.78 32.06 52.23
  Q 32.25 50.75 31.67 49.51
  Q 32.37 48.55 32.43 49.06
  Q 33.56 46.90 35.00 46.08
  L 35.00 47.25
  Q 32.50 49.68 32.88 53.33
  Q 32.95 54.01 32.27 54.00
  L 31.81 53.99
  Q 31.39 53.99 31.18 53.63
  C 29.21 50.22 26.08 49.07 23.00 47.17
  Q 22.84 46.83 22.65 46.69
  Q 22.14 46.28 22.11 46.93
  L 22.06 48.01
  Q 21.69 48.45 21.75 48.75
  Q 22.19 51.25 21.91 53.77
  Q 21.89 53.91 21.76 53.94
  Q 21.62 53.97 21.47 54.00
  A 0.28 0.27 85.1 0 1 21.14 53.72
  L 21.21 48.64
  L 21.14 46.78
  Q 21.19 43.52 19.60 40.93
  Q 19.20 38.81 17.67 37.15
  Q 18.02 35.32 15.13 33.60
  Q 11.24 31.29 8.86 30.10
  Q 8.24 29.80 8.12 29.41
  Q 8.03 29.08 8.15 28.74
  A 0.66 0.65 15.4 0 1 8.90 28.32
  Q 11.80 28.89 14.74 28.71
  Q 17.61 28.53 16.89 27.26
  Q 17.19 27.07 17.40 26.48
  Q 17.62 26.98 17.98 27.12
  A 0.55 0.54 -63.7 0 0 18.64 26.89
  Q 19.87 24.86 20.23 22.52
  Q 20.31 21.94 20.68 21.48
  Q 21.81 20.04 21.62 18.23
  A 0.94 0.94 0.0 0 1 22.01 17.36
  Q 22.56 16.96 22.60 16.31
  A 0.48 0.48 0.0 0 1 23.54 16.19
  L 24.41 18.87
  A 1.11 1.11 0.0 0 0 24.95 19.51
  Q 27.20 20.69 26.16 19.11
  L 26.64 19.37
  Q 26.89 19.51 26.92 19.23
  Q 27.17 17.20 26.06 15.50
  Q 25.52 14.67 26.44 15.03
  L 27.93 15.62
  Z"
/>
<path fill="#625f63" d="
  M 11.29 19.72
  Q 11.53 17.89 13.77 15.99
  Q 13.94 16.79 15.11 15.82
  Q 15.52 15.47 15.98 15.76
  C 19.22 17.76 17.55 22.27 16.44 25.03
  A 1.01 0.99 -84.8 0 1 15.72 25.64
  Q 13.75 26.07 11.76 25.78
  A 1.22 1.19 -8.9 0 1 10.85 25.13
  Q 9.81 23.05 11.29 19.72
  Z"
/>
<path fill="#1a1a1a" d="
  M 3.11 16.28
  Q 4.73 18.90 2.70 22.11
  Q 2.57 22.17 2.45 22.18
  A 0.10 0.10 0.0 0 1 2.35 22.07
  L 2.86 17.26
  L 3.11 16.28
  Z"
/>
<path fill="#1a1a1a" d="
  M 28.26 16.62
  Q 30.42 20.67 30.95 24.41
  Q 29.45 25.05 29.13 24.43
  Q 27.26 20.87 28.26 16.62
  Z"
/>
<path fill="#625f63" d="
  M 2.86 17.26
  L 2.35 22.07
  A 0.10 0.10 0.0 0 0 2.45 22.18
  Q 2.57 22.17 2.70 22.11
  Q 2.75 23.34 2.38 24.58
  Q 1.96 25.97 0.67 25.54
  Q 0.82 21.11 2.86 17.26
  Z"
/>
<path fill="#898989" d="
  M 35.00 21.76
  L 35.00 23.01
  L 33.92 25.69
  Q 34.20 25.95 33.35 25.83
  L 34.32 21.77
  Q 34.41 21.40 34.76 21.55
  Q 34.88 21.61 35.00 21.76
  Z"
/>
<path fill="#625f63" d="
  M 33.38 27.07
  Q 33.50 27.66 33.79 27.80
  L 33.16 36.14
  Q 33.12 36.66 33.60 36.87
  L 35.00 37.51
  Q 35.00 37.72 35.00 37.93
  Q 33.47 37.78 32.27 38.29
  Q 31.84 38.47 31.84 38.93
  L 31.85 47.91
  Q 31.85 48.38 32.16 48.74
  Q 32.28 48.88 32.43 49.06
  Q 32.37 48.55 31.67 49.51
  Q 30.68 44.74 31.18 39.46
  Q 31.23 38.91 30.70 38.73
  L 29.62 38.39
  L 29.82 37.39
  Q 30.18 38.69 31.53 37.89
  A 1.75 1.74 78.1 0 0 32.37 36.59
  L 33.38 27.07
  Z"
/>
<path fill="#898989" d="
  M 17.67 37.15
  Q 19.20 38.81 19.60 40.93
  C 18.90 41.70 18.52 43.04 18.99 44.07
  Q 19.76 45.74 21.14 46.78
  L 21.21 48.64
  L 16.03 49.52
  Q 15.48 49.61 15.66 50.13
  L 16.74 53.28
  Q 16.85 53.59 16.54 53.70
  L 16.23 53.81
  A 0.29 0.28 -15.9 0 1 15.86 53.61
  L 14.96 50.10
  A 1.20 1.18 -81.5 0 0 14.44 49.39
  Q 13.35 48.70 12.02 48.70
  Q 11.59 48.70 11.28 48.40
  Q 10.91 48.04 10.48 47.94
  L 10.31 47.38
  Q 10.91 47.21 11.07 45.47
  Q 13.27 43.48 10.17 42.17
  L 8.60 32.73
  Q 8.40 31.50 9.60 31.84
  Q 13.86 33.02 17.67 37.15
  Z"
/>
<path fill="#1a1a1a" d="
  M 28.00 41.14
  Q 26.95 43.92 24.17 46.12
  Q 22.98 45.88 22.48 44.74
  C 20.95 41.30 19.67 38.94 21.30 35.80
  Q 21.51 35.38 21.97 35.29
  L 27.11 34.29
  A 0.67 0.66 83.8 0 1 27.90 34.93
  L 28.00 41.14
  Z"
/>
<path fill="#0a0909" d="
  M 3.30 35.44
  Q 5.20 36.22 7.32 36.17
  Q 7.88 36.15 8.00 36.70
  L 10.31 47.38
  L 10.48 47.94
  Q 10.38 48.01 10.22 47.99
  Q 10.11 47.98 10.01 47.89
  C 6.08 44.41 3.28 40.95 2.75 35.77
  Q 3.00 35.80 3.11 36.00
  Q 3.12 36.02 3.13 36.00
  L 3.30 35.44
  Z"
/>
<path fill="#1a1a1a" d="
  M 19.60 40.93
  Q 21.19 43.52 21.14 46.78
  Q 19.76 45.74 18.99 44.07
  C 18.52 43.04 18.90 41.70 19.60 40.93
  Z"
/>
<path fill="#1a1a1a" d="
  M 11.07 45.47
  Q 10.30 44.09 10.17 42.17
  Q 13.27 43.48 11.07 45.47
  Z"
/>
<path fill="#1a1a1a" d="
  M 23.00 47.17
  Q 22.74 47.59 22.95 47.95
  L 22.46 48.09
  Q 22.30 47.96 22.06 48.01
  L 22.11 46.93
  Q 22.14 46.28 22.65 46.69
  Q 22.84 46.83 23.00 47.17
  Z"
/>
<path fill="#898989" d="
  M 22.46 48.09
  L 22.95 47.95
  L 25.40 53.42
  Q 25.52 53.66 25.25 53.73
  L 24.89 53.82
  A 0.26 0.26 0.0 0 1 24.58 53.66
  L 22.46 48.09
  Z"
/>
</svg>
