<?xml version="1.0" encoding="UTF-8" standalone="no"?>
<!DOCTYPE svg PUBLIC "-//W3C//DTD SVG 1.1//EN" "http://www.w3.org/Graphics/SVG/1.1/DTD/svg11.dtd">
<svg xmlns="http://www.w3.org/2000/svg" version="1.1" viewBox="0.00 0.00 197.00 256.00">
<g stroke-width="2.00" fill="none" stroke-linecap="butt">
<path stroke="#c0b27f" vector-effect="non-scaling-stroke" d="
  M 180.12 7.25
  Q 180.03 7.68 179.17 7.67"
/>
<path stroke="#ffdb41" vector-effect="non-scaling-stroke" d="
  M 179.17 7.67
  Q 172.99 5.34 168.00 5.36
  Q 97.63 5.66 27.25 5.46
  Q 23.94 5.45 19.01 7.64
  Q 18.59 7.82 17.95 7.51"
/>
<path stroke="#bfa63e" vector-effect="non-scaling-stroke" d="
  M 179.17 7.67
  Q 179.54 7.66 179.64 8.05
  Q 179.71 8.33 179.96 8.49
  C 184.14 11.21 187.76 14.63 189.92 19.25
  Q 191.62 22.89 191.87 24.76
  C 192.79 31.54 192.23 43.73 192.23 49.49
  Q 192.15 133.33 191.98 217.17
  C 191.96 229.92 192.33 236.97 183.60 244.83
  Q 177.13 250.65 170.51 250.77
  C 133.20 251.48 91.22 251.15 29.00 251.08
  Q 17.58 251.07 10.27 241.53
  Q 9.82 240.94 8.91 240.73"
/>
<path stroke="#ffdb41" vector-effect="non-scaling-stroke" d="
  M 8.91 240.73
  Q 5.33 233.38 5.33 227.88
  Q 5.41 131.33 5.35 34.78
  C 5.34 23.53 6.34 16.49 15.11 10.15
  Q 16.15 9.40 15.73 8.62"
/>
<path stroke="#bebcb9" vector-effect="non-scaling-stroke" d="
  M 183.38 9.12
  Q 184.25 10.56 186.15 11.11
  A 1.05 1.02 -2.8 0 1 186.82 11.70
  Q 187.60 13.53 189.35 14.50
  Q 189.48 14.58 189.53 14.67
  Q 189.62 14.82 189.63 14.99
  Q 189.66 15.33 189.86 15.62
  Q 195.04 23.04 194.96 32.25
  Q 194.62 76.87 194.96 121.49
  C 195.20 153.91 194.83 186.33 195.02 218.75
  Q 195.06 225.28 194.89 231.80
  C 194.87 232.75 194.33 233.55 194.19 234.50
  C 193.51 239.25 191.27 243.30 187.95 246.65
  C 186.29 248.32 184.25 249.55 182.21 250.91
  Q 180.01 252.37 177.38 253.00
  Q 174.82 253.61 172.18 254.24"
/>
<path stroke="#bebcb9" vector-effect="non-scaling-stroke" d="
  M 169.47 254.45
  L 169.25 254.24
  Q 169.07 254.06 168.82 254.06
  Q 104.85 253.91 40.87 253.99
  C 36.66 253.99 31.32 254.32 26.38 253.71
  C 20.24 252.95 14.13 248.85 10.80 243.67"
/>
<path stroke="#c0b27f" vector-effect="non-scaling-stroke" d="
  M 10.80 243.67
  Q 9.53 242.23 8.91 240.73"
/>
<path stroke="#fdf1bc" vector-effect="non-scaling-stroke" d="
  M 10.80 243.67
  Q 9.76 243.75 10.33 244.01"
/>
<path stroke="#ffd629" vector-effect="non-scaling-stroke" d="
  M 9.75 97.19
  L 9.77 165.54"
/>
<path stroke="#ffd41e" vector-effect="non-scaling-stroke" d="
  M 9.77 165.54
  Q 9.71 178.28 9.37 190.47
  C 9.32 192.25 10.27 193.80 10.39 195.71
  A 0.18 0.18 0.0 0 0 10.73 195.78
  Q 10.82 195.61 10.92 195.43
  Q 11.08 195.15 11.31 195.38
  Q 11.54 195.60 11.62 195.99
  Q 11.88 197.15 13.01 197.12
  A 1.00 1.00 0.0 0 0 13.68 196.84
  Q 14.91 195.66 16.80 194.57
  Q 23.06 190.95 29.13 188.92
  Q 31.74 188.05 32.16 184.82
  A 0.73 0.72 -2.9 0 1 32.73 184.20
  C 35.59 183.63 37.23 181.91 39.05 179.87
  Q 40.98 177.70 42.78 176.55
  Q 44.96 175.14 47.12 173.73
  C 47.97 173.17 48.20 172.14 49.20 171.53
  C 51.28 170.27 52.73 169.04 55.13 168.03
  C 57.34 167.10 59.09 165.69 61.55 164.02
  C 63.41 162.76 64.54 160.39 66.87 159.80
  A 1.28 1.27 -71.8 0 0 67.34 159.56
  L 71.43 155.96
  A 1.12 1.09 -12.8 0 0 71.74 155.48
  Q 72.56 152.93 74.48 152.26
  Q 77.58 151.17 79.39 149.31
  Q 81.96 146.65 82.32 146.39
  C 84.88 144.60 87.62 143.67 89.92 141.53
  C 92.29 139.31 95.40 137.23 97.56 135.42
  Q 100.22 133.18 103.14 131.25
  Q 103.55 130.98 103.76 130.54
  C 105.71 126.48 110.73 128.39 112.58 122.94
  Q 112.76 122.40 113.28 122.14
  L 119.34 119.07
  A 0.69 0.69 0.0 0 0 119.63 118.78
  Q 121.03 116.10 122.26 115.04
  Q 124.38 113.25 128.01 111.91
  C 129.97 111.19 130.77 109.70 132.14 108.90
  Q 135.33 107.04 136.38 105.38
  Q 136.85 104.62 138.46 104.02
  C 140.56 103.23 141.91 101.90 143.39 100.37
  Q 143.74 100.01 143.85 99.52
  C 144.38 97.19 147.02 95.95 149.14 95.57
  A 1.31 1.25 12.8 0 0 149.90 95.12
  Q 150.50 94.37 151.31 93.91
  Q 151.75 93.66 151.80 93.15
  Q 151.89 92.27 152.25 91.49
  Q 152.47 91.00 152.97 90.80
  C 154.91 90.02 156.14 88.78 158.16 88.27
  Q 163.25 86.97 167.41 83.65
  Q 167.90 83.26 167.85 82.65
  Q 167.78 81.52 168.44 80.56
  A 1.21 1.16 -75.0 0 1 169.27 80.06
  L 172.54 79.65
  Q 173.09 79.58 173.44 79.14
  L 175.42 76.55
  Q 175.73 76.15 175.77 75.64
  C 176.20 71.13 180.21 72.43 182.13 69.07
  Q 182.34 68.69 182.78 68.68
  Q 183.06 68.67 183.29 68.54
  Q 183.61 68.37 183.74 67.83
  Q 184.12 66.25 184.43 64.60
  Q 184.53 64.12 185.01 64.12
  L 186.06 64.12
  Q 186.61 64.12 186.63 63.57
  L 186.94 57.75
  Q 186.95 57.62 187.00 57.62
  Q 187.12 57.62 187.25 57.62
  Q 187.28 57.62 187.29 57.43
  Q 188.16 41.80 186.79 26.59"
/>
<path stroke="#ffd629" vector-effect="non-scaling-stroke" d="
  M 186.79 26.59
  Q 184.84 21.95 184.14 20.83
  Q 177.49 10.22 164.24 9.82
  Q 155.25 9.55 122.78 9.83"
/>
<path stroke="#ffdb41" vector-effect="non-scaling-stroke" d="
  M 122.78 9.83
  Q 80.23 9.87 37.67 9.75
  Q 29.16 9.73 25.01 11.12
  Q 14.60 14.60 11.02 25.09
  Q 9.71 28.97 9.72 36.09
  Q 9.77 66.66 9.75 97.19"
/>
<path stroke="#ffe36a" vector-effect="non-scaling-stroke" d="
  M 122.78 9.83
  Q 123.68 10.32 124.37 10.35
  Q 124.68 10.36 124.48 10.59
  Q 124.29 10.82 123.90 10.83
  A 0.14 0.14 0.0 0 0 123.76 10.97
  Q 123.76 11.13 123.76 11.29
  Q 123.77 11.50 123.63 11.66
  Q 121.98 13.57 119.77 14.78
  Q 119.25 15.06 118.64 15.95
  Q 118.37 16.35 117.89 16.41
  C 113.33 16.94 113.70 21.24 110.88 23.83
  C 108.29 26.21 105.90 27.42 104.08 29.57
  C 102.40 31.56 101.57 32.28 99.05 31.85
  Q 98.43 31.75 98.45 32.37
  Q 98.48 33.46 97.62 34.08
  Q 96.06 35.19 95.29 36.94
  Q 95.21 37.11 95.04 37.03
  Q 94.90 36.96 94.76 36.89
  Q 94.54 36.78 94.44 37.00
  Q 93.86 38.24 92.54 38.39
  Q 92.04 38.44 91.91 38.94
  Q 91.72 39.66 91.19 39.58
  Q 90.61 39.48 90.15 39.85
  Q 83.11 45.47 75.97 50.96
  Q 74.85 51.82 74.11 53.03
  Q 73.85 53.46 73.39 53.65
  C 72.78 53.91 72.31 53.94 71.78 54.34
  C 65.69 58.81 59.53 63.07 53.58 67.77
  Q 49.18 71.26 44.72 74.68
  C 42.39 76.47 39.07 79.81 35.59 81.63
  A 2.49 2.49 0.0 0 0 34.34 83.20
  C 33.61 85.96 29.87 87.26 27.55 88.41
  Q 25.11 89.62 23.27 91.10
  Q 17.95 95.38 15.62 96.61
  Q 12.09 98.47 10.56 100.33
  Q 9.98 100.50 10.06 101.08
  Q 10.16 101.81 9.98 101.12
  C 9.63 99.68 10.36 98.74 9.75 97.19"
/>
<path stroke="#ffdc47" vector-effect="non-scaling-stroke" d="
  M 186.79 26.59
  L 186.94 31.38
  Q 186.95 31.88 186.45 31.88
  L 184.62 31.88
  A 0.62 0.62 0.0 0 0 184.01 32.38
  L 183.30 35.75
  Q 183.25 36.00 183.00 36.05
  L 182.74 36.11
  Q 182.25 36.21 181.90 36.56
  L 179.44 39.01
  Q 179.09 39.37 178.58 39.37
  Q 173.33 39.33 169.86 43.18
  Q 169.52 43.56 169.55 44.06
  Q 169.59 44.66 169.12 45.00
  Q 168.14 45.73 167.78 46.31
  C 166.54 48.35 164.85 48.14 163.48 49.33
  C 160.74 51.71 159.87 55.03 156.07 56.49
  C 153.99 57.29 152.39 59.36 150.48 60.55
  C 146.47 63.05 142.43 65.53 138.71 68.44
  Q 131.74 73.89 124.98 79.61
  Q 121.28 82.74 111.45 89.31
  C 108.40 91.35 105.49 94.21 102.28 96.43
  C 101.79 96.76 101.78 97.07 101.33 97.44
  Q 93.10 104.20 84.72 110.77
  C 83.48 111.74 81.77 112.46 80.61 113.35
  Q 78.50 114.98 74.69 118.29
  C 72.47 120.22 69.65 121.72 67.50 123.50
  Q 60.85 129.01 54.16 134.46
  C 52.34 135.95 50.06 137.08 48.09 138.58
  Q 45.69 140.41 43.10 141.97
  C 41.30 143.06 37.73 144.41 35.76 146.26
  Q 31.82 149.94 28.19 151.84
  Q 27.71 152.10 27.40 152.55
  Q 26.61 153.74 25.15 153.94
  A 1.14 1.11 -66.7 0 0 24.64 154.15
  L 9.77 165.54"
/>
</g>
<path fill="#ffe782" d="
  M 21.47 1.90
  L 23.45 2.23
  Q 23.70 2.27 23.63 2.52
  L 23.53 2.84
  Q 23.50 2.95 23.40 2.91
  Q 21.41 2.07 19.27 1.88
  A 0.21 0.21 0.0 0 1 19.20 1.48
  Q 20.20 1.02 21.07 1.72
  A 0.94 0.90 68.0 0 0 21.47 1.90
  Z"
/>
<path fill="#ffe782" d="
  M 181.27 2.59
  A 0.31 0.31 0.0 0 1 180.87 2.30
  Q 180.87 1.92 181.25 1.68
  Q 181.53 1.51 181.78 1.64
  Q 181.95 1.71 182.04 1.86
  A 0.37 0.37 0.0 0 1 181.85 2.40
  L 181.27 2.59
  Z"
/>
<path fill="#ffe782" d="
  M 183.01 2.33
  A 0.28 0.27 -61.7 0 1 182.90 1.94
  Q 183.27 1.29 183.81 1.61
  A 0.59 0.43 64.7 0 1 183.62 2.63
  L 183.01 2.33
  Z"
/>
<path fill="#ffe782" d="
  M 180.12 7.25
  Q 180.03 7.68 179.17 7.67
  Q 172.99 5.34 168.00 5.36
  Q 97.63 5.66 27.25 5.46
  Q 23.94 5.45 19.01 7.64
  Q 18.59 7.82 17.95 7.51
  L 16.10 6.51
  A 0.45 0.43 -67.1 0 1 15.90 5.99
  L 16.00 5.67
  Q 16.13 5.27 16.53 5.41
  L 18.03 5.97
  Q 18.54 6.16 19.05 6.00
  Q 25.48 4.03 34.50 4.02
  Q 97.50 3.97 160.50 4.22
  C 167.63 4.25 173.53 3.68 180.12 7.25
  Z"
/>
<path fill="#fece00" d="
  M 179.17 7.67
  Q 179.54 7.66 179.64 8.05
  Q 179.71 8.33 179.96 8.49
  C 184.14 11.21 187.76 14.63 189.92 19.25
  Q 191.62 22.89 191.87 24.76
  C 192.79 31.54 192.23 43.73 192.23 49.49
  Q 192.15 133.33 191.98 217.17
  C 191.96 229.92 192.33 236.97 183.60 244.83
  Q 177.13 250.65 170.51 250.77
  C 133.20 251.48 91.22 251.15 29.00 251.08
  Q 17.58 251.07 10.27 241.53
  Q 9.82 240.94 8.91 240.73
  Q 5.33 233.38 5.33 227.88
  Q 5.41 131.33 5.35 34.78
  C 5.34 23.53 6.34 16.49 15.11 10.15
  Q 16.15 9.40 15.73 8.62
  L 17.95 7.51
  Q 18.59 7.82 19.01 7.64
  Q 23.94 5.45 27.25 5.46
  Q 97.63 5.66 168.00 5.36
  Q 172.99 5.34 179.17 7.67
  Z
  M 9.75 97.19
  L 9.77 165.54
  Q 9.71 178.28 9.37 190.47
  C 9.32 192.25 10.27 193.80 10.39 195.71
  A 0.18 0.18 0.0 0 0 10.73 195.78
  Q 10.82 195.61 10.92 195.43
  Q 11.08 195.15 11.31 195.38
  Q 11.54 195.60 11.62 195.99
  Q 11.88 197.15 13.01 197.12
  A 1.00 1.00 0.0 0 0 13.68 196.84
  Q 14.91 195.66 16.80 194.57
  Q 23.06 190.95 29.13 188.92
  Q 31.74 188.05 32.16 184.82
  A 0.73 0.72 -2.9 0 1 32.73 184.20
  C 35.59 183.63 37.23 181.91 39.05 179.87
  Q 40.98 177.70 42.78 176.55
  Q 44.96 175.14 47.12 173.73
  C 47.97 173.17 48.20 172.14 49.20 171.53
  C 51.28 170.27 52.73 169.04 55.13 168.03
  C 57.34 167.10 59.09 165.69 61.55 164.02
  C 63.41 162.76 64.54 160.39 66.87 159.80
  A 1.28 1.27 -71.8 0 0 67.34 159.56
  L 71.43 155.96
  A 1.12 1.09 -12.8 0 0 71.74 155.48
  Q 72.56 152.93 74.48 152.26
  Q 77.58 151.17 79.39 149.31
  Q 81.96 146.65 82.32 146.39
  C 84.88 144.60 87.62 143.67 89.92 141.53
  C 92.29 139.31 95.40 137.23 97.56 135.42
  Q 100.22 133.18 103.14 131.25
  Q 103.55 130.98 103.76 130.54
  C 105.71 126.48 110.73 128.39 112.58 122.94
  Q 112.76 122.40 113.28 122.14
  L 119.34 119.07
  A 0.69 0.69 0.0 0 0 119.63 118.78
  Q 121.03 116.10 122.26 115.04
  Q 124.38 113.25 128.01 111.91
  C 129.97 111.19 130.77 109.70 132.14 108.90
  Q 135.33 107.04 136.38 105.38
  Q 136.85 104.62 138.46 104.02
  C 140.56 103.23 141.91 101.90 143.39 100.37
  Q 143.74 100.01 143.85 99.52
  C 144.38 97.19 147.02 95.95 149.14 95.57
  A 1.31 1.25 12.8 0 0 149.90 95.12
  Q 150.50 94.37 151.31 93.91
  Q 151.75 93.66 151.80 93.15
  Q 151.89 92.27 152.25 91.49
  Q 152.47 91.00 152.97 90.80
  C 154.91 90.02 156.14 88.78 158.16 88.27
  Q 163.25 86.97 167.41 83.65
  Q 167.90 83.26 167.85 82.65
  Q 167.78 81.52 168.44 80.56
  A 1.21 1.16 -75.0 0 1 169.27 80.06
  L 172.54 79.65
  Q 173.09 79.58 173.44 79.14
  L 175.42 76.55
  Q 175.73 76.15 175.77 75.64
  C 176.20 71.13 180.21 72.43 182.13 69.07
  Q 182.34 68.69 182.78 68.68
  Q 183.06 68.67 183.29 68.54
  Q 183.61 68.37 183.74 67.83
  Q 184.12 66.25 184.43 64.60
  Q 184.53 64.12 185.01 64.12
  L 186.06 64.12
  Q 186.61 64.12 186.63 63.57
  L 186.94 57.75
  Q 186.95 57.62 187.00 57.62
  Q 187.12 57.62 187.25 57.62
  Q 187.28 57.62 187.29 57.43
  Q 188.16 41.80 186.79 26.59
  Q 184.84 21.95 184.14 20.83
  Q 177.49 10.22 164.24 9.82
  Q 155.25 9.55 122.78 9.83
  Q 80.23 9.87 37.67 9.75
  Q 29.16 9.73 25.01 11.12
  Q 14.60 14.60 11.02 25.09
  Q 9.71 28.97 9.72 36.09
  Q 9.77 66.66 9.75 97.19
  Z"
/>
<ellipse fill="#fbfbf6" cx="0.00" cy="0.00" transform="translate(183.47,6.07) rotate(71.5)" rx="0.71" ry="0.44"/>
<path fill="#807d7c" d="
  M 180.12 7.25
  L 183.38 9.12
  Q 184.25 10.56 186.15 11.11
  A 1.05 1.02 -2.8 0 1 186.82 11.70
  Q 187.60 13.53 189.35 14.50
  Q 189.48 14.58 189.53 14.67
  Q 189.62 14.82 189.63 14.99
  Q 189.66 15.33 189.86 15.62
  Q 195.04 23.04 194.96 32.25
  Q 194.62 76.87 194.96 121.49
  C 195.20 153.91 194.83 186.33 195.02 218.75
  Q 195.06 225.28 194.89 231.80
  C 194.87 232.75 194.33 233.55 194.19 234.50
  C 193.51 239.25 191.27 243.30 187.95 246.65
  C 186.29 248.32 184.25 249.55 182.21 250.91
  Q 180.01 252.37 177.38 253.00
  Q 174.82 253.61 172.18 254.24
  Q 171.10 254.70 169.47 254.45
  L 169.25 254.24
  Q 169.07 254.06 168.82 254.06
  Q 104.85 253.91 40.87 253.99
  C 36.66 253.99 31.32 254.32 26.38 253.71
  C 20.24 252.95 14.13 248.85 10.80 243.67
  Q 9.53 242.23 8.91 240.73
  Q 9.82 240.94 10.27 241.53
  Q 17.58 251.07 29.00 251.08
  C 91.22 251.15 133.20 251.48 170.51 250.77
  Q 177.13 250.65 183.60 244.83
  C 192.33 236.97 191.96 229.92 191.98 217.17
  Q 192.15 133.33 192.23 49.49
  C 192.23 43.73 192.79 31.54 191.87 24.76
  Q 191.62 22.89 189.92 19.25
  C 187.76 14.63 184.14 11.21 179.96 8.49
  Q 179.71 8.33 179.64 8.05
  Q 179.54 7.66 179.17 7.67
  Q 180.03 7.68 180.12 7.25
  Z"
/>
<path fill="#fbfbf6" d="
  M 190.97 10.51
  Q 191.38 10.86 191.49 11.30
  Q 191.59 11.65 191.35 12.16
  Q 190.82 13.29 190.15 14.40
  Q 189.90 14.83 190.20 15.22
  C 197.00 23.99 196.49 34.86 196.30 45.88
  C 195.29 102.82 196.00 159.92 196.00 216.89
  Q 196.00 222.75 195.77 226.61
  C 195.37 232.95 194.50 236.48 192.58 241.20
  C 191.61 243.60 188.34 247.71 186.17 249.26
  Q 183.82 250.95 181.24 252.31
  Q 180.50 252.70 181.31 252.89
  Q 182.22 253.11 183.17 252.99
  Q 183.43 252.95 183.55 253.18
  L 183.69 253.44
  A 0.24 0.24 0.0 0 1 183.55 253.79
  Q 181.74 254.30 180.02 253.48
  A 1.55 1.51 -35.0 0 0 179.15 253.34
  L 172.18 254.24
  Q 174.82 253.61 177.38 253.00
  Q 180.01 252.37 182.21 250.91
  C 184.25 249.55 186.29 248.32 187.95 246.65
  C 191.27 243.30 193.51 239.25 194.19 234.50
  C 194.33 233.55 194.87 232.75 194.89 231.80
  Q 195.06 225.28 195.02 218.75
  C 194.83 186.33 195.20 153.91 194.96 121.49
  Q 194.62 76.87 194.96 32.25
  Q 195.04 23.04 189.86 15.62
  Q 189.66 15.33 189.63 14.99
  Q 189.62 14.82 189.53 14.67
  Q 189.48 14.58 189.35 14.50
  Q 187.60 13.53 186.82 11.70
  A 1.05 1.02 -2.8 0 0 186.15 11.11
  Q 184.25 10.56 183.38 9.12
  Q 184.48 9.20 185.54 9.82
  A 0.51 0.51 0.0 0 0 186.27 9.56
  Q 186.59 8.74 187.26 8.28
  Q 188.06 7.73 187.64 8.60
  Q 186.93 10.04 188.20 10.95
  Q 188.67 11.28 188.52 11.83
  Q 188.20 12.94 189.12 13.71
  Q 189.54 14.06 189.97 13.74
  Q 191.43 12.66 190.97 10.51
  Z"
/>
<path fill="#fbfbf6" d="
  M 190.97 10.51
  Q 190.16 9.67 189.99 8.72
  A 0.34 0.34 0.0 0 1 190.60 8.45
  Q 191.03 9.00 190.97 10.51
  Z"
/>
<path fill="#ffe782" d="
  M 15.73 8.62
  Q 16.15 9.40 15.11 10.15
  C 6.34 16.49 5.34 23.53 5.35 34.78
  Q 5.41 131.33 5.33 227.88
  Q 5.33 233.38 8.91 240.73
  Q 9.53 242.23 10.80 243.67
  Q 9.76 243.75 10.33 244.01
  Q 9.63 243.17 8.54 242.77
  A 0.80 0.79 11.3 0 1 8.02 242.00
  Q 8.06 240.19 6.68 239.03
  Q 6.27 238.68 6.14 238.16
  C 5.04 233.46 4.00 229.17 4.00 224.26
  Q 4.01 126.25 3.99 28.25
  Q 3.99 25.66 6.00 19.10
  A 2.33 0.70 76.0 0 0 6.05 18.00
  Q 5.96 17.19 5.36 16.63
  A 0.16 0.16 0.0 0 1 5.49 16.36
  Q 5.91 16.42 6.24 16.77
  A 1.13 1.13 0.0 0 0 8.05 16.54
  Q 10.84 11.42 15.73 8.62
  Z"
/>
<path fill="#ffe782" d="
  M 122.78 9.83
  Q 123.68 10.32 124.37 10.35
  Q 124.68 10.36 124.48 10.59
  Q 124.29 10.82 123.90 10.83
  A 0.14 0.14 0.0 0 0 123.76 10.97
  Q 123.76 11.13 123.76 11.29
  Q 123.77 11.50 123.63 11.66
  Q 121.98 13.57 119.77 14.78
  Q 119.25 15.06 118.64 15.95
  Q 118.37 16.35 117.89 16.41
  C 113.33 16.94 113.70 21.24 110.88 23.83
  C 108.29 26.21 105.90 27.42 104.08 29.57
  C 102.40 31.56 101.57 32.28 99.05 31.85
  Q 98.43 31.75 98.45 32.37
  Q 98.48 33.46 97.62 34.08
  Q 96.06 35.19 95.29 36.94
  Q 95.21 37.11 95.04 37.03
  Q 94.90 36.96 94.76 36.89
  Q 94.54 36.78 94.44 37.00
  Q 93.86 38.24 92.54 38.39
  Q 92.04 38.44 91.91 38.94
  Q 91.72 39.66 91.19 39.58
  Q 90.61 39.48 90.15 39.85
  Q 83.11 45.47 75.97 50.96
  Q 74.85 51.82 74.11 53.03
  Q 73.85 53.46 73.39 53.65
  C 72.78 53.91 72.31 53.94 71.78 54.34
  C 65.69 58.81 59.53 63.07 53.58 67.77
  Q 49.18 71.26 44.72 74.68
  C 42.39 76.47 39.07 79.81 35.59 81.63
  A 2.49 2.49 0.0 0 0 34.34 83.20
  C 33.61 85.96 29.87 87.26 27.55 88.41
  Q 25.11 89.62 23.27 91.10
  Q 17.95 95.38 15.62 96.61
  Q 12.09 98.47 10.56 100.33
  Q 9.98 100.50 10.06 101.08
  Q 10.16 101.81 9.98 101.12
  C 9.63 99.68 10.36 98.74 9.75 97.19
  Q 9.77 66.66 9.72 36.09
  Q 9.71 28.97 11.02 25.09
  Q 14.60 14.60 25.01 11.12
  Q 29.16 9.73 37.67 9.75
  Q 80.23 9.87 122.78 9.83
  Z"
/>
<path fill="#ffde52" d="
  M 122.78 9.83
  Q 155.25 9.55 164.24 9.82
  Q 177.49 10.22 184.14 20.83
  Q 184.84 21.95 186.79 26.59
  L 186.94 31.38
  Q 186.95 31.88 186.45 31.88
  L 184.62 31.88
  A 0.62 0.62 0.0 0 0 184.01 32.38
  L 183.30 35.75
  Q 183.25 36.00 183.00 36.05
  L 182.74 36.11
  Q 182.25 36.21 181.90 36.56
  L 179.44 39.01
  Q 179.09 39.37 178.58 39.37
  Q 173.33 39.33 169.86 43.18
  Q 169.52 43.56 169.55 44.06
  Q 169.59 44.66 169.12 45.00
  Q 168.14 45.73 167.78 46.31
  C 166.54 48.35 164.85 48.14 163.48 49.33
  C 160.74 51.71 159.87 55.03 156.07 56.49
  C 153.99 57.29 152.39 59.36 150.48 60.55
  C 146.47 63.05 142.43 65.53 138.71 68.44
  Q 131.74 73.89 124.98 79.61
  Q 121.28 82.74 111.45 89.31
  C 108.40 91.35 105.49 94.21 102.28 96.43
  C 101.79 96.76 101.78 97.07 101.33 97.44
  Q 93.10 104.20 84.72 110.77
  C 83.48 111.74 81.77 112.46 80.61 113.35
  Q 78.50 114.98 74.69 118.29
  C 72.47 120.22 69.65 121.72 67.50 123.50
  Q 60.85 129.01 54.16 134.46
  C 52.34 135.95 50.06 137.08 48.09 138.58
  Q 45.69 140.41 43.10 141.97
  C 41.30 143.06 37.73 144.41 35.76 146.26
  Q 31.82 149.94 28.19 151.84
  Q 27.71 152.10 27.40 152.55
  Q 26.61 153.74 25.15 153.94
  A 1.14 1.11 -66.7 0 0 24.64 154.15
  L 9.77 165.54
  L 9.75 97.19
  C 10.36 98.74 9.63 99.68 9.98 101.12
  Q 10.16 101.81 10.06 101.08
  Q 9.98 100.50 10.56 100.33
  Q 12.09 98.47 15.62 96.61
  Q 17.95 95.38 23.27 91.10
  Q 25.11 89.62 27.55 88.41
  C 29.87 87.26 33.61 85.96 34.34 83.20
  A 2.49 2.49 0.0 0 1 35.59 81.63
  C 39.07 79.81 42.39 76.47 44.72 74.68
  Q 49.18 71.26 53.58 67.77
  C 59.53 63.07 65.69 58.81 71.78 54.34
  C 72.31 53.94 72.78 53.91 73.39 53.65
  Q 73.85 53.46 74.11 53.03
  Q 74.85 51.82 75.97 50.96
  Q 83.11 45.47 90.15 39.85
  Q 90.61 39.48 91.19 39.58
  Q 91.72 39.66 91.91 38.94
  Q 92.04 38.44 92.54 38.39
  Q 93.86 38.24 94.44 37.00
  Q 94.54 36.78 94.76 36.89
  Q 94.90 36.96 95.04 37.03
  Q 95.21 37.11 95.29 36.94
  Q 96.06 35.19 97.62 34.08
  Q 98.48 33.46 98.45 32.37
  Q 98.43 31.75 99.05 31.85
  C 101.57 32.28 102.40 31.56 104.08 29.57
  C 105.90 27.42 108.29 26.21 110.88 23.83
  C 113.70 21.24 113.33 16.94 117.89 16.41
  Q 118.37 16.35 118.64 15.95
  Q 119.25 15.06 119.77 14.78
  Q 121.98 13.57 123.63 11.66
  Q 123.77 11.50 123.76 11.29
  Q 123.76 11.13 123.76 10.97
  A 0.14 0.14 0.0 0 1 123.90 10.83
  Q 124.29 10.82 124.48 10.59
  Q 124.68 10.36 124.37 10.35
  Q 123.68 10.32 122.78 9.83
  Z"
/>
<path fill="#ffe782" d="
  M 10.01 11.16
  L 10.45 11.31
  A 0.35 0.35 0.0 0 1 10.48 11.96
  Q 10.35 12.02 10.24 12.08
  Q 9.83 12.29 9.56 11.92
  Q 9.37 11.66 9.53 11.36
  A 0.41 0.40 -67.2 0 1 10.01 11.16
  Z"
/>
<path fill="#ffd93b" d="
  M 186.79 26.59
  Q 188.16 41.80 187.29 57.43
  Q 187.28 57.62 187.25 57.62
  Q 187.12 57.62 187.00 57.62
  Q 186.95 57.62 186.94 57.75
  L 186.63 63.57
  Q 186.61 64.12 186.06 64.12
  L 185.01 64.12
  Q 184.53 64.12 184.43 64.60
  Q 184.12 66.25 183.74 67.83
  Q 183.61 68.37 183.29 68.54
  Q 183.06 68.67 182.78 68.68
  Q 182.34 68.69 182.13 69.07
  C 180.21 72.43 176.20 71.13 175.77 75.64
  Q 175.73 76.15 175.42 76.55
  L 173.44 79.14
  Q 173.09 79.58 172.54 79.65
  L 169.27 80.06
  A 1.21 1.16 -75.0 0 0 168.44 80.56
  Q 167.78 81.52 167.85 82.65
  Q 167.90 83.26 167.41 83.65
  Q 163.25 86.97 158.16 88.27
  C 156.14 88.78 154.91 90.02 152.97 90.80
  Q 152.47 91.00 152.25 91.49
  Q 151.89 92.27 151.80 93.15
  Q 151.75 93.66 151.31 93.91
  Q 150.50 94.37 149.90 95.12
  A 1.31 1.25 12.8 0 1 149.14 95.57
  C 147.02 95.95 144.38 97.19 143.85 99.52
  Q 143.74 100.01 143.39 100.37
  C 141.91 101.90 140.56 103.23 138.46 104.02
  Q 136.85 104.62 136.38 105.38
  Q 135.33 107.04 132.14 108.90
  C 130.77 109.70 129.97 111.19 128.01 111.91
  Q 124.38 113.25 122.26 115.04
  Q 121.03 116.10 119.63 118.78
  A 0.69 0.69 0.0 0 1 119.34 119.07
  L 113.28 122.14
  Q 112.76 122.40 112.58 122.94
  C 110.73 128.39 105.71 126.48 103.76 130.54
  Q 103.55 130.98 103.14 131.25
  Q 100.22 133.18 97.56 135.42
  C 95.40 137.23 92.29 139.31 89.92 141.53
  C 87.62 143.67 84.88 144.60 82.32 146.39
  Q 81.96 146.65 79.39 149.31
  Q 77.58 151.17 74.48 152.26
  Q 72.56 152.93 71.74 155.48
  A 1.12 1.09 -12.8 0 1 71.43 155.96
  L 67.34 159.56
  A 1.28 1.27 -71.8 0 1 66.87 159.80
  C 64.54 160.39 63.41 162.76 61.55 164.02
  C 59.09 165.69 57.34 167.10 55.13 168.03
  C 52.73 169.04 51.28 170.27 49.20 171.53
  C 48.20 172.14 47.97 173.17 47.12 173.73
  Q 44.96 175.14 42.78 176.55
  Q 40.98 177.70 39.05 179.87
  C 37.23 181.91 35.59 183.63 32.73 184.20
  A 0.73 0.72 -2.9 0 0 32.16 184.82
  Q 31.74 188.05 29.13 188.92
  Q 23.06 190.95 16.80 194.57
  Q 14.91 195.66 13.68 196.84
  A 1.00 1.00 0.0 0 1 13.01 197.12
  Q 11.88 197.15 11.62 195.99
  Q 11.54 195.60 11.31 195.38
  Q 11.08 195.15 10.92 195.43
  Q 10.82 195.61 10.73 195.78
  A 0.18 0.18 0.0 0 1 10.39 195.71
  C 10.27 193.80 9.32 192.25 9.37 190.47
  Q 9.71 178.28 9.77 165.54
  L 24.64 154.15
  A 1.14 1.11 -66.7 0 1 25.15 153.94
  Q 26.61 153.74 27.40 152.55
  Q 27.71 152.10 28.19 151.84
  Q 31.82 149.94 35.76 146.26
  C 37.73 144.41 41.30 143.06 43.10 141.97
  Q 45.69 140.41 48.09 138.58
  C 50.06 137.08 52.34 135.95 54.16 134.46
  Q 60.85 129.01 67.50 123.50
  C 69.65 121.72 72.47 120.22 74.69 118.29
  Q 78.50 114.98 80.61 113.35
  C 81.77 112.46 83.48 111.74 84.72 110.77
  Q 93.10 104.20 101.33 97.44
  C 101.78 97.07 101.79 96.76 102.28 96.43
  C 105.49 94.21 108.40 91.35 111.45 89.31
  Q 121.28 82.74 124.98 79.61
  Q 131.74 73.89 138.71 68.44
  C 142.43 65.53 146.47 63.05 150.48 60.55
  C 152.39 59.36 153.99 57.29 156.07 56.49
  C 159.87 55.03 160.74 51.71 163.48 49.33
  C 164.85 48.14 166.54 48.35 167.78 46.31
  Q 168.14 45.73 169.12 45.00
  Q 169.59 44.66 169.55 44.06
  Q 169.52 43.56 169.86 43.18
  Q 173.33 39.33 178.58 39.37
  Q 179.09 39.37 179.44 39.01
  L 181.90 36.56
  Q 182.25 36.21 182.74 36.11
  L 183.00 36.05
  Q 183.25 36.00 183.30 35.75
  L 184.01 32.38
  A 0.62 0.62 0.0 0 1 184.62 31.88
  L 186.45 31.88
  Q 186.95 31.88 186.94 31.38
  L 186.79 26.59
  Z"
/>
<path fill="#fbfbf6" d="
  M 10.80 243.67
  C 14.13 248.85 20.24 252.95 26.38 253.71
  C 31.32 254.32 36.66 253.99 40.87 253.99
  Q 104.85 253.91 168.82 254.06
  Q 169.07 254.06 169.25 254.24
  L 169.47 254.45
  Q 163.83 254.99 162.25 254.99
  Q 99.49 255.01 36.74 254.99
  Q 26.76 254.99 22.89 253.74
  Q 15.92 251.50 11.05 245.39
  Q 10.74 244.99 10.26 245.17
  Q 10.07 245.25 9.90 245.37
  Q 8.82 246.16 9.57 245.09
  L 10.33 244.01
  Q 9.76 243.75 10.80 243.67
  Z"
/>
<path fill="#ffe782" d="
  M 190.34 246.92
  A 0.40 0.40 0.0 0 1 190.53 247.65
  Q 190.07 247.98 189.46 247.97
  A 0.43 0.43 0.0 0 1 189.24 247.18
  Q 189.75 246.86 190.34 246.92
  Z"
/>
<path fill="#ffe782" d="
  M 19.35 254.14
  Q 20.06 253.94 20.66 254.41
  A 0.30 0.30 0.0 0 1 20.60 254.93
  Q 19.71 255.33 19.20 254.53
  A 0.26 0.26 0.0 0 1 19.35 254.14
  Z"
/>
</svg>
