<?xml version="1.0" encoding="UTF-8" standalone="no"?>
<!DOCTYPE svg PUBLIC "-//W3C//DTD SVG 1.1//EN" "http://www.w3.org/Graphics/SVG/1.1/DTD/svg11.dtd">
<svg xmlns="http://www.w3.org/2000/svg" version="1.1" viewBox="0.00 0.00 150.00 195.00">
<g stroke-width="2.00" fill="none" stroke-linecap="butt">
<path stroke="#ccced3" vector-effect="non-scaling-stroke" d="
  M 17.28 3.90
  Q 16.67 4.29 16.73 4.53"
/>
<path stroke="#6462dc" vector-effect="non-scaling-stroke" d="
  M 16.73 4.53
  C 10.77 7.41 6.72 10.77 4.44 17.19"
/>
<path stroke="#ccced3" vector-effect="non-scaling-stroke" d="
  M 4.44 17.19
  Q 4.10 17.28 3.86 17.54"
/>
<path stroke="#ccced3" vector-effect="non-scaling-stroke" d="
  M 138.45 5.62
  L 138.26 6.33
  Q 138.21 6.51 138.03 6.54
  Q 137.89 6.56 137.78 6.56"
/>
<path stroke="#686df5" vector-effect="non-scaling-stroke" d="
  M 137.78 6.56
  C 131.35 2.70 123.46 3.91 116.36 3.94
  Q 69.07 4.14 21.79 3.83
  C 20.01 3.82 18.48 4.26 16.73 4.53"
/>
<path stroke="#abaeb5" vector-effect="non-scaling-stroke" d="
  M 8.90 185.98
  L 11.58 189.24"
/>
<path stroke="#cbcdbd" vector-effect="non-scaling-stroke" d="
  M 11.58 189.24
  Q 10.90 189.30 10.88 189.47"
/>
<path stroke="#6462dc" vector-effect="non-scaling-stroke" d="
  M 137.78 6.56
  Q 142.48 9.41 144.99 14.72"
/>
<path stroke="#3739ca" vector-effect="non-scaling-stroke" d="
  M 144.99 14.72
  Q 146.12 17.94 146.11 19.75
  Q 145.91 96.45 146.03 173.16
  C 146.03 174.98 145.60 176.68 145.27 178.47"
/>
<path stroke="#4342bd" vector-effect="non-scaling-stroke" d="
  M 145.27 178.47
  Q 140.10 191.26 126.25 191.33
  Q 73.75 191.56 21.25 191.18
  C 15.70 191.13 13.25 188.23 8.90 185.98"
/>
<path stroke="#686df5" vector-effect="non-scaling-stroke" d="
  M 8.90 185.98
  Q 3.63 179.82 3.73 173.50
  Q 3.97 158.62 4.02 143.75
  Q 4.18 83.02 3.83 22.29
  C 3.82 20.53 4.33 18.99 4.44 17.19"
/>
<path stroke="#a6a29c" vector-effect="non-scaling-stroke" d="
  M 140.92 190.51
  Q 139.57 190.76 140.90 189.37
  C 141.70 188.53 142.96 188.27 143.63 187.38
  Q 145.76 184.59 147.28 180.26
  Q 148.53 176.68 148.28 171.11
  Q 147.90 162.49 147.90 162.36
  Q 147.90 94.73 147.88 27.10
  C 147.88 25.49 147.47 23.55 147.50 21.73"
/>
<path stroke="#9b9aa9" vector-effect="non-scaling-stroke" d="
  M 147.50 21.73
  Q 147.32 17.16 144.99 14.72"
/>
<path stroke="#a5a286" vector-effect="non-scaling-stroke" d="
  M 141.24 191.27
  Q 140.95 191.34 140.76 191.29"
/>
<path stroke="#a5a286" vector-effect="non-scaling-stroke" d="
  M 133.68 193.92
  Q 134.24 192.58 132.77 192.96
  Q 132.14 193.12 131.71 193.11
  Q 77.29 192.31 22.88 193.11
  C 21.50 193.13 19.94 192.36 18.40 192.35
  A 0.69 0.65 -30.5 0 1 18.10 192.28
  L 11.58 189.24"
/>
<path stroke="#7a7a8a" vector-effect="non-scaling-stroke" d="
  M 147.50 21.73
  Q 147.75 93.54 147.76 165.40
  C 147.76 167.36 146.83 169.44 147.17 171.76
  Q 147.29 172.60 146.84 173.27
  Q 146.57 173.67 146.62 174.15
  Q 146.89 177.06 145.27 178.47"
/>
<path stroke="#3838fe" vector-effect="non-scaling-stroke" d="
  M 7.51 47.52
  L 7.51 69.82"
/>
<path stroke="#3434fe" vector-effect="non-scaling-stroke" d="
  M 7.51 69.82
  L 7.52 80.96"
/>
<path stroke="#2f2ffe" vector-effect="non-scaling-stroke" d="
  M 7.52 80.96
  L 7.50 96.00"
/>
<path stroke="#2828fe" vector-effect="non-scaling-stroke" d="
  M 7.50 96.00
  L 7.51 119.99"
/>
<path stroke="#2221fe" vector-effect="non-scaling-stroke" d="
  M 7.51 119.99
  L 7.47 129.84"
/>
<path stroke="#1b1afe" vector-effect="non-scaling-stroke" d="
  M 7.47 129.84
  L 7.58 162.54"
/>
<path stroke="#0e0efe" vector-effect="non-scaling-stroke" d="
  M 7.58 162.54
  C 7.29 166.42 7.02 173.26 8.93 176.71
  C 10.25 179.11 12.45 185.26 16.59 184.33
  Q 16.98 184.24 17.28 184.51
  Q 17.87 185.05 18.46 184.45
  Q 19.70 183.17 20.86 182.69
  Q 21.33 182.50 21.66 182.13
  Q 25.74 177.62 28.02 176.42
  Q 30.07 175.34 31.32 174.29
  Q 34.09 171.94 34.27 171.83
  Q 40.33 167.83 45.74 162.99
  A 1.48 1.48 0.0 0 1 46.72 162.62
  L 47.21 162.62
  Q 47.74 162.62 48.14 162.28
  C 49.66 160.99 51.22 159.95 52.60 158.52
  Q 56.19 154.79 58.63 153.13
  Q 66.26 147.93 73.42 142.09
  Q 73.91 141.69 77.49 139.12
  C 79.13 137.95 80.94 135.50 82.70 134.84
  Q 83.21 134.65 83.59 134.26
  L 87.15 130.55
  Q 87.56 130.12 88.15 130.12
  L 89.50 130.12
  Q 90.12 130.12 90.12 129.50
  L 90.12 129.03
  Q 90.12 128.46 90.58 128.11
  Q 94.04 125.50 97.58 122.98
  Q 99.39 121.70 103.87 117.87
  Q 106.90 115.28 115.23 109.80
  A 0.19 0.19 0.0 0 0 115.26 109.51
  L 115.00 109.26
  Q 114.77 109.02 115.09 109.10
  Q 115.76 109.25 115.86 108.75
  Q 115.95 108.36 116.26 108.10
  Q 118.83 105.90 121.80 104.32
  C 124.95 102.63 127.74 99.98 130.48 97.33
  C 132.35 95.52 134.66 94.11 136.30 92.12
  Q 137.41 90.77 138.53 89.42
  Q 138.85 89.03 139.32 88.87
  Q 141.93 87.95 142.13 86.00
  Q 143.14 76.27 142.32 57.28"
/>
<path stroke="#1b1afe" vector-effect="non-scaling-stroke" d="
  M 142.32 57.28
  L 142.48 30.10"
/>
<path stroke="#2221fe" vector-effect="non-scaling-stroke" d="
  M 142.48 30.10
  Q 143.00 23.25 140.90 17.43"
/>
<path stroke="#2828fe" vector-effect="non-scaling-stroke" d="
  M 140.90 17.43
  Q 135.56 7.66 125.01 7.59"
/>
<path stroke="#2f2ffe" vector-effect="non-scaling-stroke" d="
  M 125.01 7.59
  L 105.83 7.53"
/>
<path stroke="#3434fe" vector-effect="non-scaling-stroke" d="
  M 105.83 7.53
  L 88.83 7.52"
/>
<path stroke="#3838fe" vector-effect="non-scaling-stroke" d="
  M 88.83 7.52
  L 58.95 7.53"
/>
<path stroke="#4040fe" vector-effect="non-scaling-stroke" d="
  M 58.95 7.53
  Q 42.45 7.43 26.50 7.59
  Q 20.61 7.65 18.26 8.74
  Q 7.70 13.69 7.60 25.50
  Q 7.50 36.54 7.51 47.52"
/>
<path stroke="#7876fe" vector-effect="non-scaling-stroke" d="
  M 58.95 7.53
  L 55.55 11.78
  Q 55.25 12.16 54.82 12.39
  Q 52.75 13.52 50.89 14.94
  C 49.77 15.79 48.12 16.05 47.35 17.73
  Q 47.19 18.06 46.85 18.20
  Q 46.69 18.27 46.51 18.31
  Q 46.04 18.40 45.70 18.75
  Q 42.05 22.43 37.61 25.03
  C 34.78 26.68 32.80 28.57 30.43 30.58
  Q 30.12 30.84 30.12 31.25
  L 30.12 32.24
  A 1.07 1.07 0.0 0 1 29.75 33.05
  C 28.43 34.16 26.82 34.66 25.57 35.74
  Q 21.59 39.19 16.61 41.11
  A 1.37 1.37 0.0 0 0 15.76 42.63
  Q 15.94 43.59 15.09 43.61
  Q 14.53 43.63 14.17 44.05
  Q 12.83 45.58 11.27 46.90
  A 1.55 0.06 -26.9 0 1 10.23 47.48
  Q 8.94 48.15 7.51 47.52"
/>
<path stroke="#6b6aff" vector-effect="non-scaling-stroke" d="
  M 88.83 7.52
  Q 88.75 8.47 87.31 8.35
  Q 86.84 8.31 86.56 8.70
  C 85.24 10.63 82.83 11.51 81.19 13.26
  Q 79.66 14.88 78.32 15.71
  Q 74.67 17.98 71.64 21.04
  Q 70.25 22.45 68.14 23.60
  Q 65.61 24.96 63.61 27.06
  C 62.35 28.39 60.73 28.90 59.50 30.00
  Q 52.78 35.99 45.88 41.78
  Q 43.64 43.66 41.42 45.57
  Q 39.91 46.87 36.74 49.00
  C 33.64 51.08 31.42 53.94 27.99 55.64
  Q 25.68 56.78 19.66 60.97
  C 17.08 62.76 14.97 65.73 12.75 67.24
  Q 10.86 68.53 10.12 69.37
  A 1.21 1.20 19.3 0 1 9.26 69.78
  L 7.51 69.82"
/>
<path stroke="#6261ff" vector-effect="non-scaling-stroke" d="
  M 105.83 7.53
  L 104.31 7.95
  Q 103.92 8.06 103.91 8.46
  Q 103.87 9.86 102.47 10.73
  C 100.21 12.12 98.13 14.42 95.78 15.63
  Q 94.30 16.40 92.76 17.02
  C 89.26 18.43 87.71 22.96 83.69 24.61
  C 81.78 25.40 80.67 26.77 79.15 28.05
  Q 79.01 28.17 79.18 28.23
  Q 79.43 28.31 79.62 28.63
  A 0.05 0.04 -16.8 0 1 79.58 28.70
  C 77.89 28.77 76.11 30.30 74.22 32.07
  Q 73.79 32.48 73.14 32.65
  A 0.50 0.39 -63.3 0 0 72.95 32.74
  L 68.17 36.24
  Q 68.14 36.27 68.13 36.32
  Q 68.13 36.45 68.08 36.57
  Q 68.03 36.73 67.84 36.88
  Q 62.98 40.76 57.99 44.47
  C 56.54 45.55 54.97 47.23 52.76 48.51
  Q 50.85 49.60 48.77 51.87
  Q 46.68 54.15 45.01 55.38
  Q 38.78 59.96 32.62 64.63
  C 31.96 65.12 31.48 65.13 30.69 65.12
  Q 30.33 65.11 30.28 65.46
  Q 30.17 66.10 29.39 66.63
  Q 27.48 67.92 24.69 70.63
  Q 23.21 72.05 21.40 73.04
  Q 19.59 74.02 17.83 75.09
  C 15.20 76.70 16.68 79.99 12.64 80.33
  Q 12.19 80.37 11.80 80.60
  Q 10.56 81.33 9.08 80.70
  Q 8.21 80.34 7.52 80.96"
/>
<path stroke="#5656ff" vector-effect="non-scaling-stroke" d="
  M 125.01 7.59
  Q 124.02 8.05 123.44 8.45
  C 119.96 10.89 114.03 12.57 111.44 15.79
  Q 110.01 17.56 109.24 18.19
  C 106.44 20.49 103.93 23.15 101.07 25.18
  Q 96.06 28.72 91.14 32.40
  Q 90.79 32.66 90.41 32.70
  Q 90.12 32.73 90.12 33.02
  L 90.12 33.57
  A 0.93 0.91 73.7 0 1 89.71 34.34
  Q 88.22 35.32 87.22 36.76
  Q 87.15 36.87 87.03 36.87
  Q 86.86 36.87 86.71 36.87
  A 0.76 0.76 0.0 0 0 86.21 37.08
  C 84.04 39.20 81.40 40.37 79.34 42.47
  Q 76.16 45.74 73.02 47.77
  Q 67.24 51.51 64.14 54.14
  Q 62.20 55.78 59.88 56.78
  Q 59.47 56.96 59.27 57.36
  Q 58.55 58.76 57.08 59.35
  Q 56.62 59.53 56.33 59.92
  Q 54.42 62.42 53.49 63.00
  Q 47.90 66.45 46.28 67.75
  Q 40.83 72.11 35.12 76.11
  C 33.40 77.32 32.06 79.06 30.48 80.10
  Q 29.22 80.94 27.91 81.74
  Q 27.57 81.94 27.63 82.32
  Q 27.76 83.27 26.94 83.77
  A 0.24 0.24 0.0 0 0 26.89 84.15
  L 27.16 84.43
  Q 27.41 84.68 27.13 84.90
  Q 20.88 89.68 18.27 90.51
  Q 16.38 91.11 15.71 92.35
  Q 15.48 92.79 15.08 93.08
  L 11.97 95.39
  Q 11.60 95.67 11.15 95.59
  Q 9.22 95.27 7.50 96.00"
/>
<path stroke="#4948ff" vector-effect="non-scaling-stroke" d="
  M 140.90 17.43
  C 138.87 19.37 137.53 20.85 134.88 22.21
  Q 131.49 23.96 128.25 27.01
  Q 126.21 28.93 122.29 31.65
  A 1.15 1.15 0.0 0 1 121.45 31.85
  Q 120.73 31.76 120.25 32.26
  C 116.65 36.05 112.92 40.32 109.15 42.43
  C 106.74 43.79 105.89 44.30 104.43 45.89
  Q 103.40 47.04 102.27 47.74
  C 98.58 50.04 95.80 53.08 92.18 55.46
  C 89.79 57.02 87.98 58.88 85.52 60.48
  Q 84.16 61.38 83.04 62.57
  C 81.91 63.78 80.44 64.28 79.46 65.77
  A 1.46 1.42 3.0 0 1 78.91 66.25
  Q 75.67 67.85 73.02 70.22
  Q 69.06 73.76 67.57 74.80
  Q 59.21 80.70 51.24 87.14
  Q 50.86 87.44 49.67 88.22
  C 48.39 89.07 47.23 90.54 46.11 91.33
  Q 42.45 93.92 39.15 96.94
  Q 38.80 97.25 38.35 97.33
  Q 36.11 97.73 34.86 99.68
  A 2.04 1.96 1.2 0 1 34.11 100.37
  Q 32.67 101.14 31.77 102.47
  Q 31.46 102.94 30.98 103.22
  Q 27.54 105.23 21.65 110.40
  Q 20.69 111.23 16.49 113.12
  A 1.23 1.21 -87.6 0 0 15.90 113.67
  Q 15.19 114.95 13.73 115.46
  A 1.69 1.63 -80.8 0 0 12.93 116.06
  Q 12.03 117.30 10.79 118.18
  A 0.38 0.37 73.3 0 0 10.63 118.49
  Q 10.63 118.61 10.62 118.74
  Q 10.56 119.28 10.04 119.40
  L 7.51 119.99"
/>
<path stroke="#3c3aff" vector-effect="non-scaling-stroke" d="
  M 142.48 30.10
  C 140.56 29.00 139.20 31.11 137.51 32.13
  Q 133.48 34.55 130.93 39.21
  Q 130.69 39.65 130.25 39.89
  C 128.89 40.64 128.17 41.69 126.80 42.38
  Q 122.56 44.56 119.23 48.03
  Q 118.90 48.37 118.44 48.50
  C 117.02 48.90 116.38 50.16 115.61 50.76
  Q 112.63 53.07 109.70 55.44
  C 108.37 56.52 106.77 57.10 105.58 58.22
  Q 102.83 60.80 98.51 63.88
  Q 94.80 66.52 82.74 76.21
  Q 80.27 78.18 75.30 81.76
  C 71.71 84.34 67.16 87.42 64.07 90.86
  C 63.41 91.60 62.63 91.73 61.94 92.55
  C 60.61 94.14 59.24 94.97 57.62 96.11
  Q 56.51 96.89 54.83 98.41
  C 53.01 100.07 50.88 101.19 48.98 102.80
  C 47.28 104.25 44.64 105.60 43.35 106.55
  C 39.08 109.67 34.84 112.30 31.03 116.39
  C 30.63 116.81 29.90 117.00 29.43 117.50
  Q 27.87 119.18 25.25 120.51
  Q 24.63 120.83 24.33 121.69
  Q 24.17 122.15 23.78 122.45
  Q 21.76 124.05 19.52 125.34
  Q 19.38 125.42 15.93 127.72
  Q 12.51 130.00 7.47 129.84"
/>
<path stroke="#2827ff" vector-effect="non-scaling-stroke" d="
  M 142.32 57.28
  L 142.30 59.49
  Q 142.29 59.99 141.84 60.20
  C 140.48 60.82 140.52 62.04 138.71 61.84
  Q 138.22 61.78 137.83 62.09
  L 134.42 64.87
  Q 134.09 65.13 133.67 65.11
  Q 133.47 65.10 133.27 65.11
  Q 132.79 65.15 132.44 65.48
  Q 128.56 69.15 127.00 70.36
  C 126.35 70.85 125.28 71.01 124.46 71.73
  Q 122.59 73.36 120.50 74.67
  Q 120.16 74.87 120.06 75.25
  Q 120.00 75.45 119.92 75.64
  Q 119.78 75.95 119.41 76.17
  Q 115.06 78.63 111.54 82.17
  C 109.69 84.03 107.19 84.81 104.97 86.78
  C 103.33 88.24 101.34 89.17 99.79 90.55
  C 98.24 91.94 97.28 92.78 95.26 94.73
  Q 93.24 96.68 90.53 97.62
  Q 90.15 97.76 90.14 98.16
  Q 90.14 98.38 90.09 98.60
  Q 90.02 98.94 89.66 99.24
  Q 85.14 103.12 80.21 106.44
  Q 79.96 106.60 79.85 107.03
  Q 79.74 107.51 79.29 107.72
  Q 75.35 109.56 72.22 112.52
  C 69.43 115.16 66.17 116.70 63.49 119.51
  C 63.13 119.89 62.41 119.96 61.88 120.39
  Q 58.27 123.28 54.78 126.33
  C 53.19 127.72 51.11 128.65 49.46 130.30
  Q 49.17 130.58 48.77 130.61
  Q 48.33 130.64 48.37 131.14
  A 0.74 0.73 -19.9 0 1 48.06 131.79
  C 46.68 132.76 45.16 133.38 43.92 134.43
  Q 41.42 136.54 38.99 138.73
  C 37.35 140.21 35.11 140.83 33.25 142.31
  C 30.05 144.86 26.84 146.99 22.79 150.23
  C 20.88 151.77 18.76 152.97 16.68 154.23
  Q 16.37 154.42 16.36 154.78
  L 16.36 155.25
  Q 16.36 155.80 16.76 155.43
  Q 16.97 155.23 17.19 155.28
  Q 17.74 155.40 17.28 155.73
  Q 16.45 156.31 16.25 157.30
  Q 16.15 157.77 15.83 158.13
  Q 14.40 159.74 12.27 160.05
  A 1.53 1.51 -70.2 0 0 11.48 160.43
  Q 10.80 161.08 10.46 162.03
  A 0.81 0.80 9.9 0 1 9.68 162.57
  L 7.58 162.54"
/>
</g>
<path fill="#d0d9ec" d="
  M 134.35 0.00
  L 135.46 0.00
  L 136.07 1.44
  Q 136.32 2.02 135.72 1.81
  Q 134.37 1.34 134.35 0.00
  Z"
/>
<ellipse fill="#c7c2ba" cx="0.00" cy="0.00" transform="translate(8.51,1.00) rotate(114.7)" rx="0.74" ry="0.54"/>
<path fill="#c7c2ba" d="
  M 17.28 3.90
  Q 16.67 4.29 16.73 4.53
  C 10.77 7.41 6.72 10.77 4.44 17.19
  Q 4.10 17.28 3.86 17.54
  Q 3.03 15.76 1.53 15.04
  Q 1.14 14.86 1.08 14.43
  Q 1.00 13.82 1.23 13.23
  Q 1.51 12.55 1.68 13.27
  L 1.97 14.48
  Q 2.08 14.94 2.54 14.81
  C 5.03 14.12 5.51 11.25 7.44 9.49
  Q 7.65 9.30 7.51 9.06
  Q 7.37 8.82 7.39 8.63
  Q 7.44 8.16 7.79 8.47
  L 8.18 8.81
  Q 8.28 8.90 8.38 8.81
  Q 9.48 7.77 10.57 6.76
  C 11.99 5.43 13.63 5.08 15.32 4.10
  Q 15.74 3.86 15.63 3.39
  Q 15.33 1.94 16.27 0.70
  Q 16.58 0.28 17.04 0.55
  L 18.70 1.52
  Q 19.85 2.20 18.52 2.07
  L 16.70 1.89
  A 0.49 0.49 0.0 0 0 16.16 2.45
  Q 16.28 3.19 17.28 3.90
  Z"
/>
<path fill="#c7c2ba" d="
  M 143.05 2.34
  Q 142.89 1.57 143.43 2.14
  Q 144.08 2.82 143.73 4.02
  Q 143.52 4.72 143.38 4.01
  L 143.05 2.34
  Z"
/>
<path fill="#d0d9ec" d="
  M 138.45 5.62
  L 138.26 6.33
  Q 138.21 6.51 138.03 6.54
  Q 137.89 6.56 137.78 6.56
  C 131.35 2.70 123.46 3.91 116.36 3.94
  Q 69.07 4.14 21.79 3.83
  C 20.01 3.82 18.48 4.26 16.73 4.53
  Q 16.67 4.29 17.28 3.90
  Q 17.96 3.99 18.67 3.63
  C 21.89 1.96 27.28 2.98 30.10 2.99
  Q 75.68 3.04 121.25 2.99
  Q 127.88 2.99 132.19 2.44
  Q 132.69 2.37 133.04 2.75
  Q 134.65 4.53 136.72 3.21
  Q 137.36 2.80 137.32 3.56
  Q 137.23 5.30 138.45 5.62
  Z"
/>
<path fill="#0001fd" d="
  M 137.78 6.56
  Q 142.48 9.41 144.99 14.72
  Q 146.12 17.94 146.11 19.75
  Q 145.91 96.45 146.03 173.16
  C 146.03 174.98 145.60 176.68 145.27 178.47
  Q 140.10 191.26 126.25 191.33
  Q 73.75 191.56 21.25 191.18
  C 15.70 191.13 13.25 188.23 8.90 185.98
  Q 3.63 179.82 3.73 173.50
  Q 3.97 158.62 4.02 143.75
  Q 4.18 83.02 3.83 22.29
  C 3.82 20.53 4.33 18.99 4.44 17.19
  C 6.72 10.77 10.77 7.41 16.73 4.53
  C 18.48 4.26 20.01 3.82 21.79 3.83
  Q 69.07 4.14 116.36 3.94
  C 123.46 3.91 131.35 2.70 137.78 6.56
  Z
  M 7.51 47.52
  L 7.51 69.82
  L 7.52 80.96
  L 7.50 96.00
  L 7.51 119.99
  L 7.47 129.84
  L 7.58 162.54
  C 7.29 166.42 7.02 173.26 8.93 176.71
  C 10.25 179.11 12.45 185.26 16.59 184.33
  Q 16.98 184.24 17.28 184.51
  Q 17.87 185.05 18.46 184.45
  Q 19.70 183.17 20.86 182.69
  Q 21.33 182.50 21.66 182.13
  Q 25.74 177.62 28.02 176.42
  Q 30.07 175.34 31.32 174.29
  Q 34.09 171.94 34.27 171.83
  Q 40.33 167.83 45.74 162.99
  A 1.48 1.48 0.0 0 1 46.72 162.62
  L 47.21 162.62
  Q 47.74 162.62 48.14 162.28
  C 49.66 160.99 51.22 159.95 52.60 158.52
  Q 56.19 154.79 58.63 153.13
  Q 66.26 147.93 73.42 142.09
  Q 73.91 141.69 77.49 139.12
  C 79.13 137.95 80.94 135.50 82.70 134.84
  Q 83.21 134.65 83.59 134.26
  L 87.15 130.55
  Q 87.56 130.12 88.15 130.12
  L 89.50 130.12
  Q 90.12 130.12 90.12 129.50
  L 90.12 129.03
  Q 90.12 128.46 90.58 128.11
  Q 94.04 125.50 97.58 122.98
  Q 99.39 121.70 103.87 117.87
  Q 106.90 115.28 115.23 109.80
  A 0.19 0.19 0.0 0 0 115.26 109.51
  L 115.00 109.26
  Q 114.77 109.02 115.09 109.10
  Q 115.76 109.25 115.86 108.75
  Q 115.95 108.36 116.26 108.10
  Q 118.83 105.90 121.80 104.32
  C 124.95 102.63 127.74 99.98 130.48 97.33
  C 132.35 95.52 134.66 94.11 136.30 92.12
  Q 137.41 90.77 138.53 89.42
  Q 138.85 89.03 139.32 88.87
  Q 141.93 87.95 142.13 86.00
  Q 143.14 76.27 142.32 57.28
  L 142.48 30.10
  Q 143.00 23.25 140.90 17.43
  Q 135.56 7.66 125.01 7.59
  L 105.83 7.53
  L 88.83 7.52
  L 58.95 7.53
  Q 42.45 7.43 26.50 7.59
  Q 20.61 7.65 18.26 8.74
  Q 7.70 13.69 7.60 25.50
  Q 7.50 36.54 7.51 47.52
  Z"
/>
<path fill="#c7c2ba" d="
  M 138.45 5.62
  Q 144.93 9.22 147.50 15.67
  Q 148.99 19.40 148.99 28.02
  Q 149.01 91.80 148.99 155.57
  C 148.99 161.47 149.55 170.19 149.01 176.26
  Q 148.45 182.64 143.71 188.38
  Q 143.41 188.75 142.96 188.92
  Q 141.77 189.36 140.92 190.51
  Q 139.57 190.76 140.90 189.37
  C 141.70 188.53 142.96 188.27 143.63 187.38
  Q 145.76 184.59 147.28 180.26
  Q 148.53 176.68 148.28 171.11
  Q 147.90 162.49 147.90 162.36
  Q 147.90 94.73 147.88 27.10
  C 147.88 25.49 147.47 23.55 147.50 21.73
  Q 147.32 17.16 144.99 14.72
  Q 142.48 9.41 137.78 6.56
  Q 137.89 6.56 138.03 6.54
  Q 138.21 6.51 138.26 6.33
  L 138.45 5.62
  Z"
/>
<path fill="#c7c2ba" d="
  M 8.41 6.35
  Q 9.05 5.91 9.12 5.94
  Q 10.52 6.46 9.15 7.06
  Q 8.77 7.22 8.40 6.95
  A 0.37 0.36 46.1 0 1 8.41 6.35
  Z"
/>
<path fill="#807efe" d="
  M 58.95 7.53
  L 55.55 11.78
  Q 55.25 12.16 54.82 12.39
  Q 52.75 13.52 50.89 14.94
  C 49.77 15.79 48.12 16.05 47.35 17.73
  Q 47.19 18.06 46.85 18.20
  Q 46.69 18.27 46.51 18.31
  Q 46.04 18.40 45.70 18.75
  Q 42.05 22.43 37.61 25.03
  C 34.78 26.68 32.80 28.57 30.43 30.58
  Q 30.12 30.84 30.12 31.25
  L 30.12 32.24
  A 1.07 1.07 0.0 0 1 29.75 33.05
  C 28.43 34.16 26.82 34.66 25.57 35.74
  Q 21.59 39.19 16.61 41.11
  A 1.37 1.37 0.0 0 0 15.76 42.63
  Q 15.94 43.59 15.09 43.61
  Q 14.53 43.63 14.17 44.05
  Q 12.83 45.58 11.27 46.90
  A 1.55 0.06 -26.9 0 1 10.23 47.48
  Q 8.94 48.15 7.51 47.52
  Q 7.50 36.54 7.60 25.50
  Q 7.70 13.69 18.26 8.74
  Q 20.61 7.65 26.50 7.59
  Q 42.45 7.43 58.95 7.53
  Z"
/>
<path fill="#6f6efe" d="
  M 58.95 7.53
  L 88.83 7.52
  Q 88.75 8.47 87.31 8.35
  Q 86.84 8.31 86.56 8.70
  C 85.24 10.63 82.83 11.51 81.19 13.26
  Q 79.66 14.88 78.32 15.71
  Q 74.67 17.98 71.64 21.04
  Q 70.25 22.45 68.14 23.60
  Q 65.61 24.96 63.61 27.06
  C 62.35 28.39 60.73 28.90 59.50 30.00
  Q 52.78 35.99 45.88 41.78
  Q 43.64 43.66 41.42 45.57
  Q 39.91 46.87 36.74 49.00
  C 33.64 51.08 31.42 53.94 27.99 55.64
  Q 25.68 56.78 19.66 60.97
  C 17.08 62.76 14.97 65.73 12.75 67.24
  Q 10.86 68.53 10.12 69.37
  A 1.21 1.20 19.3 0 1 9.26 69.78
  L 7.51 69.82
  L 7.51 47.52
  Q 8.94 48.15 10.23 47.48
  A 1.55 0.06 -26.9 0 0 11.27 46.90
  Q 12.83 45.58 14.17 44.05
  Q 14.53 43.63 15.09 43.61
  Q 15.94 43.59 15.76 42.63
  A 1.37 1.37 0.0 0 1 16.61 41.11
  Q 21.59 39.19 25.57 35.74
  C 26.82 34.66 28.43 34.16 29.75 33.05
  A 1.07 1.07 0.0 0 0 30.12 32.24
  L 30.12 31.25
  Q 30.12 30.84 30.43 30.58
  C 32.80 28.57 34.78 26.68 37.61 25.03
  Q 42.05 22.43 45.70 18.75
  Q 46.04 18.40 46.51 18.31
  Q 46.69 18.27 46.85 18.20
  Q 47.19 18.06 47.35 17.73
  C 48.12 16.05 49.77 15.79 50.89 14.94
  Q 52.75 13.52 54.82 12.39
  Q 55.25 12.16 55.55 11.78
  L 58.95 7.53
  Z"
/>
<path fill="#6766ff" d="
  M 88.83 7.52
  L 105.83 7.53
  L 104.31 7.95
  Q 103.92 8.06 103.91 8.46
  Q 103.87 9.86 102.47 10.73
  C 100.21 12.12 98.13 14.42 95.78 15.63
  Q 94.30 16.40 92.76 17.02
  C 89.26 18.43 87.71 22.96 83.69 24.61
  C 81.78 25.40 80.67 26.77 79.15 28.05
  Q 79.01 28.17 79.18 28.23
  Q 79.43 28.31 79.62 28.63
  A 0.05 0.04 -16.8 0 1 79.58 28.70
  C 77.89 28.77 76.11 30.30 74.22 32.07
  Q 73.79 32.48 73.14 32.65
  A 0.50 0.39 -63.3 0 0 72.95 32.74
  L 68.17 36.24
  Q 68.14 36.27 68.13 36.32
  Q 68.13 36.45 68.08 36.57
  Q 68.03 36.73 67.84 36.88
  Q 62.98 40.76 57.99 44.47
  C 56.54 45.55 54.97 47.23 52.76 48.51
  Q 50.85 49.60 48.77 51.87
  Q 46.68 54.15 45.01 55.38
  Q 38.78 59.96 32.62 64.63
  C 31.96 65.12 31.48 65.13 30.69 65.12
  Q 30.33 65.11 30.28 65.46
  Q 30.17 66.10 29.39 66.63
  Q 27.48 67.92 24.69 70.63
  Q 23.21 72.05 21.40 73.04
  Q 19.59 74.02 17.83 75.09
  C 15.20 76.70 16.68 79.99 12.64 80.33
  Q 12.19 80.37 11.80 80.60
  Q 10.56 81.33 9.08 80.70
  Q 8.21 80.34 7.52 80.96
  L 7.51 69.82
  L 9.26 69.78
  A 1.21 1.20 19.3 0 0 10.12 69.37
  Q 10.86 68.53 12.75 67.24
  C 14.97 65.73 17.08 62.76 19.66 60.97
  Q 25.68 56.78 27.99 55.64
  C 31.42 53.94 33.64 51.08 36.74 49.00
  Q 39.91 46.87 41.42 45.57
  Q 43.64 43.66 45.88 41.78
  Q 52.78 35.99 59.50 30.00
  C 60.73 28.90 62.35 28.39 63.61 27.06
  Q 65.61 24.96 68.14 23.60
  Q 70.25 22.45 71.64 21.04
  Q 74.67 17.98 78.32 15.71
  Q 79.66 14.88 81.19 13.26
  C 82.83 11.51 85.24 10.63 86.56 8.70
  Q 86.84 8.31 87.31 8.35
  Q 88.75 8.47 88.83 7.52
  Z"
/>
<path fill="#5d5cff" d="
  M 105.83 7.53
  L 125.01 7.59
  Q 124.02 8.05 123.44 8.45
  C 119.96 10.89 114.03 12.57 111.44 15.79
  Q 110.01 17.56 109.24 18.19
  C 106.44 20.49 103.93 23.15 101.07 25.18
  Q 96.06 28.72 91.14 32.40
  Q 90.79 32.66 90.41 32.70
  Q 90.12 32.73 90.12 33.02
  L 90.12 33.57
  A 0.93 0.91 73.7 0 1 89.71 34.34
  Q 88.22 35.32 87.22 36.76
  Q 87.15 36.87 87.03 36.87
  Q 86.86 36.87 86.71 36.87
  A 0.76 0.76 0.0 0 0 86.21 37.08
  C 84.04 39.20 81.40 40.37 79.34 42.47
  Q 76.16 45.74 73.02 47.77
  Q 67.24 51.51 64.14 54.14
  Q 62.20 55.78 59.88 56.78
  Q 59.47 56.96 59.27 57.36
  Q 58.55 58.76 57.08 59.35
  Q 56.62 59.53 56.33 59.92
  Q 54.42 62.42 53.49 63.00
  Q 47.90 66.45 46.28 67.75
  Q 40.83 72.11 35.12 76.11
  C 33.40 77.32 32.06 79.06 30.48 80.10
  Q 29.22 80.94 27.91 81.74
  Q 27.57 81.94 27.63 82.32
  Q 27.76 83.27 26.94 83.77
  A 0.24 0.24 0.0 0 0 26.89 84.15
  L 27.16 84.43
  Q 27.41 84.68 27.13 84.90
  Q 20.88 89.68 18.27 90.51
  Q 16.38 91.11 15.71 92.35
  Q 15.48 92.79 15.08 93.08
  L 11.97 95.39
  Q 11.60 95.67 11.15 95.59
  Q 9.22 95.27 7.50 96.00
  L 7.52 80.96
  Q 8.21 80.34 9.08 80.70
  Q 10.56 81.33 11.80 80.60
  Q 12.19 80.37 12.64 80.33
  C 16.68 79.99 15.20 76.70 17.83 75.09
  Q 19.59 74.02 21.40 73.04
  Q 23.21 72.05 24.69 70.63
  Q 27.48 67.92 29.39 66.63
  Q 30.17 66.10 30.28 65.46
  Q 30.33 65.11 30.69 65.12
  C 31.48 65.13 31.96 65.12 32.62 64.63
  Q 38.78 59.96 45.01 55.38
  Q 46.68 54.15 48.77 51.87
  Q 50.85 49.60 52.76 48.51
  C 54.97 47.23 56.54 45.55 57.99 44.47
  Q 62.98 40.76 67.84 36.88
  Q 68.03 36.73 68.08 36.57
  Q 68.13 36.45 68.13 36.32
  Q 68.14 36.27 68.17 36.24
  L 72.95 32.74
  A 0.50 0.39 -63.3 0 1 73.14 32.65
  Q 73.79 32.48 74.22 32.07
  C 76.11 30.30 77.89 28.77 79.58 28.70
  A 0.05 0.04 -16.8 0 0 79.62 28.63
  Q 79.43 28.31 79.18 28.23
  Q 79.01 28.17 79.15 28.05
  C 80.67 26.77 81.78 25.40 83.69 24.61
  C 87.71 22.96 89.26 18.43 92.76 17.02
  Q 94.30 16.40 95.78 15.63
  C 98.13 14.42 100.21 12.12 102.47 10.73
  Q 103.87 9.86 103.91 8.46
  Q 103.92 8.06 104.31 7.95
  L 105.83 7.53
  Z"
/>
<path fill="#4f4fff" d="
  M 125.01 7.59
  Q 135.56 7.66 140.90 17.43
  C 138.87 19.37 137.53 20.85 134.88 22.21
  Q 131.49 23.96 128.25 27.01
  Q 126.21 28.93 122.29 31.65
  A 1.15 1.15 0.0 0 1 121.45 31.85
  Q 120.73 31.76 120.25 32.26
  C 116.65 36.05 112.92 40.32 109.15 42.43
  C 106.74 43.79 105.89 44.30 104.43 45.89
  Q 103.40 47.04 102.27 47.74
  C 98.58 50.04 95.80 53.08 92.18 55.46
  C 89.79 57.02 87.98 58.88 85.52 60.48
  Q 84.16 61.38 83.04 62.57
  C 81.91 63.78 80.44 64.28 79.46 65.77
  A 1.46 1.42 3.0 0 1 78.91 66.25
  Q 75.67 67.85 73.02 70.22
  Q 69.06 73.76 67.57 74.80
  Q 59.21 80.70 51.24 87.14
  Q 50.86 87.44 49.67 88.22
  C 48.39 89.07 47.23 90.54 46.11 91.33
  Q 42.45 93.92 39.15 96.94
  Q 38.80 97.25 38.35 97.33
  Q 36.11 97.73 34.86 99.68
  A 2.04 1.96 1.2 0 1 34.11 100.37
  Q 32.67 101.14 31.77 102.47
  Q 31.46 102.94 30.98 103.22
  Q 27.54 105.23 21.65 110.40
  Q 20.69 111.23 16.49 113.12
  A 1.23 1.21 -87.6 0 0 15.90 113.67
  Q 15.19 114.95 13.73 115.46
  A 1.69 1.63 -80.8 0 0 12.93 116.06
  Q 12.03 117.30 10.79 118.18
  A 0.38 0.37 73.3 0 0 10.63 118.49
  Q 10.63 118.61 10.62 118.74
  Q 10.56 119.28 10.04 119.40
  L 7.51 119.99
  L 7.50 96.00
  Q 9.22 95.27 11.15 95.59
  Q 11.60 95.67 11.97 95.39
  L 15.08 93.08
  Q 15.48 92.79 15.71 92.35
  Q 16.38 91.11 18.27 90.51
  Q 20.88 89.68 27.13 84.90
  Q 27.41 84.68 27.16 84.43
  L 26.89 84.15
  A 0.24 0.24 0.0 0 1 26.94 83.77
  Q 27.76 83.27 27.63 82.32
  Q 27.57 81.94 27.91 81.74
  Q 29.22 80.94 30.48 80.10
  C 32.06 79.06 33.40 77.32 35.12 76.11
  Q 40.83 72.11 46.28 67.75
  Q 47.90 66.45 53.49 63.00
  Q 54.42 62.42 56.33 59.92
  Q 56.62 59.53 57.08 59.35
  Q 58.55 58.76 59.27 57.36
  Q 59.47 56.96 59.88 56.78
  Q 62.20 55.78 64.14 54.14
  Q 67.24 51.51 73.02 47.77
  Q 76.16 45.74 79.34 42.47
  C 81.40 40.37 84.04 39.20 86.21 37.08
  A 0.76 0.76 0.0 0 1 86.71 36.87
  Q 86.86 36.87 87.03 36.87
  Q 87.15 36.87 87.22 36.76
  Q 88.22 35.32 89.71 34.34
  A 0.93 0.91 73.7 0 0 90.12 33.57
  L 90.12 33.02
  Q 90.12 32.73 90.41 32.70
  Q 90.79 32.66 91.14 32.40
  Q 96.06 28.72 101.07 25.18
  C 103.93 23.15 106.44 20.49 109.24 18.19
  Q 110.01 17.56 111.44 15.79
  C 114.03 12.57 119.96 10.89 123.44 8.45
  Q 124.02 8.05 125.01 7.59
  Z"
/>
<ellipse fill="#c7c2ba" cx="0.00" cy="0.00" transform="translate(147.97,8.53) rotate(2.9)" rx="0.76" ry="0.53"/>
<path fill="#c7c2ba" d="
  M 1.96 11.05
  C 1.90 11.23 1.72 11.73 1.55 11.98
  Q 1.30 12.36 1.23 11.91
  Q 1.11 11.22 1.27 10.53
  A 0.34 0.34 0.0 0 1 1.88 10.42
  Q 2.08 10.71 1.96 11.05
  Z"
/>
<path fill="#6e7197" d="
  M 144.99 14.72
  Q 147.32 17.16 147.50 21.73
  Q 147.75 93.54 147.76 165.40
  C 147.76 167.36 146.83 169.44 147.17 171.76
  Q 147.29 172.60 146.84 173.27
  Q 146.57 173.67 146.62 174.15
  Q 146.89 177.06 145.27 178.47
  C 145.60 176.68 146.03 174.98 146.03 173.16
  Q 145.91 96.45 146.11 19.75
  Q 146.12 17.94 144.99 14.72
  Z"
/>
<path fill="#c7c2ba" d="
  M 0.00 17.12
  L 0.00 16.76
  L 0.59 16.30
  Q 1.10 15.91 1.05 16.55
  L 1.00 17.25
  Q 0.93 18.11 0.34 17.48
  L 0.00 17.12
  Z"
/>
<path fill="#d0d9ec" d="
  M 4.44 17.19
  C 4.33 18.99 3.82 20.53 3.83 22.29
  Q 4.18 83.02 4.02 143.75
  Q 3.97 158.62 3.73 173.50
  Q 3.63 179.82 8.90 185.98
  L 11.58 189.24
  Q 10.90 189.30 10.88 189.47
  Q 9.76 188.30 8.66 187.13
  C 6.94 185.30 6.22 183.02 3.52 181.62
  Q 3.01 181.36 3.12 180.79
  Q 3.20 180.38 3.43 179.99
  A 0.90 0.90 0.0 0 0 3.43 179.05
  L 2.58 177.67
  Q 2.32 177.24 2.45 176.77
  Q 2.93 174.99 2.95 172.25
  Q 3.06 160.50 2.92 148.75
  C 2.87 144.66 1.70 140.84 2.42 136.54
  Q 3.00 133.05 3.00 130.91
  Q 3.04 80.14 3.01 29.38
  Q 3.01 29.32 2.79 25.12
  Q 2.59 21.21 3.86 17.54
  Q 4.10 17.28 4.44 17.19
  Z"
/>
<path fill="#4341ff" d="
  M 140.90 17.43
  Q 143.00 23.25 142.48 30.10
  C 140.56 29.00 139.20 31.11 137.51 32.13
  Q 133.48 34.55 130.93 39.21
  Q 130.69 39.65 130.25 39.89
  C 128.89 40.64 128.17 41.69 126.80 42.38
  Q 122.56 44.56 119.23 48.03
  Q 118.90 48.37 118.44 48.50
  C 117.02 48.90 116.38 50.16 115.61 50.76
  Q 112.63 53.07 109.70 55.44
  C 108.37 56.52 106.77 57.10 105.58 58.22
  Q 102.83 60.80 98.51 63.88
  Q 94.80 66.52 82.74 76.21
  Q 80.27 78.18 75.30 81.76
  C 71.71 84.34 67.16 87.42 64.07 90.86
  C 63.41 91.60 62.63 91.73 61.94 92.55
  C 60.61 94.14 59.24 94.97 57.62 96.11
  Q 56.51 96.89 54.83 98.41
  C 53.01 100.07 50.88 101.19 48.98 102.80
  C 47.28 104.25 44.64 105.60 43.35 106.55
  C 39.08 109.67 34.84 112.30 31.03 116.39
  C 30.63 116.81 29.90 117.00 29.43 117.50
  Q 27.87 119.18 25.25 120.51
  Q 24.63 120.83 24.33 121.69
  Q 24.17 122.15 23.78 122.45
  Q 21.76 124.05 19.52 125.34
  Q 19.38 125.42 15.93 127.72
  Q 12.51 130.00 7.47 129.84
  L 7.51 119.99
  L 10.04 119.40
  Q 10.56 119.28 10.62 118.74
  Q 10.63 118.61 10.63 118.49
  A 0.38 0.37 73.3 0 1 10.79 118.18
  Q 12.03 117.30 12.93 116.06
  A 1.69 1.63 -80.8 0 1 13.73 115.46
  Q 15.19 114.95 15.90 113.67
  A 1.23 1.21 -87.6 0 1 16.49 113.12
  Q 20.69 111.23 21.65 110.40
  Q 27.54 105.23 30.98 103.22
  Q 31.46 102.94 31.77 102.47
  Q 32.67 101.14 34.11 100.37
  A 2.04 1.96 1.2 0 0 34.86 99.68
  Q 36.11 97.73 38.35 97.33
  Q 38.80 97.25 39.15 96.94
  Q 42.45 93.92 46.11 91.33
  C 47.23 90.54 48.39 89.07 49.67 88.22
  Q 50.86 87.44 51.24 87.14
  Q 59.21 80.70 67.57 74.80
  Q 69.06 73.76 73.02 70.22
  Q 75.67 67.85 78.91 66.25
  A 1.46 1.42 3.0 0 0 79.46 65.77
  C 80.44 64.28 81.91 63.78 83.04 62.57
  Q 84.16 61.38 85.52 60.48
  C 87.98 58.88 89.79 57.02 92.18 55.46
  C 95.80 53.08 98.58 50.04 102.27 47.74
  Q 103.40 47.04 104.43 45.89
  C 105.89 44.30 106.74 43.79 109.15 42.43
  C 112.92 40.32 116.65 36.05 120.25 32.26
  Q 120.73 31.76 121.45 31.85
  A 1.15 1.15 0.0 0 0 122.29 31.65
  Q 126.21 28.93 128.25 27.01
  Q 131.49 23.96 134.88 22.21
  C 137.53 20.85 138.87 19.37 140.90 17.43
  Z"
/>
<path fill="#85827d" d="
  M 147.50 21.73
  C 147.47 23.55 147.88 25.49 147.88 27.10
  Q 147.90 94.73 147.90 162.36
  Q 147.90 162.49 148.28 171.11
  Q 148.53 176.68 147.28 180.26
  Q 145.76 184.59 143.63 187.38
  C 142.96 188.27 141.70 188.53 140.90 189.37
  Q 139.57 190.76 140.92 190.51
  Q 140.80 190.86 141.24 191.27
  Q 140.95 191.34 140.76 191.29
  Q 140.64 191.09 140.44 191.02
  Q 140.29 190.96 140.06 191.05
  Q 137.05 192.23 133.68 193.92
  Q 134.24 192.58 132.77 192.96
  Q 132.14 193.12 131.71 193.11
  Q 77.29 192.31 22.88 193.11
  C 21.50 193.13 19.94 192.36 18.40 192.35
  A 0.69 0.65 -30.5 0 1 18.10 192.28
  L 11.58 189.24
  L 8.90 185.98
  C 13.25 188.23 15.70 191.13 21.25 191.18
  Q 73.75 191.56 126.25 191.33
  Q 140.10 191.26 145.27 178.47
  Q 146.89 177.06 146.62 174.15
  Q 146.57 173.67 146.84 173.27
  Q 147.29 172.60 147.17 171.76
  C 146.83 169.44 147.76 167.36 147.76 165.40
  Q 147.75 93.54 147.50 21.73
  Z"
/>
<path fill="#3533ff" d="
  M 142.48 30.10
  L 142.32 57.28
  L 142.30 59.49
  Q 142.29 59.99 141.84 60.20
  C 140.48 60.82 140.52 62.04 138.71 61.84
  Q 138.22 61.78 137.83 62.09
  L 134.42 64.87
  Q 134.09 65.13 133.67 65.11
  Q 133.47 65.10 133.27 65.11
  Q 132.79 65.15 132.44 65.48
  Q 128.56 69.15 127.00 70.36
  C 126.35 70.85 125.28 71.01 124.46 71.73
  Q 122.59 73.36 120.50 74.67
  Q 120.16 74.87 120.06 75.25
  Q 120.00 75.45 119.92 75.64
  Q 119.78 75.95 119.41 76.17
  Q 115.06 78.63 111.54 82.17
  C 109.69 84.03 107.19 84.81 104.97 86.78
  C 103.33 88.24 101.34 89.17 99.79 90.55
  C 98.24 91.94 97.28 92.78 95.26 94.73
  Q 93.24 96.68 90.53 97.62
  Q 90.15 97.76 90.14 98.16
  Q 90.14 98.38 90.09 98.60
  Q 90.02 98.94 89.66 99.24
  Q 85.14 103.12 80.21 106.44
  Q 79.96 106.60 79.85 107.03
  Q 79.74 107.51 79.29 107.72
  Q 75.35 109.56 72.22 112.52
  C 69.43 115.16 66.17 116.70 63.49 119.51
  C 63.13 119.89 62.41 119.96 61.88 120.39
  Q 58.27 123.28 54.78 126.33
  C 53.19 127.72 51.11 128.65 49.46 130.30
  Q 49.17 130.58 48.77 130.61
  Q 48.33 130.64 48.37 131.14
  A 0.74 0.73 -19.9 0 1 48.06 131.79
  C 46.68 132.76 45.16 133.38 43.92 134.43
  Q 41.42 136.54 38.99 138.73
  C 37.35 140.21 35.11 140.83 33.25 142.31
  C 30.05 144.86 26.84 146.99 22.79 150.23
  C 20.88 151.77 18.76 152.97 16.68 154.23
  Q 16.37 154.42 16.36 154.78
  L 16.36 155.25
  Q 16.36 155.80 16.76 155.43
  Q 16.97 155.23 17.19 155.28
  Q 17.74 155.40 17.28 155.73
  Q 16.45 156.31 16.25 157.30
  Q 16.15 157.77 15.83 158.13
  Q 14.40 159.74 12.27 160.05
  A 1.53 1.51 -70.2 0 0 11.48 160.43
  Q 10.80 161.08 10.46 162.03
  A 0.81 0.80 9.9 0 1 9.68 162.57
  L 7.58 162.54
  L 7.47 129.84
  Q 12.51 130.00 15.93 127.72
  Q 19.38 125.42 19.52 125.34
  Q 21.76 124.05 23.78 122.45
  Q 24.17 122.15 24.33 121.69
  Q 24.63 120.83 25.25 120.51
  Q 27.87 119.18 29.43 117.50
  C 29.90 117.00 30.63 116.81 31.03 116.39
  C 34.84 112.30 39.08 109.67 43.35 106.55
  C 44.64 105.60 47.28 104.25 48.98 102.80
  C 50.88 101.19 53.01 100.07 54.83 98.41
  Q 56.51 96.89 57.62 96.11
  C 59.24 94.97 60.61 94.14 61.94 92.55
  C 62.63 91.73 63.41 91.60 64.07 90.86
  C 67.16 87.42 71.71 84.34 75.30 81.76
  Q 80.27 78.18 82.74 76.21
  Q 94.80 66.52 98.51 63.88
  Q 102.83 60.80 105.58 58.22
  C 106.77 57.10 108.37 56.52 109.70 55.44
  Q 112.63 53.07 115.61 50.76
  C 116.38 50.16 117.02 48.90 118.44 48.50
  Q 118.90 48.37 119.23 48.03
  Q 122.56 44.56 126.80 42.38
  C 128.17 41.69 128.89 40.64 130.25 39.89
  Q 130.69 39.65 130.93 39.21
  Q 133.48 34.55 137.51 32.13
  C 139.20 31.11 140.56 29.00 142.48 30.10
  Z"
/>
<path fill="#1b1aff" d="
  M 142.32 57.28
  Q 143.14 76.27 142.13 86.00
  Q 141.93 87.95 139.32 88.87
  Q 138.85 89.03 138.53 89.42
  Q 137.41 90.77 136.30 92.12
  C 134.66 94.11 132.35 95.52 130.48 97.33
  C 127.74 99.98 124.95 102.63 121.80 104.32
  Q 118.83 105.90 116.26 108.10
  Q 115.95 108.36 115.86 108.75
  Q 115.76 109.25 115.09 109.10
  Q 114.77 109.02 115.00 109.26
  L 115.26 109.51
  A 0.19 0.19 0.0 0 1 115.23 109.80
  Q 106.90 115.28 103.87 117.87
  Q 99.39 121.70 97.58 122.98
  Q 94.04 125.50 90.58 128.11
  Q 90.12 128.46 90.12 129.03
  L 90.12 129.50
  Q 90.12 130.12 89.50 130.12
  L 88.15 130.12
  Q 87.56 130.12 87.15 130.55
  L 83.59 134.26
  Q 83.21 134.65 82.70 134.84
  C 80.94 135.50 79.13 137.95 77.49 139.12
  Q 73.91 141.69 73.42 142.09
  Q 66.26 147.93 58.63 153.13
  Q 56.19 154.79 52.60 158.52
  C 51.22 159.95 49.66 160.99 48.14 162.28
  Q 47.74 162.62 47.21 162.62
  L 46.72 162.62
  A 1.48 1.48 0.0 0 0 45.74 162.99
  Q 40.33 167.83 34.27 171.83
  Q 34.09 171.94 31.32 174.29
  Q 30.07 175.34 28.02 176.42
  Q 25.74 177.62 21.66 182.13
  Q 21.33 182.50 20.86 182.69
  Q 19.70 183.17 18.46 184.45
  Q 17.87 185.05 17.28 184.51
  Q 16.98 184.24 16.59 184.33
  C 12.45 185.26 10.25 179.11 8.93 176.71
  C 7.02 173.26 7.29 166.42 7.58 162.54
  L 9.68 162.57
  A 0.81 0.80 9.9 0 0 10.46 162.03
  Q 10.80 161.08 11.48 160.43
  A 1.53 1.51 -70.2 0 1 12.27 160.05
  Q 14.40 159.74 15.83 158.13
  Q 16.15 157.77 16.25 157.30
  Q 16.45 156.31 17.28 155.73
  Q 17.74 155.40 17.19 155.28
  Q 16.97 155.23 16.76 155.43
  Q 16.36 155.80 16.36 155.25
  L 16.36 154.78
  Q 16.37 154.42 16.68 154.23
  C 18.76 152.97 20.88 151.77 22.79 150.23
  C 26.84 146.99 30.05 144.86 33.25 142.31
  C 35.11 140.83 37.35 140.21 38.99 138.73
  Q 41.42 136.54 43.92 134.43
  C 45.16 133.38 46.68 132.76 48.06 131.79
  A 0.74 0.73 -19.9 0 0 48.37 131.14
  Q 48.33 130.64 48.77 130.61
  Q 49.17 130.58 49.46 130.30
  C 51.11 128.65 53.19 127.72 54.78 126.33
  Q 58.27 123.28 61.88 120.39
  C 62.41 119.96 63.13 119.89 63.49 119.51
  C 66.17 116.70 69.43 115.16 72.22 112.52
  Q 75.35 109.56 79.29 107.72
  Q 79.74 107.51 79.85 107.03
  Q 79.96 106.60 80.21 106.44
  Q 85.14 103.12 89.66 99.24
  Q 90.02 98.94 90.09 98.60
  Q 90.14 98.38 90.14 98.16
  Q 90.15 97.76 90.53 97.62
  Q 93.24 96.68 95.26 94.73
  C 97.28 92.78 98.24 91.94 99.79 90.55
  C 101.34 89.17 103.33 88.24 104.97 86.78
  C 107.19 84.81 109.69 84.03 111.54 82.17
  Q 115.06 78.63 119.41 76.17
  Q 119.78 75.95 119.92 75.64
  Q 120.00 75.45 120.06 75.25
  Q 120.16 74.87 120.50 74.67
  Q 122.59 73.36 124.46 71.73
  C 125.28 71.01 126.35 70.85 127.00 70.36
  Q 128.56 69.15 132.44 65.48
  Q 132.79 65.15 133.27 65.11
  Q 133.47 65.10 133.67 65.11
  Q 134.09 65.13 134.42 64.87
  L 137.83 62.09
  Q 138.22 61.78 138.71 61.84
  C 140.52 62.04 140.48 60.82 141.84 60.20
  Q 142.29 59.99 142.30 59.49
  L 142.32 57.28
  Z"
/>
<path fill="#c5c18e" d="
  M 11.58 189.24
  L 18.10 192.28
  A 0.69 0.65 -30.5 0 0 18.40 192.35
  C 19.94 192.36 21.50 193.13 22.88 193.11
  Q 77.29 192.31 131.71 193.11
  Q 132.14 193.12 132.77 192.96
  Q 134.24 192.58 133.68 193.92
  Q 58.03 194.11 24.50 193.99
  Q 18.85 193.97 13.31 191.31
  A 1.18 1.17 -46.3 0 0 12.24 191.34
  Q 11.65 191.65 10.98 191.50
  A 0.70 0.69 7.9 0 1 10.44 190.79
  Q 10.47 190.13 10.88 189.47
  Q 10.90 189.30 11.58 189.24
  Z"
/>
<path fill="#c5c18e" d="
  M 140.76 191.29
  Q 140.95 191.34 141.24 191.27
  Q 142.34 191.06 143.38 190.19
  A 0.25 0.24 -4.8 0 1 143.75 190.50
  Q 143.07 191.65 141.76 192.07
  Q 141.26 192.23 141.01 191.76
  L 140.76 191.29
  Z"
/>
</svg>
