<?xml version="1.0" encoding="UTF-8" standalone="no"?>
<!DOCTYPE svg PUBLIC "-//W3C//DTD SVG 1.1//EN" "http://www.w3.org/Graphics/SVG/1.1/DTD/svg11.dtd">
<svg xmlns="http://www.w3.org/2000/svg" version="1.1" viewBox="0.00 0.00 197.00 256.00">
<g stroke-width="2.00" fill="none" stroke-linecap="butt">
<path stroke="#f9dad6" vector-effect="non-scaling-stroke" d="
  M 195.65 31.94
  Q 195.35 32.05 195.08 32.29"
/>
<path stroke="#bca299" vector-effect="non-scaling-stroke" d="
  M 195.08 32.29
  Q 194.73 17.11 183.43 10.14"
/>
<path stroke="#fd615a" vector-effect="non-scaling-stroke" d="
  M 183.43 10.14
  Q 176.36 5.32 170.25 5.32
  Q 99.25 5.39 28.25 5.52
  C 18.42 5.54 9.57 12.35 6.55 21.48
  Q 5.32 25.22 5.32 34.65
  Q 5.32 128.58 5.28 222.50
  Q 5.28 231.78 7.76 238.26"
/>
<path stroke="#f9dad6" vector-effect="non-scaling-stroke" d="
  M 7.76 238.26
  Q 7.10 238.05 6.56 238.23"
/>
<path stroke="#bf4141" vector-effect="non-scaling-stroke" d="
  M 183.43 10.14
  Q 184.91 12.35 186.53 14.45
  Q 188.59 17.10 189.40 18.89
  Q 191.83 24.21 191.83 29.75
  C 191.85 67.16 191.66 104.59 192.06 142.00
  C 192.33 167.99 191.77 194.00 191.89 220.00
  C 191.94 230.07 191.33 238.24 183.50 245.01
  C 175.99 251.51 168.42 250.63 159.24 251.03"
/>
<path stroke="#ff2021" vector-effect="non-scaling-stroke" d="
  M 159.24 251.03
  L 49.78 250.99"
/>
<path stroke="#bf4141" vector-effect="non-scaling-stroke" d="
  M 49.78 250.99
  Q 33.97 251.64 25.16 250.44
  Q 19.03 249.61 11.04 243.34"
/>
<path stroke="#fc797d" vector-effect="non-scaling-stroke" d="
  M 11.04 243.34
  Q 9.26 241.63 7.76 238.26"
/>
<path stroke="#bbbabd" vector-effect="non-scaling-stroke" d="
  M 195.08 32.29
  Q 195.09 130.19 195.01 228.25
  Q 195.00 237.64 189.28 245.23
  C 187.21 247.98 184.33 249.64 181.39 251.45
  Q 179.18 252.80 176.46 253.12
  Q 169.08 254.00 161.39 254.54"
/>
<path stroke="#bbbabd" vector-effect="non-scaling-stroke" d="
  M 29.42 254.53
  Q 27.09 252.97 24.07 253.12
  A 1.87 1.83 -31.1 0 1 23.10 252.89
  Q 20.82 251.59 18.38 250.63
  Q 14.21 249.00 11.04 243.34"
/>
<path stroke="#bf6161" vector-effect="non-scaling-stroke" d="
  M 49.78 250.99
  C 61.18 251.30 72.56 251.32 83.94 251.63
  C 90.92 251.81 97.98 251.28 104.98 251.46
  C 114.68 251.72 125.48 251.23 138.51 251.83
  Q 138.62 251.84 138.71 251.78
  Q 138.82 251.70 138.95 251.63
  Q 139.00 251.60 139.06 251.61
  Q 149.23 252.02 159.24 251.03"
/>
<path stroke="#ff3838" vector-effect="non-scaling-stroke" d="
  M 9.74 52.58
  L 9.73 95.56"
/>
<path stroke="#ff3030" vector-effect="non-scaling-stroke" d="
  M 9.73 95.56
  L 9.79 133.46"
/>
<path stroke="#ff2929" vector-effect="non-scaling-stroke" d="
  M 9.79 133.46
  L 9.79 148.82"
/>
<path stroke="#ff2021" vector-effect="non-scaling-stroke" d="
  M 9.79 148.82
  L 9.85 180.91"
/>
<path stroke="#ff1617" vector-effect="non-scaling-stroke" d="
  M 9.85 180.91
  L 9.82 224.51
  A 1.72 1.71 73.8 0 0 12.46 225.96
  Q 12.95 225.65 13.22 225.25
  Q 13.51 224.84 14.00 224.70
  Q 15.05 224.42 15.52 224.02
  Q 18.65 221.34 22.04 218.98
  C 24.07 217.57 25.54 215.96 27.23 214.26
  C 28.88 212.60 30.90 212.28 32.75 211.01
  Q 32.88 210.92 32.89 210.71
  Q 32.89 210.46 33.09 210.32
  Q 42.11 204.03 50.74 197.22
  Q 52.99 195.45 58.55 191.72
  Q 62.53 189.05 66.08 185.80
  Q 66.81 185.13 67.82 184.68
  C 70.01 183.70 71.84 181.44 73.55 179.77
  Q 74.66 178.68 77.32 176.99
  Q 79.15 175.82 81.02 174.03
  Q 82.91 172.21 86.03 170.11
  C 89.40 167.85 91.91 165.70 94.73 163.22
  Q 94.79 163.16 94.86 163.15
  Q 95.00 163.11 95.13 163.11
  Q 95.24 163.10 95.32 163.02
  C 97.97 160.54 101.19 158.82 103.86 156.62
  Q 106.09 154.78 108.53 153.21
  C 111.26 151.46 113.42 149.54 115.94 147.68
  C 122.86 142.59 129.43 136.96 136.15 131.60
  C 138.45 129.78 141.39 128.10 143.89 126.13
  C 147.01 123.67 150.55 121.29 153.53 118.56
  Q 155.53 116.74 157.57 115.37
  Q 161.50 112.73 167.47 108.08
  C 173.34 103.51 178.96 99.66 181.89 95.51
  Q 182.19 95.08 182.68 94.88
  Q 183.65 94.49 184.09 93.53
  Q 184.18 93.35 184.37 93.38
  Q 184.65 93.43 184.84 92.98
  Q 185.25 92.04 185.80 90.97
  Q 185.97 90.63 185.97 91.01
  Q 185.97 91.28 186.14 91.47
  Q 186.51 91.91 186.67 91.36
  C 186.93 90.52 187.38 89.74 187.39 88.88
  Q 187.40 62.83 187.41 36.79"
/>
<path stroke="#ff2021" vector-effect="non-scaling-stroke" d="
  M 187.41 36.79
  C 187.62 27.48 185.62 19.64 177.82 14.03"
/>
<path stroke="#ff2929" vector-effect="non-scaling-stroke" d="
  M 177.82 14.03
  Q 172.29 10.58 166.54 9.88"
/>
<path stroke="#ff3030" vector-effect="non-scaling-stroke" d="
  M 166.54 9.88
  L 119.31 9.81"
/>
<path stroke="#ff3838" vector-effect="non-scaling-stroke" d="
  M 119.31 9.81
  L 65.17 9.79"
/>
<path stroke="#ff4445" vector-effect="non-scaling-stroke" d="
  M 65.17 9.79
  Q 48.80 9.74 32.74 9.93
  C 20.06 10.08 9.97 19.05 9.78 32.01
  Q 9.63 42.24 9.74 52.58"
/>
<path stroke="#ff7c7c" vector-effect="non-scaling-stroke" d="
  M 65.17 9.79
  Q 64.69 11.07 62.31 11.44
  Q 61.62 11.54 61.67 12.24
  Q 61.72 13.14 60.49 12.86
  A 1.47 1.46 34.7 0 0 59.36 13.06
  Q 51.32 18.35 43.87 24.42
  Q 42.23 25.75 40.22 27.11
  C 37.59 28.90 35.85 31.07 33.40 32.13
  Q 33.04 32.29 32.95 32.67
  Q 32.86 33.04 32.40 33.40
  Q 30.59 34.79 29.29 35.65
  C 24.65 38.73 20.79 42.71 16.03 45.59
  Q 14.40 46.58 13.76 47.66
  Q 12.91 49.09 11.81 49.50
  Q 11.37 49.67 11.14 50.08
  L 9.74 52.58"
/>
<path stroke="#ff6767" vector-effect="non-scaling-stroke" d="
  M 119.31 9.81
  Q 116.22 10.49 115.17 12.49
  Q 114.94 12.93 114.45 13.02
  L 113.11 13.26
  Q 112.60 13.35 112.31 13.80
  Q 111.44 15.15 110.12 15.95
  Q 108.37 17.02 107.89 17.44
  Q 103.18 21.62 98.25 25.54
  C 96.21 27.16 93.80 29.40 91.45 31.13
  Q 88.60 33.23 86.34 35.23
  Q 81.17 39.80 75.22 43.30
  C 72.71 44.78 70.78 46.94 68.47 48.72
  Q 68.08 49.01 67.60 49.12
  C 65.68 49.57 65.37 51.42 64.45 52.38
  C 61.64 55.31 58.14 56.83 55.57 59.96
  C 54.16 61.69 51.91 63.45 49.46 64.46
  Q 46.92 65.50 45.87 66.37
  Q 33.18 76.74 27.98 79.72
  Q 25.90 80.90 24.50 82.05
  C 22.03 84.08 19.79 85.31 17.59 87.17
  Q 17.24 87.47 16.79 87.60
  Q 15.89 87.86 15.50 88.74
  Q 15.35 89.09 15.18 89.23
  Q 15.02 89.37 14.84 89.46
  Q 14.51 89.63 14.28 89.92
  Q 13.64 90.75 12.87 91.22
  Q 12.44 91.49 12.17 91.91
  Q 11.56 92.87 10.46 93.35
  Q 10.04 93.54 10.11 93.99
  Q 10.28 95.10 9.73 95.56"
/>
<path stroke="#ff5858" vector-effect="non-scaling-stroke" d="
  M 166.54 9.88
  Q 165.23 11.32 164.21 12.66
  Q 163.57 13.51 162.78 14.08
  Q 161.96 14.66 161.14 15.25
  C 159.58 16.38 158.23 18.07 156.51 19.30
  Q 156.09 19.60 155.73 19.23
  L 155.36 18.87
  A 0.69 0.69 0.0 0 0 154.49 18.78
  Q 153.83 19.21 153.86 19.98
  Q 153.88 20.47 153.47 20.74
  Q 148.55 24.03 143.94 27.72
  Q 139.07 31.62 135.79 33.95
  Q 131.61 36.93 127.51 40.02
  Q 123.00 43.43 121.53 44.89
  Q 121.27 45.14 120.91 45.12
  Q 120.63 45.09 120.42 45.41
  Q 119.37 47.00 117.71 47.93
  Q 113.93 50.04 110.86 53.00
  Q 109.15 54.65 106.91 56.14
  Q 104.79 57.54 102.98 59.35
  C 101.63 60.70 99.92 61.34 98.55 62.74
  Q 98.38 62.92 98.38 63.16
  Q 98.38 63.30 98.38 63.44
  Q 98.36 63.78 98.02 63.81
  C 94.81 64.11 91.06 68.15 88.52 70.11
  A 0.93 0.88 -9.7 0 0 88.22 70.51
  Q 87.92 71.31 86.97 71.84
  Q 83.55 73.76 80.13 76.53
  Q 75.66 80.14 73.61 81.61
  Q 69.03 84.91 61.88 90.39
  Q 59.49 92.22 57.88 93.64
  C 54.67 96.44 51.41 98.47 48.21 101.02
  Q 44.82 103.72 42.63 105.28
  Q 37.71 108.79 32.91 112.47
  Q 32.66 112.66 32.64 112.97
  Q 32.63 113.22 32.38 113.37
  Q 28.59 115.65 25.09 118.31
  Q 24.91 118.45 18.75 122.94
  Q 15.39 125.39 12.55 128.47
  A 0.58 0.58 0.0 0 1 11.99 128.64
  Q 11.62 128.55 11.47 128.74
  Q 9.90 130.77 9.79 133.46"
/>
<path stroke="#ff4949" vector-effect="non-scaling-stroke" d="
  M 177.82 14.03
  Q 177.62 14.68 177.79 14.98
  Q 178.00 15.33 177.86 15.70
  Q 177.62 16.34 176.99 16.62
  Q 176.56 16.82 176.38 17.25
  Q 175.78 18.72 174.04 19.93
  C 172.39 21.08 171.04 23.25 169.13 24.78
  C 167.78 25.86 166.84 27.23 165.42 28.19
  C 163.72 29.34 162.29 30.75 160.46 31.76
  C 158.33 32.93 156.65 34.53 154.37 36.12
  Q 148.68 40.08 142.44 46.31
  C 140.89 47.85 138.79 48.77 137.11 50.36
  Q 135.17 52.20 132.99 53.74
  C 132.07 54.38 131.30 55.33 130.13 55.90
  Q 128.43 56.73 127.85 57.21
  Q 123.11 61.07 120.76 62.75
  Q 120.10 63.22 120.08 63.66
  Q 120.06 64.09 119.73 64.37
  Q 116.42 67.07 112.93 69.52
  Q 112.32 69.95 111.93 70.64
  A 1.94 1.87 -89.4 0 1 111.26 71.32
  Q 107.64 73.48 104.40 76.17
  Q 101.51 78.58 98.20 80.80
  Q 95.12 82.86 92.03 85.54
  C 88.48 88.62 84.37 91.32 80.67 94.52
  Q 74.83 99.59 68.32 103.80
  C 66.29 105.12 63.88 107.75 61.61 109.41
  Q 47.23 119.90 33.06 130.67
  Q 32.82 130.85 32.67 130.59
  Q 32.61 130.48 32.53 130.37
  Q 32.39 130.15 32.15 130.28
  Q 28.65 132.18 25.37 134.42
  Q 21.71 136.93 18.01 139.37
  C 16.54 140.34 15.22 141.70 13.89 142.88
  C 13.08 143.60 11.92 144.03 11.03 144.81
  Q 10.66 145.13 10.54 145.61
  L 9.79 148.82"
/>
<path stroke="#ff3637" vector-effect="non-scaling-stroke" d="
  M 187.41 36.79
  L 187.03 43.00
  Q 187.01 43.39 186.71 43.13
  Q 186.50 42.95 186.65 42.52
  Q 186.69 42.37 186.54 42.37
  Q 186.39 42.37 186.24 42.38
  Q 185.99 42.39 185.93 42.63
  Q 185.57 44.05 184.29 44.65
  Q 183.92 44.82 183.89 45.23
  Q 183.85 45.89 183.27 46.11
  Q 182.82 46.28 182.49 46.62
  Q 179.40 49.77 176.32 52.92
  Q 176.12 53.12 176.01 53.38
  C 175.17 55.38 173.15 56.13 170.73 57.60
  Q 167.68 59.45 164.57 63.71
  C 162.98 65.89 160.94 66.80 158.94 68.50
  Q 156.47 70.60 154.51 71.83
  C 149.39 75.07 145.06 79.22 139.89 82.33
  C 138.12 83.40 136.79 84.79 135.30 86.14
  Q 133.99 87.32 131.65 88.71
  Q 128.53 90.55 125.96 93.11
  Q 123.64 95.42 121.53 96.79
  Q 118.54 98.75 115.76 101.01
  C 114.98 101.65 114.58 102.50 113.76 103.01
  Q 108.62 106.21 103.87 109.97
  Q 103.66 110.14 103.52 110.41
  C 103.31 110.86 103.10 111.26 102.64 111.53
  Q 98.90 113.79 95.90 116.89
  Q 93.63 119.23 91.58 120.47
  Q 87.60 122.86 83.66 125.30
  Q 82.56 125.98 81.58 127.01
  Q 80.15 128.50 79.60 128.85
  C 76.10 131.04 72.56 134.15 69.75 136.15
  C 67.52 137.74 65.26 139.26 63.17 141.07
  Q 59.79 143.99 56.37 146.88
  C 53.75 149.09 50.56 150.87 47.73 153.07
  Q 44.81 155.33 41.89 157.56
  Q 40.67 158.51 35.81 161.70
  C 33.07 163.50 30.37 165.97 27.99 167.68
  Q 22.62 171.55 17.51 175.75
  Q 15.53 177.38 13.78 178.49
  Q 11.87 179.71 9.85 180.91"
/>
</g>
<path fill="#f8f2f9" d="
  M 175.25 0.94
  A 0.55 0.10 28.5 0 1 175.64 1.25
  Q 175.70 1.77 175.25 2.12
  Q 174.91 2.38 174.63 2.06
  L 174.45 1.85
  Q 174.15 1.52 174.47 1.21
  Q 174.93 0.75 175.25 0.94
  Z"
/>
<path fill="#f8f2f9" d="
  M 22.21 1.25
  Q 22.95 0.74 23.60 1.30
  A 0.22 0.22 0.0 0 1 23.55 1.67
  Q 22.78 2.05 22.19 1.54
  A 0.19 0.18 -42.2 0 1 22.21 1.25
  Z"
/>
<path fill="#f8f2f9" d="
  M 182.73 4.66
  Q 182.88 4.00 183.33 3.53
  Q 183.78 3.06 183.94 3.69
  Q 184.14 4.46 183.24 4.80
  Q 182.92 4.91 182.50 4.88
  Q 182.50 4.88 182.55 4.85
  Q 182.58 4.83 182.62 4.81
  Q 182.70 4.76 182.73 4.66
  Z"
/>
<path fill="#fac2b2" d="
  M 195.65 31.94
  Q 195.35 32.05 195.08 32.29
  Q 194.73 17.11 183.43 10.14
  Q 176.36 5.32 170.25 5.32
  Q 99.25 5.39 28.25 5.52
  C 18.42 5.54 9.57 12.35 6.55 21.48
  Q 5.32 25.22 5.32 34.65
  Q 5.32 128.58 5.28 222.50
  Q 5.28 231.78 7.76 238.26
  Q 7.10 238.05 6.56 238.23
  Q 6.10 238.04 5.69 237.79
  Q 5.20 237.50 5.15 237.05
  Q 5.10 236.68 5.29 236.27
  A 0.88 0.88 0.0 0 0 5.36 235.77
  C 4.88 232.74 4.00 229.84 4.00 226.80
  Q 4.02 128.18 4.00 29.56
  C 4.00 26.29 4.81 23.32 5.50 20.18
  A 0.35 0.33 43.4 0 0 5.49 20.00
  L 5.15 18.94
  A 0.43 0.43 0.0 0 1 5.70 18.40
  L 6.25 18.60
  Q 6.46 18.67 6.52 18.45
  C 7.61 14.02 13.44 10.22 16.69 7.32
  Q 17.07 6.98 17.56 6.87
  Q 18.50 6.65 18.41 5.73
  A 0.58 0.57 7.5 0 1 19.18 5.14
  Q 19.42 5.23 19.62 5.39
  Q 20.03 5.73 20.53 5.54
  Q 24.57 4.01 27.00 4.01
  Q 96.00 3.98 165.00 4.02
  Q 169.72 4.02 173.37 4.78
  Q 174.17 4.94 174.58 4.70
  Q 174.98 4.46 175.10 3.99
  Q 175.25 3.42 175.76 3.71
  Q 177.02 4.42 178.52 4.27
  A 0.27 0.27 0.0 0 1 178.72 4.75
  Q 178.29 5.10 177.72 5.00
  Q 177.20 4.91 177.19 5.44
  Q 177.19 5.71 177.48 5.86
  Q 179.18 6.75 181.10 7.12
  Q 181.65 7.22 181.84 7.74
  Q 182.20 8.74 183.13 8.39
  Q 183.62 8.20 184.02 8.54
  Q 184.59 9.03 185.06 8.50
  Q 185.23 8.30 185.47 8.42
  Q 185.58 8.48 185.67 8.58
  Q 185.71 8.63 185.66 8.67
  L 185.41 8.92
  A 0.33 0.33 0.0 0 0 185.40 9.40
  Q 195.94 19.60 195.65 31.94
  Z"
/>
<path fill="#ff0001" d="
  M 183.43 10.14
  Q 184.91 12.35 186.53 14.45
  Q 188.59 17.10 189.40 18.89
  Q 191.83 24.21 191.83 29.75
  C 191.85 67.16 191.66 104.59 192.06 142.00
  C 192.33 167.99 191.77 194.00 191.89 220.00
  C 191.94 230.07 191.33 238.24 183.50 245.01
  C 175.99 251.51 168.42 250.63 159.24 251.03
  L 49.78 250.99
  Q 33.97 251.64 25.16 250.44
  Q 19.03 249.61 11.04 243.34
  Q 9.26 241.63 7.76 238.26
  Q 5.28 231.78 5.28 222.50
  Q 5.32 128.58 5.32 34.65
  Q 5.32 25.22 6.55 21.48
  C 9.57 12.35 18.42 5.54 28.25 5.52
  Q 99.25 5.39 170.25 5.32
  Q 176.36 5.32 183.43 10.14
  Z
  M 9.74 52.58
  L 9.73 95.56
  L 9.79 133.46
  L 9.79 148.82
  L 9.85 180.91
  L 9.82 224.51
  A 1.72 1.71 73.8 0 0 12.46 225.96
  Q 12.95 225.65 13.22 225.25
  Q 13.51 224.84 14.00 224.70
  Q 15.05 224.42 15.52 224.02
  Q 18.65 221.34 22.04 218.98
  C 24.07 217.57 25.54 215.96 27.23 214.26
  C 28.88 212.60 30.90 212.28 32.75 211.01
  Q 32.88 210.92 32.89 210.71
  Q 32.89 210.46 33.09 210.32
  Q 42.11 204.03 50.74 197.22
  Q 52.99 195.45 58.55 191.72
  Q 62.53 189.05 66.08 185.80
  Q 66.81 185.13 67.82 184.68
  C 70.01 183.70 71.84 181.44 73.55 179.77
  Q 74.66 178.68 77.32 176.99
  Q 79.15 175.82 81.02 174.03
  Q 82.91 172.21 86.03 170.11
  C 89.40 167.85 91.91 165.70 94.73 163.22
  Q 94.79 163.16 94.86 163.15
  Q 95.00 163.11 95.13 163.11
  Q 95.24 163.10 95.32 163.02
  C 97.97 160.54 101.19 158.82 103.86 156.62
  Q 106.09 154.78 108.53 153.21
  C 111.26 151.46 113.42 149.54 115.94 147.68
  C 122.86 142.59 129.43 136.96 136.15 131.60
  C 138.45 129.78 141.39 128.10 143.89 126.13
  C 147.01 123.67 150.55 121.29 153.53 118.56
  Q 155.53 116.74 157.57 115.37
  Q 161.50 112.73 167.47 108.08
  C 173.34 103.51 178.96 99.66 181.89 95.51
  Q 182.19 95.08 182.68 94.88
  Q 183.65 94.49 184.09 93.53
  Q 184.18 93.35 184.37 93.38
  Q 184.65 93.43 184.84 92.98
  Q 185.25 92.04 185.80 90.97
  Q 185.97 90.63 185.97 91.01
  Q 185.97 91.28 186.14 91.47
  Q 186.51 91.91 186.67 91.36
  C 186.93 90.52 187.38 89.74 187.39 88.88
  Q 187.40 62.83 187.41 36.79
  C 187.62 27.48 185.62 19.64 177.82 14.03
  Q 172.29 10.58 166.54 9.88
  L 119.31 9.81
  L 65.17 9.79
  Q 48.80 9.74 32.74 9.93
  C 20.06 10.08 9.97 19.05 9.78 32.01
  Q 9.63 42.24 9.74 52.58
  Z"
/>
<path fill="#ff8888" d="
  M 65.17 9.79
  Q 64.69 11.07 62.31 11.44
  Q 61.62 11.54 61.67 12.24
  Q 61.72 13.14 60.49 12.86
  A 1.47 1.46 34.7 0 0 59.36 13.06
  Q 51.32 18.35 43.87 24.42
  Q 42.23 25.75 40.22 27.11
  C 37.59 28.90 35.85 31.07 33.40 32.13
  Q 33.04 32.29 32.95 32.67
  Q 32.86 33.04 32.40 33.40
  Q 30.59 34.79 29.29 35.65
  C 24.65 38.73 20.79 42.71 16.03 45.59
  Q 14.40 46.58 13.76 47.66
  Q 12.91 49.09 11.81 49.50
  Q 11.37 49.67 11.14 50.08
  L 9.74 52.58
  Q 9.63 42.24 9.78 32.01
  C 9.97 19.05 20.06 10.08 32.74 9.93
  Q 48.80 9.74 65.17 9.79
  Z"
/>
<path fill="#ff6f6f" d="
  M 65.17 9.79
  L 119.31 9.81
  Q 116.22 10.49 115.17 12.49
  Q 114.94 12.93 114.45 13.02
  L 113.11 13.26
  Q 112.60 13.35 112.31 13.80
  Q 111.44 15.15 110.12 15.95
  Q 108.37 17.02 107.89 17.44
  Q 103.18 21.62 98.25 25.54
  C 96.21 27.16 93.80 29.40 91.45 31.13
  Q 88.60 33.23 86.34 35.23
  Q 81.17 39.80 75.22 43.30
  C 72.71 44.78 70.78 46.94 68.47 48.72
  Q 68.08 49.01 67.60 49.12
  C 65.68 49.57 65.37 51.42 64.45 52.38
  C 61.64 55.31 58.14 56.83 55.57 59.96
  C 54.16 61.69 51.91 63.45 49.46 64.46
  Q 46.92 65.50 45.87 66.37
  Q 33.18 76.74 27.98 79.72
  Q 25.90 80.90 24.50 82.05
  C 22.03 84.08 19.79 85.31 17.59 87.17
  Q 17.24 87.47 16.79 87.60
  Q 15.89 87.86 15.50 88.74
  Q 15.35 89.09 15.18 89.23
  Q 15.02 89.37 14.84 89.46
  Q 14.51 89.63 14.28 89.92
  Q 13.64 90.75 12.87 91.22
  Q 12.44 91.49 12.17 91.91
  Q 11.56 92.87 10.46 93.35
  Q 10.04 93.54 10.11 93.99
  Q 10.28 95.10 9.73 95.56
  L 9.74 52.58
  L 11.14 50.08
  Q 11.37 49.67 11.81 49.50
  Q 12.91 49.09 13.76 47.66
  Q 14.40 46.58 16.03 45.59
  C 20.79 42.71 24.65 38.73 29.29 35.65
  Q 30.59 34.79 32.40 33.40
  Q 32.86 33.04 32.95 32.67
  Q 33.04 32.29 33.40 32.13
  C 35.85 31.07 37.59 28.90 40.22 27.11
  Q 42.23 25.75 43.87 24.42
  Q 51.32 18.35 59.36 13.06
  A 1.47 1.46 34.7 0 1 60.49 12.86
  Q 61.72 13.14 61.67 12.24
  Q 61.62 11.54 62.31 11.44
  Q 64.69 11.07 65.17 9.79
  Z"
/>
<path fill="#ff5f5f" d="
  M 119.31 9.81
  L 166.54 9.88
  Q 165.23 11.32 164.21 12.66
  Q 163.57 13.51 162.78 14.08
  Q 161.96 14.66 161.14 15.25
  C 159.58 16.38 158.23 18.07 156.51 19.30
  Q 156.09 19.60 155.73 19.23
  L 155.36 18.87
  A 0.69 0.69 0.0 0 0 154.49 18.78
  Q 153.83 19.21 153.86 19.98
  Q 153.88 20.47 153.47 20.74
  Q 148.55 24.03 143.94 27.72
  Q 139.07 31.62 135.79 33.95
  Q 131.61 36.93 127.51 40.02
  Q 123.00 43.43 121.53 44.89
  Q 121.27 45.14 120.91 45.12
  Q 120.63 45.09 120.42 45.41
  Q 119.37 47.00 117.71 47.93
  Q 113.93 50.04 110.86 53.00
  Q 109.15 54.65 106.91 56.14
  Q 104.79 57.54 102.98 59.35
  C 101.63 60.70 99.92 61.34 98.55 62.74
  Q 98.38 62.92 98.38 63.16
  Q 98.38 63.30 98.38 63.44
  Q 98.36 63.78 98.02 63.81
  C 94.81 64.11 91.06 68.15 88.52 70.11
  A 0.93 0.88 -9.7 0 0 88.22 70.51
  Q 87.92 71.31 86.97 71.84
  Q 83.55 73.76 80.13 76.53
  Q 75.66 80.14 73.61 81.61
  Q 69.03 84.91 61.88 90.39
  Q 59.49 92.22 57.88 93.64
  C 54.67 96.44 51.41 98.47 48.21 101.02
  Q 44.82 103.72 42.63 105.28
  Q 37.71 108.79 32.91 112.47
  Q 32.66 112.66 32.64 112.97
  Q 32.63 113.22 32.38 113.37
  Q 28.59 115.65 25.09 118.31
  Q 24.91 118.45 18.75 122.94
  Q 15.39 125.39 12.55 128.47
  A 0.58 0.58 0.0 0 1 11.99 128.64
  Q 11.62 128.55 11.47 128.74
  Q 9.90 130.77 9.79 133.46
  L 9.73 95.56
  Q 10.28 95.10 10.11 93.99
  Q 10.04 93.54 10.46 93.35
  Q 11.56 92.87 12.17 91.91
  Q 12.44 91.49 12.87 91.22
  Q 13.64 90.75 14.28 89.92
  Q 14.51 89.63 14.84 89.46
  Q 15.02 89.37 15.18 89.23
  Q 15.35 89.09 15.50 88.74
  Q 15.89 87.86 16.79 87.60
  Q 17.24 87.47 17.59 87.17
  C 19.79 85.31 22.03 84.08 24.50 82.05
  Q 25.90 80.90 27.98 79.72
  Q 33.18 76.74 45.87 66.37
  Q 46.92 65.50 49.46 64.46
  C 51.91 63.45 54.16 61.69 55.57 59.96
  C 58.14 56.83 61.64 55.31 64.45 52.38
  C 65.37 51.42 65.68 49.57 67.60 49.12
  Q 68.08 49.01 68.47 48.72
  C 70.78 46.94 72.71 44.78 75.22 43.30
  Q 81.17 39.80 86.34 35.23
  Q 88.60 33.23 91.45 31.13
  C 93.80 29.40 96.21 27.16 98.25 25.54
  Q 103.18 21.62 107.89 17.44
  Q 108.37 17.02 110.12 15.95
  Q 111.44 15.15 112.31 13.80
  Q 112.60 13.35 113.11 13.26
  L 114.45 13.02
  Q 114.94 12.93 115.17 12.49
  Q 116.22 10.49 119.31 9.81
  Z"
/>
<path fill="#ff5151" d="
  M 166.54 9.88
  Q 172.29 10.58 177.82 14.03
  Q 177.62 14.68 177.79 14.98
  Q 178.00 15.33 177.86 15.70
  Q 177.62 16.34 176.99 16.62
  Q 176.56 16.82 176.38 17.25
  Q 175.78 18.72 174.04 19.93
  C 172.39 21.08 171.04 23.25 169.13 24.78
  C 167.78 25.86 166.84 27.23 165.42 28.19
  C 163.72 29.34 162.29 30.75 160.46 31.76
  C 158.33 32.93 156.65 34.53 154.37 36.12
  Q 148.68 40.08 142.44 46.31
  C 140.89 47.85 138.79 48.77 137.11 50.36
  Q 135.17 52.20 132.99 53.74
  C 132.07 54.38 131.30 55.33 130.13 55.90
  Q 128.43 56.73 127.85 57.21
  Q 123.11 61.07 120.76 62.75
  Q 120.10 63.22 120.08 63.66
  Q 120.06 64.09 119.73 64.37
  Q 116.42 67.07 112.93 69.52
  Q 112.32 69.95 111.93 70.64
  A 1.94 1.87 -89.4 0 1 111.26 71.32
  Q 107.64 73.48 104.40 76.17
  Q 101.51 78.58 98.20 80.80
  Q 95.12 82.86 92.03 85.54
  C 88.48 88.62 84.37 91.32 80.67 94.52
  Q 74.83 99.59 68.32 103.80
  C 66.29 105.12 63.88 107.75 61.61 109.41
  Q 47.23 119.90 33.06 130.67
  Q 32.82 130.85 32.67 130.59
  Q 32.61 130.48 32.53 130.37
  Q 32.39 130.15 32.15 130.28
  Q 28.65 132.18 25.37 134.42
  Q 21.71 136.93 18.01 139.37
  C 16.54 140.34 15.22 141.70 13.89 142.88
  C 13.08 143.60 11.92 144.03 11.03 144.81
  Q 10.66 145.13 10.54 145.61
  L 9.79 148.82
  L 9.79 133.46
  Q 9.90 130.77 11.47 128.74
  Q 11.62 128.55 11.99 128.64
  A 0.58 0.58 0.0 0 0 12.55 128.47
  Q 15.39 125.39 18.75 122.94
  Q 24.91 118.45 25.09 118.31
  Q 28.59 115.65 32.38 113.37
  Q 32.63 113.22 32.64 112.97
  Q 32.66 112.66 32.91 112.47
  Q 37.71 108.79 42.63 105.28
  Q 44.82 103.72 48.21 101.02
  C 51.41 98.47 54.67 96.44 57.88 93.64
  Q 59.49 92.22 61.88 90.39
  Q 69.03 84.91 73.61 81.61
  Q 75.66 80.14 80.13 76.53
  Q 83.55 73.76 86.97 71.84
  Q 87.92 71.31 88.22 70.51
  A 0.93 0.88 -9.7 0 1 88.52 70.11
  C 91.06 68.15 94.81 64.11 98.02 63.81
  Q 98.36 63.78 98.38 63.44
  Q 98.38 63.30 98.38 63.16
  Q 98.38 62.92 98.55 62.74
  C 99.92 61.34 101.63 60.70 102.98 59.35
  Q 104.79 57.54 106.91 56.14
  Q 109.15 54.65 110.86 53.00
  Q 113.93 50.04 117.71 47.93
  Q 119.37 47.00 120.42 45.41
  Q 120.63 45.09 120.91 45.12
  Q 121.27 45.14 121.53 44.89
  Q 123.00 43.43 127.51 40.02
  Q 131.61 36.93 135.79 33.95
  Q 139.07 31.62 143.94 27.72
  Q 148.55 24.03 153.47 20.74
  Q 153.88 20.47 153.86 19.98
  Q 153.83 19.21 154.49 18.78
  A 0.69 0.69 0.0 0 1 155.36 18.87
  L 155.73 19.23
  Q 156.09 19.60 156.51 19.30
  C 158.23 18.07 159.58 16.38 161.14 15.25
  Q 161.96 14.66 162.78 14.08
  Q 163.57 13.51 164.21 12.66
  Q 165.23 11.32 166.54 9.88
  Z"
/>
<path fill="#7e8180" d="
  M 183.43 10.14
  Q 194.73 17.11 195.08 32.29
  Q 195.09 130.19 195.01 228.25
  Q 195.00 237.64 189.28 245.23
  C 187.21 247.98 184.33 249.64 181.39 251.45
  Q 179.18 252.80 176.46 253.12
  Q 169.08 254.00 161.39 254.54
  C 157.13 254.54 152.55 254.00 148.54 254.00
  Q 93.02 254.00 37.50 254.00
  Q 34.99 254.00 29.42 254.53
  Q 27.09 252.97 24.07 253.12
  A 1.87 1.83 -31.1 0 1 23.10 252.89
  Q 20.82 251.59 18.38 250.63
  Q 14.21 249.00 11.04 243.34
  Q 19.03 249.61 25.16 250.44
  Q 33.97 251.64 49.78 250.99
  C 61.18 251.30 72.56 251.32 83.94 251.63
  C 90.92 251.81 97.98 251.28 104.98 251.46
  C 114.68 251.72 125.48 251.23 138.51 251.83
  Q 138.62 251.84 138.71 251.78
  Q 138.82 251.70 138.95 251.63
  Q 139.00 251.60 139.06 251.61
  Q 149.23 252.02 159.24 251.03
  C 168.42 250.63 175.99 251.51 183.50 245.01
  C 191.33 238.24 191.94 230.07 191.89 220.00
  C 191.77 194.00 192.33 167.99 192.06 142.00
  C 191.66 104.59 191.85 67.16 191.83 29.75
  Q 191.83 24.21 189.40 18.89
  Q 188.59 17.10 186.53 14.45
  Q 184.91 12.35 183.43 10.14
  Z"
/>
<path fill="#ff4041" d="
  M 177.82 14.03
  C 185.62 19.64 187.62 27.48 187.41 36.79
  L 187.03 43.00
  Q 187.01 43.39 186.71 43.13
  Q 186.50 42.95 186.65 42.52
  Q 186.69 42.37 186.54 42.37
  Q 186.39 42.37 186.24 42.38
  Q 185.99 42.39 185.93 42.63
  Q 185.57 44.05 184.29 44.65
  Q 183.92 44.82 183.89 45.23
  Q 183.85 45.89 183.27 46.11
  Q 182.82 46.28 182.49 46.62
  Q 179.40 49.77 176.32 52.92
  Q 176.12 53.12 176.01 53.38
  C 175.17 55.38 173.15 56.13 170.73 57.60
  Q 167.68 59.45 164.57 63.71
  C 162.98 65.89 160.94 66.80 158.94 68.50
  Q 156.47 70.60 154.51 71.83
  C 149.39 75.07 145.06 79.22 139.89 82.33
  C 138.12 83.40 136.79 84.79 135.30 86.14
  Q 133.99 87.32 131.65 88.71
  Q 128.53 90.55 125.96 93.11
  Q 123.64 95.42 121.53 96.79
  Q 118.54 98.75 115.76 101.01
  C 114.98 101.65 114.58 102.50 113.76 103.01
  Q 108.62 106.21 103.87 109.97
  Q 103.66 110.14 103.52 110.41
  C 103.31 110.86 103.10 111.26 102.64 111.53
  Q 98.90 113.79 95.90 116.89
  Q 93.63 119.23 91.58 120.47
  Q 87.60 122.86 83.66 125.30
  Q 82.56 125.98 81.58 127.01
  Q 80.15 128.50 79.60 128.85
  C 76.10 131.04 72.56 134.15 69.75 136.15
  C 67.52 137.74 65.26 139.26 63.17 141.07
  Q 59.79 143.99 56.37 146.88
  C 53.75 149.09 50.56 150.87 47.73 153.07
  Q 44.81 155.33 41.89 157.56
  Q 40.67 158.51 35.81 161.70
  C 33.07 163.50 30.37 165.97 27.99 167.68
  Q 22.62 171.55 17.51 175.75
  Q 15.53 177.38 13.78 178.49
  Q 11.87 179.71 9.85 180.91
  L 9.79 148.82
  L 10.54 145.61
  Q 10.66 145.13 11.03 144.81
  C 11.92 144.03 13.08 143.60 13.89 142.88
  C 15.22 141.70 16.54 140.34 18.01 139.37
  Q 21.71 136.93 25.37 134.42
  Q 28.65 132.18 32.15 130.28
  Q 32.39 130.15 32.53 130.37
  Q 32.61 130.48 32.67 130.59
  Q 32.82 130.85 33.06 130.67
  Q 47.23 119.90 61.61 109.41
  C 63.88 107.75 66.29 105.12 68.32 103.80
  Q 74.83 99.59 80.67 94.52
  C 84.37 91.32 88.48 88.62 92.03 85.54
  Q 95.12 82.86 98.20 80.80
  Q 101.51 78.58 104.40 76.17
  Q 107.64 73.48 111.26 71.32
  A 1.94 1.87 -89.4 0 0 111.93 70.64
  Q 112.32 69.95 112.93 69.52
  Q 116.42 67.07 119.73 64.37
  Q 120.06 64.09 120.08 63.66
  Q 120.10 63.22 120.76 62.75
  Q 123.11 61.07 127.85 57.21
  Q 128.43 56.73 130.13 55.90
  C 131.30 55.33 132.07 54.38 132.99 53.74
  Q 135.17 52.20 137.11 50.36
  C 138.79 48.77 140.89 47.85 142.44 46.31
  Q 148.68 40.08 154.37 36.12
  C 156.65 34.53 158.33 32.93 160.46 31.76
  C 162.29 30.75 163.72 29.34 165.42 28.19
  C 166.84 27.23 167.78 25.86 169.13 24.78
  C 171.04 23.25 172.39 21.08 174.04 19.93
  Q 175.78 18.72 176.38 17.25
  Q 176.56 16.82 176.99 16.62
  Q 177.62 16.34 177.86 15.70
  Q 178.00 15.33 177.79 14.98
  Q 177.62 14.68 177.82 14.03
  Z"
/>
<path fill="#f8f2f9" d="
  M 195.65 31.94
  Q 196.17 34.97 196.16 38.00
  Q 195.86 132.50 196.06 227.00
  C 196.07 234.74 192.73 244.77 185.92 249.42
  C 183.69 250.95 180.80 252.28 179.45 254.68
  A 0.59 0.59 0.0 0 1 178.60 254.87
  L 178.16 254.56
  Q 177.71 254.24 177.17 254.37
  Q 169.43 256.34 161.39 254.54
  Q 169.08 254.00 176.46 253.12
  Q 179.18 252.80 181.39 251.45
  C 184.33 249.64 187.21 247.98 189.28 245.23
  Q 195.00 237.64 195.01 228.25
  Q 195.09 130.19 195.08 32.29
  Q 195.35 32.05 195.65 31.94
  Z"
/>
<path fill="#ff2c2d" d="
  M 187.41 36.79
  Q 187.40 62.83 187.39 88.88
  C 187.38 89.74 186.93 90.52 186.67 91.36
  Q 186.51 91.91 186.14 91.47
  Q 185.97 91.28 185.97 91.01
  Q 185.97 90.63 185.80 90.97
  Q 185.25 92.04 184.84 92.98
  Q 184.65 93.43 184.37 93.38
  Q 184.18 93.35 184.09 93.53
  Q 183.65 94.49 182.68 94.88
  Q 182.19 95.08 181.89 95.51
  C 178.96 99.66 173.34 103.51 167.47 108.08
  Q 161.50 112.73 157.57 115.37
  Q 155.53 116.74 153.53 118.56
  C 150.55 121.29 147.01 123.67 143.89 126.13
  C 141.39 128.10 138.45 129.78 136.15 131.60
  C 129.43 136.96 122.86 142.59 115.94 147.68
  C 113.42 149.54 111.26 151.46 108.53 153.21
  Q 106.09 154.78 103.86 156.62
  C 101.19 158.82 97.97 160.54 95.32 163.02
  Q 95.24 163.10 95.13 163.11
  Q 95.00 163.11 94.86 163.15
  Q 94.79 163.16 94.73 163.22
  C 91.91 165.70 89.40 167.85 86.03 170.11
  Q 82.91 172.21 81.02 174.03
  Q 79.15 175.82 77.32 176.99
  Q 74.66 178.68 73.55 179.77
  C 71.84 181.44 70.01 183.70 67.82 184.68
  Q 66.81 185.13 66.08 185.80
  Q 62.53 189.05 58.55 191.72
  Q 52.99 195.45 50.74 197.22
  Q 42.11 204.03 33.09 210.32
  Q 32.89 210.46 32.89 210.71
  Q 32.88 210.92 32.75 211.01
  C 30.90 212.28 28.88 212.60 27.23 214.26
  C 25.54 215.96 24.07 217.57 22.04 218.98
  Q 18.65 221.34 15.52 224.02
  Q 15.05 224.42 14.00 224.70
  Q 13.51 224.84 13.22 225.25
  Q 12.95 225.65 12.46 225.96
  A 1.72 1.71 73.8 0 1 9.82 224.51
  L 9.85 180.91
  Q 11.87 179.71 13.78 178.49
  Q 15.53 177.38 17.51 175.75
  Q 22.62 171.55 27.99 167.68
  C 30.37 165.97 33.07 163.50 35.81 161.70
  Q 40.67 158.51 41.89 157.56
  Q 44.81 155.33 47.73 153.07
  C 50.56 150.87 53.75 149.09 56.37 146.88
  Q 59.79 143.99 63.17 141.07
  C 65.26 139.26 67.52 137.74 69.75 136.15
  C 72.56 134.15 76.10 131.04 79.60 128.85
  Q 80.15 128.50 81.58 127.01
  Q 82.56 125.98 83.66 125.30
  Q 87.60 122.86 91.58 120.47
  Q 93.63 119.23 95.90 116.89
  Q 98.90 113.79 102.64 111.53
  C 103.10 111.26 103.31 110.86 103.52 110.41
  Q 103.66 110.14 103.87 109.97
  Q 108.62 106.21 113.76 103.01
  C 114.58 102.50 114.98 101.65 115.76 101.01
  Q 118.54 98.75 121.53 96.79
  Q 123.64 95.42 125.96 93.11
  Q 128.53 90.55 131.65 88.71
  Q 133.99 87.32 135.30 86.14
  C 136.79 84.79 138.12 83.40 139.89 82.33
  C 145.06 79.22 149.39 75.07 154.51 71.83
  Q 156.47 70.60 158.94 68.50
  C 160.94 66.80 162.98 65.89 164.57 63.71
  Q 167.68 59.45 170.73 57.60
  C 173.15 56.13 175.17 55.38 176.01 53.38
  Q 176.12 53.12 176.32 52.92
  Q 179.40 49.77 182.49 46.62
  Q 182.82 46.28 183.27 46.11
  Q 183.85 45.89 183.89 45.23
  Q 183.92 44.82 184.29 44.65
  Q 185.57 44.05 185.93 42.63
  Q 185.99 42.39 186.24 42.38
  Q 186.39 42.37 186.54 42.37
  Q 186.69 42.37 186.65 42.52
  Q 186.50 42.95 186.71 43.13
  Q 187.01 43.39 187.03 43.00
  L 187.41 36.79
  Z"
/>
<path fill="#f8f2f9" d="
  M 7.76 238.26
  Q 9.26 241.63 11.04 243.34
  Q 14.21 249.00 18.38 250.63
  Q 20.82 251.59 23.10 252.89
  A 1.87 1.83 -31.1 0 0 24.07 253.12
  Q 27.09 252.97 29.42 254.53
  C 19.00 254.64 10.67 247.23 6.56 238.23
  Q 7.10 238.05 7.76 238.26
  Z"
/>
<path fill="#ff4041" d="
  M 159.24 251.03
  Q 149.23 252.02 139.06 251.61
  Q 139.00 251.60 138.95 251.63
  Q 138.82 251.70 138.71 251.78
  Q 138.62 251.84 138.51 251.83
  C 125.48 251.23 114.68 251.72 104.98 251.46
  C 97.98 251.28 90.92 251.81 83.94 251.63
  C 72.56 251.32 61.18 251.30 49.78 250.99
  L 159.24 251.03
  Z"
/>
</svg>
